<?xml version="1.0" encoding="UTF-8"?>
<svg width="80px" height="80px" viewBox="0 0 80 80" version="1.1" xmlns="http://www.w3.org/2000/svg" xmlns:xlink="http://www.w3.org/1999/xlink">
    <title>IconsRE/Eurolife/Avatar10</title>
    <g id="IconsRE/Eurolife/Avatar10" stroke="none" stroke-width="1" fill="none" fill-rule="evenodd">
        <path d="M68.9,38 C68.9,37.8 68.9,37.6 68.7,37.5 L59.2,23.4 C59,23.1 58.7,23 58.4,23 L39,23 L39,22 C39,21.4 38.6,21 38,21 L34.2,21 C33.6,21 33.2,21.4 33.2,22 L33.2,23 L23.4,23 C23,23 22.7,23.2 22.5,23.5 C22.5,23.6 22.4,23.7 22.4,23.8 L13.1,37.5 C12.8,38 12.9,38.6 13.4,38.9 C13.4,38.9 13.5,38.9 13.5,39 L13.5,64.4 C13.5,65 13.9,65.4 14.5,65.4 L32.8,65.4 L33,65.4 L68,65.4 C68.6,65.4 69,65 69,64.4 L68.9,38 C69,38 68.9,38 68.9,38 Z M35.2,24.9 L35.2,22.9 L35.2,22.9 L37,22.9 L37,22.9 L37,24.9 L37,29.3 L35.2,29.3 L35.2,24.9 Z M31.9,63.3 L27.4,63.3 C27.2,63.2 27,63.1 26.8,63.1 L21.1,63.1 L21.1,54.5 L25.8,54.5 L25.8,61.3 C25.8,61.9 26.2,62.3 26.8,62.3 C27.4,62.3 27.8,61.9 27.8,61.3 L27.8,53.5 C27.8,52.9 27.4,52.5 26.8,52.5 L20.1,52.5 C19.5,52.5 19.1,52.9 19.1,53.5 L19.1,63.3 L15.6,63.3 L15.6,38.1 C15.6,37.9 15.6,37.8 15.5,37.7 L23.5,25.8 L31.9,38.2 L31.9,63.3 Z M33.2,24.9 L33.2,30.3 C33.2,30.9 33.6,31.3 34.2,31.3 L38,31.3 C38.6,31.3 39,30.9 39,30.3 L39,24.9 L57.9,24.9 L67,38.3 L67,63.3 L34,63.3 L34,39.1 L63.5,39.1 C64.1,39.1 64.5,38.7 64.5,38.1 C64.5,37.5 64.1,37.1 63.5,37.1 L33.5,37.1 L25.3,24.9 L33.2,24.9 Z M57.5,42 L55.9,42 C55.3,42 54.9,42.4 54.9,43 C54.9,43.6 55.3,44 55.9,44 L56.5,44 L56.5,47.8 L53.6,47.8 L53.6,43 C53.6,42.4 53.2,42 52.6,42 C52,42 51.6,42.4 51.6,43 L51.6,48.8 C51.6,49.4 52,49.8 52.6,49.8 L57.5,49.8 C58.1,49.8 58.5,49.4 58.5,48.8 L58.5,43 C58.5,42.4 58.1,42 57.5,42 Z M36.1,8.6 C38,8.6 39.5,10.8 39.5,13.7 C39.5,16.2 37.2,19.2 36.9,19.6 C36.725,19.8625 36.4734375,19.971875 36.2123047,19.9951172 L36.1,20 L36.1,20 C35.8,20 35.5,19.9 35.3,19.6 C35,19.3 32.7,16.2 32.7,13.7 C32.7,10.9 34.2,8.6 36.1,8.6 Z M36.1,10.7 C35.6,10.7 34.7,11.9 34.7,13.8 C34.7,14.9 35.4,16.3 36.1,17.3 C36.8,16.3 37.5,14.8 37.5,13.8 C37.5,11.9 36.7,10.7 36.1,10.7 Z" id="Shape" fill="#fff"></path>
    </g>
</svg>