<?xml version="1.0" encoding="UTF-8"?>
<svg width="80px" height="80px" viewBox="0 0 80 80" version="1.1" xmlns="http://www.w3.org/2000/svg" xmlns:xlink="http://www.w3.org/1999/xlink">
    <title>IconsRE/Eurolife/Avatar4</title>
    <g id="IconsRE/Eurolife/Avatar4" stroke="none" stroke-width="1" fill="none" fill-rule="evenodd">
        <path d="M56.5822785,8 C57.2530633,8 57.7974684,8.54440506 57.7974684,9.21518987 L57.7974684,9.21518987 L57.7974684,29.0632911 L60.0771646,29.0632911 C61.5013671,29.0632911 62.6582278,30.2217722 62.6582278,31.6443544 L62.6582278,31.6443544 L62.6582278,40.2268354 C62.6582278,42.5583797 60.7609114,44.4556962 58.4277468,44.4556962 L58.4277468,44.4556962 L57.1979747,44.4556962 C56.2371646,48.0785823 54.1502785,51.244557 51.3164557,53.5372152 L51.3164557,53.5372152 L51.3164557,56.390481 C51.3164557,58.297519 52.867038,59.8481013 54.7740759,59.8481013 L54.7740759,59.8481013 L59.8227848,59.8481013 C65.8533671,59.8481013 70.7594937,64.7542278 70.7594937,70.7848101 C70.7594937,71.4555949 70.2150886,72 69.5443038,72 C68.873519,72 68.3291139,71.4555949 68.3291139,70.7848101 C68.3291139,66.0957975 64.5134177,62.278481 59.8227848,62.278481 L59.8227848,62.278481 L59.4177215,62.278481 L59.4177215,70.7848101 C59.4177215,71.4555949 58.8733165,72 58.2025316,72 C57.5317468,72 56.9873418,71.4555949 56.9873418,70.7848101 L56.9873418,70.7848101 L56.9873418,62.278481 L54.7740759,62.278481 C53.5621266,62.278481 52.4344304,61.9090633 51.4963038,61.2787848 C48.3351899,64.0121519 44.2991392,65.5189873 40.1124051,65.5189873 C36.0253807,65.5189873 32.0797468,64.0870328 28.9523089,61.473846 C28.0809412,61.9855565 27.0667849,62.278481 25.9854177,62.278481 L23.772,62.278 L23.7721519,70.7848101 C23.7721519,71.4555949 23.2277468,72 22.556962,72 C21.8861772,72 21.3417722,71.4555949 21.3417722,70.7848101 L21.341,62.278 L20.9367089,62.278481 C16.2460759,62.278481 12.4303797,66.0957975 12.4303797,70.7848101 C12.4303797,71.4555949 11.8859747,72 11.2151899,72 C10.5444051,72 10,71.4555949 10,70.7848101 C10,64.7542278 14.9061266,59.8481013 20.9367089,59.8481013 L25.9854177,59.8481013 C27.8924557,59.8481013 29.443038,58.297519 29.443038,56.390481 L29.4432147,53.5472946 C26.6051638,51.2517871 24.5001445,48.0842186 23.5394696,44.4559019 L22.3317468,44.4556962 C19.9985823,44.4556962 18.1012658,42.5583797 18.1012658,40.2268354 L18.1012658,31.6443544 C18.1012658,30.2217722 19.2581266,29.0632911 20.6823291,29.0632911 L22.962,29.063 L22.9620253,25.4177215 C22.9620253,15.9220069 30.59833,8.17779642 40.0530115,8.00301784 L40.3797468,8 Z M48.8860759,55.1850127 C46.3682025,56.6011139 43.4695696,57.4177215 40.3797468,57.4177215 C37.2924702,57.4177215 34.3903363,56.6105254 31.8732911,55.196079 L31.8734177,56.390481 C31.8734177,57.6690045 31.4639434,58.853575 30.7692333,59.8199538 C33.4167295,61.9336109 36.7067469,63.0886076 40.1124051,63.0886076 C43.6721013,63.0886076 47.1021772,61.8199494 49.8063797,59.5208101 C49.2311899,58.6118481 48.8860759,57.5441013 48.8860759,56.390481 L48.8860759,56.390481 Z M55.3670886,10.4303797 L40.3797468,10.4303797 C32.1148354,10.4303797 25.3924051,17.1528101 25.3924051,25.4177215 L25.3924051,25.4177215 L25.3924051,33.5189873 C25.3924051,34.1897722 24.848,34.7341772 24.1772152,34.7341772 C23.5064304,34.7341772 22.9620253,34.1897722 22.9620253,33.5189873 L22.9620253,33.5189873 L22.962,31.493 L20.6823291,31.4936709 C20.5980759,31.4936709 20.5316456,31.5617215 20.5316456,31.6443544 L20.5316456,40.2268354 C20.5316456,41.2184304 21.3385316,42.0253165 22.3317468,42.0253165 L23.0790835,42.0257075 C23.001773,41.3610449 22.9620253,40.6850808 22.9620253,40 C22.9620253,39.3292152 23.5064304,38.7848101 24.1772152,38.7848101 C24.848,38.7848101 25.3924051,39.3292152 25.3924051,40 C25.3924051,48.2649114 32.1148354,54.9873418 40.3797468,54.9873418 C48.6446582,54.9873418 55.3670886,48.2649114 55.3670886,40 C55.3670886,39.3292152 55.9114937,38.7848101 56.5822785,38.7848101 C57.2530633,38.7848101 57.7974684,39.3292152 57.7974684,40 C57.7974684,40.6869873 57.7472405,41.3593924 57.6694684,42.0253165 L57.6694684,42.0253165 L58.4277468,42.0253165 C59.4193418,42.0253165 60.2278481,41.2184304 60.2278481,40.2268354 L60.2278481,40.2268354 L60.2278481,31.6443544 C60.2278481,31.5617215 60.1597975,31.4936709 60.0771646,31.4936709 L60.0771646,31.4936709 L57.7974684,31.4936709 L57.7974684,33.5189873 C57.7974684,34.1897722 57.2530633,34.7341772 56.5822785,34.7341772 C55.9114937,34.7341772 55.3670886,34.1897722 55.3670886,33.5189873 L55.3670886,33.5189873 L55.3670886,25.0126582 L37.4017215,25.0126582 C34.3540253,25.0126582 31.8734177,27.4916456 31.8734177,30.540962 C31.8734177,31.2117468 31.3290127,31.7561519 30.6582278,31.7561519 C29.987443,31.7561519 29.443038,31.2117468 29.443038,30.540962 C29.443038,26.1516962 33.0140759,22.5822785 37.4017215,22.5822785 L37.4017215,22.5822785 L55.3670886,22.5822785 L55.3670886,10.4303797 Z M31.6465823,43.8189367 C32.1553418,43.3798481 32.9233418,43.436557 33.3608101,43.948557 C35.100962,45.9690127 37.6139747,47.1274937 40.2582278,47.1274937 C42.7566582,47.1274937 45.1773165,46.0727089 46.8980253,44.2321013 C47.3581772,43.7427848 48.1261772,43.718481 48.6171139,44.1753924 C49.1064304,44.6339241 49.1323544,45.4035443 48.6738228,45.894481 C46.4945823,48.2227848 43.427443,49.5578734 40.2582278,49.5578734 C36.9059241,49.5578734 33.7221266,48.0915443 31.5185823,45.5331646 C31.0811139,45.0260253 31.1378228,44.2580253 31.6465823,43.8189367 Z" id="Combined-Shape" fill="#EF3340"></path>
    </g>
</svg>