<?xml version="1.0" encoding="UTF-8"?>
<svg width="80px" height="80px" viewBox="0 0 80 80" version="1.1" xmlns="http://www.w3.org/2000/svg" xmlns:xlink="http://www.w3.org/1999/xlink">
    <title>IconsRE/Eurolife/Avatar5</title>
    <g id="IconsRE/Eurolife/Avatar5" stroke="none" stroke-width="1" fill="none" fill-rule="evenodd">
        <path d="M40.256754,49.5589666 C43.4258148,49.5589666 46.4928046,48.223943 48.671939,45.8941324 C49.1304483,45.4048398 49.1045255,44.635257 48.6136127,44.1767477 C48.1259403,43.7182384 47.3563575,43.742541 46.896228,44.2334538 C45.175603,46.0739718 42.7550627,47.1287052 40.256754,47.1287052 C37.6142498,47.1287052 35.0997394,45.9702806 33.3596722,43.9499233 C32.9189848,43.4395685 32.1542626,43.3828624 31.6455279,43.8203094 C31.1367932,44.2593766 31.0800871,45.025719 31.5175341,45.5344537 C33.7209711,48.0927089 36.9046135,49.5589666 40.256754,49.5589666 Z M62.6556629,60.265078 L62.6556629,30.8329927 C62.6556629,19.1401952 54.1659498,9.38512605 42.907359,8.14245241 C36.4801278,7.43119592 30.2991631,9.39970762 25.5196491,13.6818281 C20.804942,17.9056224 18.1008712,23.955353 18.1008712,30.2805133 L18.1008712,60.2342947 C13.4428703,61.4883095 10,65.7364064 10,70.7848693 C10,71.4556215 10.5443785,72 11.2151307,72 C11.8858828,72 12.4302614,71.4556215 12.4302614,70.7848693 C12.4302614,66.0944649 16.2457717,62.2789545 20.9361761,62.2789545 L25.9846391,62.2789545 C27.0652953,62.2789545 28.066563,61.9646407 28.9382167,61.4542859 C29.610589,62.0164863 30.3202253,62.5203605 31.0622652,62.9723891 L31.0622652,70.7848693 C31.0622652,71.4556215 31.6066437,72 32.2773958,72 C32.948148,72 33.4925265,71.4556215 33.4925265,70.7848693 L33.4925265,64.1940005 C35.5793109,65.0526928 37.8216321,65.519303 40.1109383,65.519303 C42.5849444,65.519303 45.0249268,64.9603429 47.2640076,63.9509744 L47.2640076,70.7848693 C47.2640076,71.4556215 47.8083861,72 48.4791383,72 L52.1018479,72 C57.4792062,72 61.9233441,67.9528047 62.5665533,62.7455647 C65.967299,63.8991288 68.3262727,67.0860115 68.3262727,70.7848693 C68.3262727,71.4556215 68.8706513,72 69.5414034,72 C70.2121555,72 70.7565341,71.4556215 70.7565341,70.7848693 C70.7565341,65.7850116 67.3946725,61.5336744 62.6556629,60.265078 Z M29.4420909,56.3912413 C29.4420909,58.2981864 27.8915842,59.8486932 25.9846391,59.8486932 L20.9361761,59.8486932 C20.8000815,59.8486932 20.6672272,59.8648949 20.5311326,59.8697554 L20.5311326,44.0390329 C21.0787515,44.299881 21.6846966,44.4570379 22.3311462,44.4570379 L23.5608584,44.4570379 C24.5216217,48.0797475 26.6084062,51.245568 29.4420909,53.5381145 L29.4420909,56.3912413 Z M47.2640076,61.2857877 C47.2510462,61.2922684 47.2364646,61.2906483 47.2251234,61.2987491 C45.0540899,62.4701351 42.5946654,63.0890417 40.1109383,63.0890417 C36.7085724,63.0890417 33.4147582,61.9176557 30.7657733,59.8017081 C31.4559675,58.8377045 31.8723523,57.6646983 31.8723523,56.3912413 L31.8723523,55.1858317 C34.390103,56.601864 37.2885948,57.4184318 40.378267,57.4184318 C42.82311,57.4184318 45.1496802,56.9064568 47.2640076,55.9926785 L47.2640076,61.2857877 Z M60.2254015,61.446185 C60.2254015,65.9259668 56.5800095,69.5697386 52.1018479,69.5697386 L49.6942689,69.5697386 L49.6942689,54.6932987 C54.5547917,51.5987659 57.7951402,46.1776629 57.7951402,40.0015587 L57.7951402,31.9006875 C57.7951402,31.2299354 57.2507616,30.6855568 56.5800095,30.6855568 L36.8705898,30.6855568 C33.9688577,30.6855568 31.6050235,28.3233428 31.6050235,25.4199905 C31.6050235,24.7492384 31.060645,24.2048598 30.3898928,24.2048598 C29.7191407,24.2048598 29.1747622,24.7492384 29.1747622,25.4199905 C29.1747622,29.6632269 32.6273535,33.1158182 36.8705898,33.1158182 L55.3648788,33.1158182 L55.3648788,40.0015587 C55.3648788,48.2660675 48.6427759,54.9881705 40.378267,54.9881705 C32.1137582,54.9881705 25.3916553,48.2660675 25.3916553,40.0015587 C25.3916553,39.3308066 24.8472768,38.786428 24.1765246,38.786428 C23.5057725,38.786428 22.9613939,39.3308066 22.9613939,40.0015587 C22.9613939,40.6885126 23.0116193,41.3608849 23.0893877,42.0267765 L22.3311462,42.0267765 C21.3395995,42.0267765 20.5311326,41.2199297 20.5311326,40.2267629 L20.5311326,31.6463201 C20.5311326,31.5636913 20.5991799,31.4956439 20.6818088,31.4956439 L22.9613939,31.4956439 L22.9613939,33.5208617 C22.9613939,34.1916139 23.5057725,34.7359924 24.1765246,34.7359924 C24.8472768,34.7359924 25.3916553,34.1916139 25.3916553,33.5208617 L25.3916553,27.0401648 C25.3916553,26.3694126 24.8472768,25.8250341 24.1765246,25.8250341 C23.5057725,25.8250341 22.9613939,26.3694126 22.9613939,27.0401648 L22.9613939,29.0653826 L20.6818088,29.0653826 C20.6526456,29.0653826 20.6251027,29.0734834 20.5959395,29.0734834 C20.9134937,23.8824452 23.2416841,18.9846584 27.1414435,15.4931829 C31.3992614,11.6776726 36.8900319,9.91978355 42.6400303,10.5581322 C52.6656685,11.6647112 60.2254015,20.3812486 60.2254015,30.8329927 L60.2254015,61.446185 L60.2254015,61.446185 Z" id="Fill-51" fill="#EF3340"></path>
    </g>
</svg>