<?xml version="1.0" encoding="UTF-8"?>
<svg width="80px" height="80px" viewBox="0 0 80 80" version="1.1" xmlns="http://www.w3.org/2000/svg" xmlns:xlink="http://www.w3.org/1999/xlink">
    <title>IconsRE/Eurolife/Avatar8</title>
    <g id="IconsRE/Eurolife/Avatar8" stroke="none" stroke-width="1" fill="none" fill-rule="evenodd">
        <path d="M46.8980253,44.2321013 C45.1773165,46.0727089 42.7566582,47.1274937 40.2582278,47.1274937 C37.6155949,47.1274937 35.100962,45.9690127 33.3608101,43.9469367 C32.9201013,43.4397975 32.1553418,43.3798481 31.6465823,43.8189367 C31.1378228,44.2580253 31.0811139,45.0244051 31.5185823,45.5331646 C33.7221266,48.0915443 36.9059241,49.5578734 40.2582278,49.5578734 C43.427443,49.5578734 46.4945823,48.2227848 48.6738228,45.8928608 C49.1323544,45.4035443 49.1064304,44.6339241 48.6154937,44.1753924 C48.1277975,43.7168608 47.3581772,43.7411646 46.8980253,44.2321013 Z M59.8227848,59.8481013 L54.7740759,59.8481013 C52.867038,59.8481013 51.3164557,58.297519 51.3164557,56.390481 L51.3164557,53.5372152 C54.1502785,51.244557 56.2371646,48.0785823 57.1979747,44.4556962 L58.4277468,44.4556962 C60.7609114,44.4556962 62.6582278,42.5583797 62.6582278,40.2252152 L62.6582278,23.7974684 C62.6582278,19.5945316 59.267038,16.1774177 55.0786835,16.1126076 C51.9872405,11.2453671 46.5610127,8 40.3797468,8 C34.198481,8 28.7722532,11.2453671 25.6808101,16.1126076 C21.4924557,16.1774177 18.1012658,19.5945316 18.1012658,23.7974684 L18.1012658,40.2252152 C18.1012658,42.5583797 19.9985823,44.4556962 22.3317468,44.4556962 L23.561519,44.4556962 C24.5223291,48.0785823 26.6092152,51.244557 29.443038,53.5372152 L29.443038,56.390481 C29.443038,58.297519 27.8924557,59.8481013 25.9854177,59.8481013 L20.9367089,59.8481013 C14.9061266,59.8481013 10,64.7542278 10,70.7848101 C10,71.4555949 10.5444051,72 11.2151899,72 C11.8859747,72 12.4303797,71.4555949 12.4303797,70.7848101 C12.4303797,66.0941772 16.2460759,62.278481 20.9367089,62.278481 L21.3417722,62.278481 L21.3417722,70.7848101 C21.3417722,71.4555949 21.8861772,72 22.556962,72 C23.2277468,72 23.7721519,71.4555949 23.7721519,70.7848101 L23.7721519,62.278481 L25.9854177,62.278481 C26.0599494,62.278481 26.1296203,62.259038 26.2025316,62.2574177 L26.2025316,70.7848101 C26.2025316,71.4555949 26.7469367,72 27.4177215,72 C28.0885063,72 28.6329114,71.4555949 28.6329114,70.7848101 L28.6329114,61.6206582 C28.7398481,61.5671899 28.8435443,61.510481 28.9472405,61.4505316 C32.0759494,64.070481 36.0180253,65.5189873 40.1124051,65.5189873 C44.2991392,65.5189873 48.3351899,64.0121519 51.4963038,61.2787848 C51.6939747,61.4116456 51.9127089,61.5121013 52.1265823,61.6206582 L52.1265823,70.7848101 C52.1265823,71.4555949 52.6709873,72 53.3417722,72 C54.012557,72 54.556962,71.4555949 54.556962,70.7848101 L54.556962,62.2574177 C54.6298734,62.259038 54.6995443,62.278481 54.7740759,62.278481 L56.9873418,62.278481 L56.9873418,70.7848101 C56.9873418,71.4555949 57.5317468,72 58.2025316,72 C58.8733165,72 59.4177215,71.4555949 59.4177215,70.7848101 L59.4177215,62.278481 L59.8227848,62.278481 C64.5134177,62.278481 68.3291139,66.0941772 68.3291139,70.7848101 C68.3291139,71.4555949 68.873519,72 69.5443038,72 C70.2150886,72 70.7594937,71.4555949 70.7594937,70.7848101 C70.7594937,64.7542278 65.8533671,59.8481013 59.8227848,59.8481013 Z M60.2278481,23.7974684 L60.2278481,29.0778734 C60.1776203,29.0762532 60.1290127,29.0632911 60.0771646,29.0632911 L57.7974684,29.0632911 L57.7974684,25.4177215 C57.7974684,23.0683544 57.3243544,20.8275443 56.476962,18.7795443 C58.6383797,19.4357468 60.2278481,21.4237975 60.2278481,23.7974684 Z M20.5316456,23.7974684 C20.5316456,21.4237975 22.1211139,19.4357468 24.2825316,18.7795443 C23.4351392,20.8275443 22.9620253,23.0683544 22.9620253,25.4177215 L22.9620253,29.0632911 L20.6823291,29.0632911 C20.630481,29.0632911 20.5818734,29.0762532 20.5316456,29.0778734 L20.5316456,23.7974684 Z M40.1124051,63.0886076 C36.7033924,63.0886076 33.417519,61.9171646 30.7684051,59.7994937 C31.4570127,58.835443 31.8734177,57.664 31.8734177,56.390481 L31.8734177,55.1850127 C34.3912911,56.6011139 37.2899241,57.4177215 40.3797468,57.4177215 C43.4695696,57.4177215 46.3682025,56.6011139 48.8860759,55.1850127 L48.8860759,56.390481 C48.8860759,57.5441013 49.2311899,58.6118481 49.8063797,59.5208101 C47.1021772,61.8183291 43.6721013,63.0886076 40.1124051,63.0886076 Z M40.3797468,54.9873418 C32.1148354,54.9873418 25.3924051,48.2649114 25.3924051,40 C25.3924051,39.3292152 24.848,38.7848101 24.1772152,38.7848101 C23.5064304,38.7848101 22.9620253,39.3292152 22.9620253,40 C22.9620253,40.6853671 23.0122532,41.3593924 23.0900253,42.0253165 L22.3317468,42.0253165 C21.3401519,42.0253165 20.5316456,41.2168101 20.5316456,40.2252152 L20.5316456,31.6443544 C20.5316456,31.5617215 20.5996962,31.4936709 20.6823291,31.4936709 L22.9620253,31.4936709 L22.9620253,33.5189873 C22.9620253,34.1897722 23.5064304,34.7341772 24.1772152,34.7341772 C24.848,34.7341772 25.3924051,34.1897722 25.3924051,33.5189873 L25.3924051,25.4177215 C25.3924051,17.1528101 32.1148354,10.4303797 40.3797468,10.4303797 C48.6446582,10.4303797 55.3670886,17.1528101 55.3670886,25.4177215 L55.3670886,33.5189873 C55.3670886,34.1897722 55.9114937,34.7341772 56.5822785,34.7341772 C57.2530633,34.7341772 57.7974684,34.1897722 57.7974684,33.5189873 L57.7974684,31.4936709 L60.0771646,31.4936709 C60.1597975,31.4936709 60.2278481,31.5617215 60.2278481,31.6443544 L60.2278481,40.2252152 C60.2278481,41.2168101 59.4193418,42.0253165 58.4277468,42.0253165 L57.6694684,42.0253165 C57.7472405,41.3593924 57.7974684,40.6853671 57.7974684,40 C57.7974684,39.3292152 57.2530633,38.7848101 56.5822785,38.7848101 C55.9114937,38.7848101 55.3670886,39.3292152 55.3670886,40 C55.3670886,48.2649114 48.6446582,54.9873418 40.3797468,54.9873418 L40.3797468,54.9873418 Z" id="Fill-84" fill="#EF3340"></path>
    </g>
</svg>