<?xml version="1.0" encoding="UTF-8"?>
<svg width="80px" height="80px" viewBox="0 0 80 80" version="1.1" xmlns="http://www.w3.org/2000/svg" xmlns:xlink="http://www.w3.org/1999/xlink">
    <title>IconsRE/Eurolife/Avatar9</title>
    <g id="IconsRE/Eurolife/Avatar9" stroke="none" stroke-width="1" fill="none" fill-rule="evenodd">
        <path d="M72,61.5 C73.5,60.4 74.4,58.6 74.4,56.7 C74.4,53.4 71.7,50.6 68.3,50.6 L67.3,50.6 L67.3,41.5 C67.3,35 62,29.6 55.4,29.6 L53.6,29.6 C47.1,29.6 41.7,34.9 41.7,41.5 L41.7,50.6 L41.1,50.6 C39.7,48.5 36.6,47.3 34.2,47.3 L31.6,47.3 C31.5,47.3 31.5,47.3 31.4,47.3 L31.4,42.4 C33.6,41 35.2,38.6 36,36.1 L36.6,36.1 C38.3,36.1 39.8,34.7 39.8,32.9 L39.8,28.1 C39.8,27.2 39,26.4 38.1,26.4 L36.5,26.4 L36.5,21.6 C36.5,16.4 32.3,12.2 27.1,12.2 L22.1,12.2 C16.9,12.2 12.7,16.4 12.7,21.6 L12.7,26.4 L11,26.4 C10.1,26.4 9.3,27.2 9.3,28.1 L9.3,33 C9.3,34.7 10.7,36.2 12.5,36.2 L13.2,36.2 C14,38.7 15.6,41.1 17.8,42.5 L17.8,47.4 C17.7,47.4 17.6,47.4 17.5,47.4 L15,47.4 C11.5,47.4 5,50.3 5,54.4 C5,55 5.4,55.4 6,55.4 C6.6,55.4 7,55 7,54.4 C7,51.9 12,49.4 15,49.4 L17.5,49.4 C18.1,49.4 18.6,49.5 19,49.8 C19.9,50.3 21.3,50.9 23.5,51 L23.5,60.9 C23.5,61.5 23.9,61.9 24.5,61.9 C25.1,61.9 25.5,61.5 25.5,60.9 L25.5,51 C27.7,50.9 29.1,50.3 29.9,49.8 C30.3,49.5 30.9,49.4 31.4,49.4 L34,49.4 C35.6,49.4 37.3,50.1 38.4,51 C36.2,51.7 34.6,53.8 34.6,56.2 L34.6,57.4 C34.6,59.1 35.3,60.5 36.5,61.5 C34.7,62.5 33.5,64.5 33.5,66.7 C33.5,67.3 33.9,67.7 34.5,67.7 C35.1,67.7 35.5,67.3 35.5,66.7 C35.5,64.6 37.2,62.9 39.3,62.8 C39.6,62.8 39.8,62.9 40.1,62.9 L45.6,62.9 C46.4,62.9 47.2,62.7 47.9,62.3 C47.9,62.3 47.9,62.4 48,62.4 L53.9,67 C54.1,67.1 54.3,67.2 54.5,67.2 C54.7,67.2 54.9,67.1 55.1,67 L60.4,62.7 C60.5,62.6 60.5,62.6 60.6,62.5 C61.2,62.7 61.8,62.9 62.5,62.9 L68.1,62.9 C68.4,62.9 68.7,62.9 68.9,62.8 C71,62.9 72.7,64.6 72.7,66.7 C72.7,67.3 73.1,67.7 73.7,67.7 C74.3,67.7 74.7,67.3 74.7,66.7 C74.9,64.5 73.7,62.6 72,61.5 Z M14.8,33.1 C14.8,32.5 14.4,32.1 13.8,32.1 C13.2,32.1 12.8,32.5 12.8,33.1 C12.8,33.5 12.8,33.8 12.9,34.2 L12.6,34.2 C12,34.2 11.4,33.7 11.4,33 L11.4,28.5 L12.8,28.5 L12.8,29.3 C12.8,29.9 13.2,30.3 13.8,30.3 C14.4,30.3 14.8,29.9 14.8,29.3 L14.8,27.6 C14.8,27.6 14.8,27.5 14.8,27.5 C14.8,27.5 14.8,27.4 14.8,27.4 L14.8,21.7 C14.8,17.6 18.1,14.3 22.2,14.3 L27.2,14.3 C31.3,14.3 34.6,17.6 34.6,21.7 L34.6,23.4 L23.2,23.4 C21.6,23.4 20.1,22.2 19.8,20.6 C19.7,20.1 19.2,19.7 18.6,19.8 C18.1,19.9 17.7,20.4 17.8,21 C18.3,23.5 20.6,25.4 23.1,25.4 L34.4,25.4 L34.4,27.5 C34.4,27.5 34.4,27.5 34.4,27.5 C34.4,27.5 34.4,27.5 34.4,27.5 L34.4,29.3 C34.4,29.9 34.8,30.3 35.4,30.3 C36,30.3 36.4,29.9 36.4,29.3 L36.4,28.5 L37.7,28.5 L37.7,33 C37.7,33.6 37.2,34.2 36.5,34.2 L36.3,34.2 C36.3,33.8 36.4,33.5 36.4,33.1 C36.4,32.5 36,32.1 35.4,32.1 C34.8,32.1 34.4,32.5 34.4,33.1 C34.4,37.3 31,42 26.5,42 L22.5,42 C18.1,42 14.8,37.3 14.8,33.1 Z M24.7,49 C22.2,49 20.8,48.4 20.2,48 C20.1,47.9 20,47.9 19.9,47.9 L19.9,43.5 C20.8,43.8 21.7,44 22.7,44 L26.7,44 C27.7,44 28.6,43.8 29.5,43.5 L29.5,47.9 C29.3,47.9 29.2,48 29,48 C28.5,48.4 27.1,49 24.7,49 Z M54.7,64.9 L49.7,61 C50.4,60.1 50.9,59 50.9,57.7 L50.9,55.8 C50.9,55.6 50.9,55.5 50.9,55.3 C52,55.7 53.3,56 54.6,56 C55.7,56 56.7,55.8 57.7,55.5 C57.7,55.6 57.7,55.7 57.7,55.8 L57.7,57.7 C57.7,59.1 58.3,60.4 59.2,61.3 L54.7,64.9 Z M55.5,31.7 C60.9,31.7 65.4,36.1 65.4,41.6 L65.4,51.5 L65.4,51.5 C65.4,51.6 65.3,51.7 65.3,51.8 C65.3,52.4 65.7,52.8 66.3,52.8 L68.3,52.8 C70.5,52.8 72.4,54.6 72.4,56.9 C72.4,58.9 71,60.5 69.1,60.9 L67.4,60.9 C67.3,60.9 67.1,60.9 67,61 L62.7,61 C61,60.8 59.6,59.4 59.6,57.7 L59.6,55.8 C59.6,55.3 59.7,54.9 59.9,54.5 C62.5,52.9 64.2,50.2 64.2,47.2 L64.2,40.8 L64.2,40.8 C64.2,40.3 63.7,39.8 63.2,39.8 L52.5,39.8 C51.6,39.8 50.8,39.2 50.8,38.4 L50.8,37.4 C50.8,36.8 50.4,36.4 49.8,36.4 C49.2,36.4 48.8,36.8 48.8,37.4 L48.8,38.4 C48.8,40.3 50.4,41.8 52.5,41.8 L62.2,41.8 L62.2,47.2 C62.2,51 58.8,54 54.6,54 C52.6,54 50.6,53.3 49.2,52 C47.8,50.7 47,49 47,47.2 L47,41.9 C47,41.3428571 46.655102,40.9581633 46.1254373,40.9060496 L46,40.9 L46,40.9 C45.4,40.9 45,41.3 45,41.9 L45,47.2 C45,49.6 46,51.8 47.8,53.5 C48,53.6 48.1,53.8 48.3,53.9 C48.3,54 48.3,54.1 48.4,54.1 C48.7,54.6 48.9,55.2 48.9,55.8 L48.9,57.7 C48.9,59.4 47.5,60.8 45.8,60.8 L39.7,60.8 L39.7,60.8 C38.1,60.5 37,59.1 37,57.4 L37,56.2 C37,54.3 38.5,52.8 40.4,52.8 L42.7,52.8 C43.2,52.8 43.5,52.5 43.6,52.1 C43.7,51.9 43.8,51.8 43.8,51.5 L43.8,41.6 C43.8,36.2 48.2,31.7 53.7,31.7 L55.5,31.7 Z M18.3,34.3 C18.6,33.9 19.3,33.9 19.7,34.2 C21,35.3 22.8,35.9 24.7,35.9 C26.3,35.9 27.9,35.5 29.2,34.6 C29.7,34.3 30.3,34.4 30.6,34.9 C30.9,35.4 30.8,36 30.3,36.3 C28.7,37.4 26.8,38 24.7,37.8 C22.4,37.8 20.1,37.1 18.4,35.7 C18,35.4 18,34.7 18.3,34.3 Z" id="icon" fill="#fff"></path>
    </g>
</svg>