<?xml version="1.0" encoding="UTF-8"?>
<svg width="72px" height="55px" viewBox="0 0 72 55" version="1.1" xmlns="http://www.w3.org/2000/svg" xmlns:xlink="http://www.w3.org/1999/xlink">
    <!-- Generator: Sketch 54.1 (76490) - https://sketchapp.com -->
    <title>Group 20</title>
    <desc>Created with Sketch.</desc>
    <g id="Τ2---PRD-Motor" stroke="none" stroke-width="1" fill="none" fill-rule="evenodd">
        <g id="T2-1-PRD-Motor" transform="translate(-170.000000, -1280.000000)">
            <g id="Group-20" transform="translate(170.000000, 1280.000000)">
                <path d="M72,26 C72,11.6397479 60.1364108,0 45.5,0 C30.8635892,0 19,11.6397479 19,26 C19,40.3602521 30.8635892,52 45.5,52 C60.1364108,52 72,40.3602521 72,26 Z M68.0740741,26 C68.0740741,38.2329331 57.9681818,48.1481481 45.5,48.1481481 C33.0318182,48.1481481 22.9259259,38.2329331 22.9259259,26 C22.9259259,13.7670669 33.0318182,3.85185185 45.5,3.85185185 C57.9681818,3.85185185 68.0740741,13.7670669 68.0740741,26 Z" id="Path" fill="#479463" fill-rule="nonzero"></path>
                <path d="M45.92,28 L45.92,24 L54.08,24 L54.08,28 L45.92,28 Z M45.92,24 L54.08,24 C56.64,24 56.64,28 54.08,28 L45.92,28 C43.36,28 43.36,24 45.92,24 Z" id="Path" fill="#479463" fill-rule="nonzero"></path>
                <path d="M48,26.0606061 L44,26.0606061 L44,13.9393939 L48,13.9393939 L48,26.0606061 Z M44,26.0606061 L44,13.9393939 C44,11.3535354 48,11.3535354 48,13.9393939 L48,26.0606061 C48,28.6464646 44,28.6464646 44,26.0606061 Z" id="Path" fill="#479463" fill-rule="nonzero"></path>
                <path d="M66.75,28 L66.75,24 L70.25,24 L70.25,28 L66.75,28 Z M66.75,24 L70.25,24 C72.5833333,24 72.5833333,28 70.25,28 L66.75,28 C64.4166667,28 64.4166667,24 66.75,24 Z" id="Path" fill="#479463" fill-rule="nonzero"></path>
                <path d="M61.0001857,13.4592753 L58.5407247,10.9998143 L60.9998143,8.54072465 L63.4592753,11.0001857 L61.0001857,13.4592753 Z M58.5407247,10.9998143 L60.9998143,8.54072465 C62.639455,6.90108395 65.098916,9.360545 63.4592753,11.0001857 L61.0001857,13.4592753 C59.360545,15.098916 56.901084,12.639455 58.5407247,10.9998143 Z" id="Path" fill="#479463" fill-rule="nonzero"></path>
                <path d="M48,5.25 L44,5.25 L44,1.75 L48,1.75 L48,5.25 Z M44,5.25 L44,1.75 C44,-0.583333333 48,-0.583333333 48,1.75 L48,5.25 C48,7.58333333 44,7.58333333 44,5.25 Z" id="Path" fill="#479463" fill-rule="nonzero"></path>
                <path d="M32.4592753,10.9998143 L29.9998143,13.4592753 L27.5407247,11.0001857 L30.0001857,8.54072465 L32.4592753,10.9998143 Z M29.9998143,13.4592753 L27.5407247,11.0001857 C25.901084,9.360545 28.360545,6.90108395 30.0001857,8.54072465 L32.4592753,10.9998143 C34.098916,12.639455 31.639455,15.098916 29.9998143,13.4592753 Z" id="Path" fill="#479463" fill-rule="nonzero"></path>
                <path d="M24.25,24 L24.25,28 L20.75,28 L20.75,24 L24.25,24 Z M24.25,28 L20.75,28 C18.4166667,28 18.4166667,24 20.75,24 L24.25,24 C26.5833333,24 26.5833333,28 24.25,28 Z" id="Path" fill="#479463" fill-rule="nonzero"></path>
                <path d="M29.9998143,39.5407247 L32.4592753,42.0001857 L30.0001857,44.4592753 L27.5407247,41.9998143 L29.9998143,39.5407247 Z M32.4592753,42.0001857 L30.0001857,44.4592753 C28.360545,46.098916 25.901084,43.639455 27.5407247,41.9998143 L29.9998143,39.5407247 C31.639455,37.901084 34.098916,40.360545 32.4592753,42.0001857 Z" id="Path" fill="#479463" fill-rule="nonzero"></path>
                <path d="M44,46.75 L48,46.75 L48,50.25 L44,50.25 L44,46.75 Z M48,46.75 L48,50.25 C48,52.5833333 44,52.5833333 44,50.25 L44,46.75 C44,44.4166667 48,44.4166667 48,46.75 Z" id="Path" fill="#479463" fill-rule="nonzero"></path>
                <path d="M58.5407247,42.0001857 L61.0001857,39.5407247 L63.4592753,41.9998143 L60.9998143,44.4592753 L58.5407247,42.0001857 Z M61.0001857,39.5407247 L63.4592753,41.9998143 C65.098916,43.639455 62.639455,46.098916 60.9998143,44.4592753 L58.5407247,42.0001857 C56.901084,40.360545 59.360545,37.901084 61.0001857,39.5407247 Z" id="Path" fill="#479463" fill-rule="nonzero"></path>
                <g id="Group-7" transform="translate(0.000000, 18.000000)">
                    <path d="M32.4545455,36.0263158 C29.8219091,36.0263158 27.5386364,34.1977368 26.9029091,31.5785263 L23.1973636,31.5785263 C22.5616364,34.1977368 20.286,36.0263158 17.6590909,36.0263158 L5.72727273,36.0263158 C2.56963636,36.0263158 -1.77635684e-15,33.4051579 -1.77635684e-15,30.1842105 C-1.77635684e-15,26.4647368 1.281,22.8718421 3.60818182,20.0656842 L5.13354545,18.2234737 L3.04690909,17.0881579 C1.16645455,16.0696842 -1.77635684e-15,14.0911579 -1.77635684e-15,11.9276316 C-1.77635684e-15,5.35136842 5.24618182,0 11.6931818,0 C14.6408182,0 17.4643636,1.14115789 19.6464545,3.21315789 L21.357,4.83726316 L22.5769091,2.80226316 C23.6269091,1.04768421 25.4462727,0 27.4412727,0 C28.0579091,0 28.6707273,0.101263158 29.2568182,0.301842105 C30.7077273,0.794526316 31.8837273,1.83442105 32.5671818,3.23068421 C33.2506364,4.62889474 33.3613636,6.21210526 32.8764545,7.69210526 L32.1586364,9.88873684 L34.0600909,10.4573684 C36.4865455,11.1817895 38.1818182,13.4874737 38.1818182,16.0657895 L38.1818182,18.9576316 L38.8958182,19.5418421 C40.2627273,20.6596316 41.0454545,22.3207368 41.0454545,24.0986842 C41.0454545,25.8766316 40.2608182,27.5396842 38.8958182,28.6574737 L38.1818182,29.2436316 L38.1818182,30.1764211 C38.1818182,33.4051579 35.6121818,36.0263158 32.4545455,36.0263158" id="Fill-3" fill="#FFFFFF"></path>
                    <path d="M19.5681818,11.9276316 C19.5681818,16.3943676 17.0941044,20.4783467 13.1769532,22.4773582 L11.9165544,23.1201931 C9.87753226,24.1595384 8.42209504,26.0438562 7.87513074,28.2368421 L17.6590909,28.2368421 C18.7134527,28.2368421 19.5681818,29.1087086 19.5681818,30.1842105 C19.5681818,31.2597124 18.7134527,32.1315789 17.6590909,32.1315789 L5.72727273,32.1315789 C4.67291093,32.1315789 3.81818182,31.2597124 3.81818182,30.1842105 C3.81818182,25.7169974 6.29274935,21.6328604 10.2094104,19.6364313 L11.4690118,18.9940031 C14.0927347,17.6550574 15.75,14.9193965 15.75,11.9276316 C15.75,9.64197557 13.9339109,7.78947368 11.6931818,7.78947368 C9.4524527,7.78947368 7.63636364,9.64197557 7.63636364,11.9276316 C7.63636364,13.0031335 6.78163452,13.875 5.72727273,13.875 C4.67291093,13.875 3.81818182,13.0031335 3.81818182,11.9276316 C3.81818182,7.4909718 7.34372911,3.89473684 11.6931818,3.89473684 C16.0426345,3.89473684 19.5681818,7.4909718 19.5681818,11.9276316 Z M30.5454545,22.1513158 L30.5454545,16.0657895 C30.5454545,14.9902876 31.4001837,14.1184211 32.4545455,14.1184211 C33.5089072,14.1184211 34.3636364,14.9902876 34.3636364,16.0657895 L34.3636364,22.1513158 L35.3181818,22.1513158 C36.3725436,22.1513158 37.2272727,23.0231823 37.2272727,24.0986842 C37.2272727,25.1741861 36.3725436,26.0460526 35.3181818,26.0460526 L34.3636364,26.0460526 L34.3636364,30.1842105 C34.3636364,31.2597124 33.5089072,32.1315789 32.4545455,32.1315789 C31.4001837,32.1315789 30.5454545,31.2597124 30.5454545,30.1842105 L30.5454545,26.0460526 L21.4772727,26.0460526 C20.174208,26.0460526 19.2540848,24.7438539 19.6661501,23.4828722 L25.6320592,5.2262933 C25.9654776,4.20598263 27.0466339,3.65456581 28.0468894,3.99466937 C29.0471448,4.33477292 29.587723,5.43760656 29.2543045,6.45791723 L24.1259949,22.1513158 L30.5454545,22.1513158 Z" id="Combined-Shape" fill="#479463" fill-rule="nonzero"></path>
                </g>
            </g>
        </g>
    </g>
</svg>