<?xml version="1.0" encoding="UTF-8"?>
<svg width="73px" height="59px" viewBox="0 0 73 59" version="1.1" xmlns="http://www.w3.org/2000/svg" xmlns:xlink="http://www.w3.org/1999/xlink">
    <!-- Generator: Sketch 54.1 (76490) - https://sketchapp.com -->
    <title>Combined Shape</title>
    <desc>Created with Sketch.</desc>
    <g id="Τ2---PRD-Motor" stroke="none" stroke-width="1" fill="none" fill-rule="evenodd">
        <g id="T2-1-PRD-Motor" transform="translate(-535.000000, -1279.000000)" fill="#479463" fill-rule="nonzero" stroke="#479463">
            <path d="M598.203407,1313.60937 L594.563243,1309.97228 L594.549745,1309.78648 C594.54798,1309.76219 594.544929,1309.73802 594.540605,1309.7141 L594.494029,1309.45649 L599.499536,1304.45503 L599.625184,1304.41968 C599.727772,1304.39081 599.821601,1304.33598 599.898958,1304.25791 L606.314839,1297.78269 C606.434824,1297.6616 606.501858,1297.49594 606.499961,1297.3242 C606.498058,1297.152 606.427916,1296.98901 606.304576,1296.87028 L589.543229,1280.67553 C589.297277,1280.43804 588.911456,1280.44209 588.671585,1280.68481 L582.911363,1286.4983 L560.206609,1286.4983 L560.06003,1286.35108 L554.419065,1280.68532 C554.177459,1280.44201 553.786169,1280.43793 553.53866,1280.67638 L536.695374,1296.87097 C536.572344,1296.98944 536.501947,1297.15263 536.50004,1297.32434 C536.498128,1297.49649 536.564847,1297.66099 536.685907,1297.78195 L543.132782,1304.25717 C543.253073,1304.37799 543.412274,1304.44291 543.578374,1304.44291 C543.602263,1304.44291 543.626144,1304.44155 543.649887,1304.43884 L543.894488,1304.41091 L549.51324,1310.21196 L548.810479,1310.91414 C547.075699,1312.6475 547.075699,1315.46698 548.810684,1317.20054 C549.653727,1318.04387 550.780748,1318.4994 551.956185,1318.4994 C552.013973,1318.49915 552.013973,1318.49915 552.07175,1318.49792 L552.677614,1318.48237 L552.57774,1319.08015 C552.331427,1320.55442 552.799294,1322.06409 553.87453,1323.13765 C554.739881,1324.00215 555.882928,1324.48392 557.10444,1324.49922 L557.693918,1324.50661 L557.590408,1325.08698 C557.542637,1325.35482 557.518412,1325.62796 557.518178,1325.90352 C557.518178,1327.13284 557.99648,1328.28648 558.866296,1329.15471 C559.740034,1330.0279 560.906249,1330.4998 562.121131,1330.4998 C562.394319,1330.4998 562.667048,1330.47571 562.935837,1330.42777 L563.518611,1330.32382 L563.523615,1330.91578 C563.53381,1332.12197 564.008088,1333.27766 564.876861,1334.1452 C565.751945,1335.01954 566.912144,1335.49997 568.149062,1335.49997 C569.386373,1335.49997 570.547498,1335.01927 571.421262,1334.1452 L571.97659,1333.59034 L573.513045,1335.12537 C574.406124,1336.01763 575.598296,1336.5 576.83918,1336.5 C578.08047,1336.5 579.273512,1336.01739 580.165315,1335.12537 C580.886167,1334.40519 581.341546,1333.48872 581.488616,1332.49995 L581.585,1331.85195 L582.184612,1332.11588 C582.761198,1332.36968 583.385622,1332.49987 584.016197,1332.49987 C585.211772,1332.49987 586.360366,1332.03509 587.220931,1331.17525 C588.100882,1330.29655 588.566997,1329.11608 588.545585,1327.89401 L588.534511,1327.26191 L589.152163,1327.39676 C589.465724,1327.46522 589.786121,1327.4997 590.107326,1327.4997 C591.280025,1327.4997 592.407075,1327.04365 593.2496,1326.20067 C594.089915,1325.36088 594.551557,1324.24767 594.551557,1323.0608 C594.551557,1322.73702 594.517205,1322.41732 594.449349,1322.10597 L594.317349,1321.5003 L594.937236,1321.4995 C596.156329,1321.49792 597.327542,1321.0232 598.203407,1320.14705 C600.006796,1318.34519 600.006796,1315.41124 598.203407,1313.60937 Z M580.674447,1297.27321 L592.148718,1308.97028 L592.151605,1309.17036 C592.154078,1309.34173 592.221524,1309.50454 592.345058,1309.62797 L597.266019,1314.54478 C598.554542,1315.83221 598.554542,1317.92559 597.266207,1319.21146 C595.979131,1320.49882 593.884861,1320.49882 592.595232,1319.21165 L587.675434,1314.29601 C587.416008,1314.0368 586.997472,1314.0368 586.738046,1314.29601 C586.478853,1314.55498 586.478853,1314.97244 586.738046,1315.23141 L591.657844,1320.14705 C591.802317,1320.29141 591.954982,1320.42517 592.164278,1320.59107 L592.371193,1320.7979 C592.97535,1321.40168 593.309275,1322.20686 593.309275,1323.0608 C593.309275,1323.91474 592.97535,1324.71991 592.371381,1325.3235 C591.12335,1326.57208 589.091302,1326.57208 587.843497,1325.32373 L582.599431,1320.08406 C582.357451,1319.84161 581.96453,1319.84161 581.721023,1320.08496 C581.478595,1320.32662 581.478595,1320.71876 581.721439,1320.96145 L581.974049,1321.21385 L582.08406,1321.37981 C582.115905,1321.45842 582.163353,1321.53026 582.225423,1321.59228 L586.314082,1325.67748 C587.582203,1326.94453 587.582203,1329.00352 586.31427,1330.27038 C585.047481,1331.53745 582.984913,1331.53745 581.718312,1330.27057 L580.97685,1329.52973 L580.898802,1329.42871 C580.697693,1329.08532 580.452201,1328.76718 580.165315,1328.48056 L578.381744,1326.69864 C578.292893,1326.60964 578.184497,1326.54892 578.065752,1326.51957 L577.930736,1326.48619 L577.832349,1326.38788 L577.630106,1326.18581 C577.379124,1325.93568 576.972794,1325.93568 576.722907,1326.18536 C576.472263,1326.43579 576.472263,1326.84035 576.722907,1327.09015 L579.645242,1330.01001 L579.722836,1330.11026 C580.488009,1331.41142 580.285865,1333.08428 579.203633,1334.16551 C577.90026,1335.46907 575.7781,1335.46907 574.474914,1334.1657 L572.94657,1332.63877 L573.279655,1332.28536 C574.090689,1331.42483 574.533989,1330.30731 574.533989,1329.12085 C574.533989,1327.88527 574.053252,1326.72628 573.17825,1325.85201 C572.463208,1325.13757 571.552518,1324.68833 570.570978,1324.54712 L569.933854,1324.45547 L570.180259,1323.86082 C570.887172,1322.15482 570.511443,1320.16906 569.185538,1318.84399 C568.474419,1318.13332 567.568458,1317.6866 566.591856,1317.54643 L565.963944,1317.45631 L566.198253,1316.86682 C566.878792,1315.15468 566.49053,1313.18085 565.167093,1311.85871 C563.847263,1310.54018 561.879717,1310.14979 560.168857,1310.82103 L559.565886,1311.0576 L559.489708,1310.41438 C559.373144,1309.43016 558.934867,1308.51286 558.220569,1307.79915 C556.485579,1306.06559 553.662016,1306.06559 551.928035,1307.79915 L550.424283,1309.30167 L545.037979,1303.7406 L561.323508,1287.6445 C561.324011,1287.644 561.324011,1287.644 561.32452,1287.6435 L561.470737,1287.49837 L570.424504,1287.49837 L556.70785,1301.48137 C556.453782,1301.74037 556.453782,1302.165 556.708172,1302.42433 L557.32597,1303.05529 C560.255098,1306.0402 565.015634,1306.0402 567.943629,1303.05535 L573.615519,1297.27333 C575.505267,1295.34559 578.783544,1295.34559 580.674447,1297.27321 Z M553.753046,1316.69135 L553.651114,1316.77535 C552.395833,1317.55668 550.748561,1317.3794 549.690497,1316.32221 C548.440144,1315.07288 548.440144,1313.0416 549.690497,1311.79227 L552.808053,1308.67728 C553.416255,1308.06958 554.229572,1307.74046 555.073741,1307.74046 C555.918138,1307.74046 556.73248,1308.06971 557.340551,1308.67728 C558.394673,1309.73054 558.575247,1311.3688 557.802514,1312.62219 L557.73028,1312.71352 L553.874427,1316.56559 C553.833105,1316.60685 553.792641,1316.64877 553.753046,1316.69135 Z M563.58773,1318.12078 L563.498543,1318.19154 C563.202943,1318.37547 562.927641,1318.59368 562.676972,1318.84404 L558.866296,1322.65117 C558.852532,1322.66496 558.852532,1322.66496 558.838857,1322.67882 L558.709157,1322.77376 C557.437844,1323.42025 555.822852,1323.19631 554.820217,1322.19465 C553.526083,1320.90317 553.526083,1318.79997 554.820029,1317.50867 L559.531419,1312.8019 C560.160789,1312.17315 561.002372,1311.83264 561.875923,1311.83264 C562.74921,1311.83264 563.590703,1312.17296 564.221783,1312.80209 C565.514247,1314.09466 565.514247,1316.19494 564.221551,1317.48774 L563.58773,1318.12078 Z M564.364582,1319.23241 L564.50087,1319.13574 C564.947311,1318.92062 565.436792,1318.81003 565.93186,1318.81003 C566.798058,1318.81003 567.632559,1319.14779 568.256421,1319.77126 C569.539508,1321.05218 569.539508,1323.13682 568.256609,1324.41891 L567.552029,1325.12305 L567.462527,1325.19405 C567.164359,1325.37937 566.886685,1325.59939 566.633849,1325.85201 L564.876759,1327.60762 C564.643122,1327.84092 564.437327,1328.0955 564.261035,1328.36794 L564.149934,1328.48965 C562.849052,1329.51055 560.973884,1329.40517 559.795225,1328.22725 C559.174803,1327.60722 558.831917,1326.78044 558.831917,1325.90352 C558.831917,1325.17782 559.06685,1324.48339 559.50433,1323.91168 L559.635243,1323.79226 C559.929895,1323.60697 560.204356,1323.38789 560.454578,1323.13761 L564.364582,1319.23241 Z M568.236126,1326.29519 L568.354984,1326.2073 C568.833096,1325.95329 569.366144,1325.82204 569.906049,1325.82204 C570.775991,1325.82204 571.6141,1326.16118 572.240861,1326.78742 C572.864002,1327.41003 573.208393,1328.24026 573.208393,1329.12085 C573.208393,1330.00251 572.8644,1330.83265 572.240861,1331.45429 L570.484068,1333.2096 C569.231078,1334.46291 567.069367,1334.46248 565.814438,1333.20998 C564.781265,1332.17878 564.557308,1330.59696 565.233332,1329.32624 L565.326471,1329.20232 C565.350726,1329.17866 565.350726,1329.17866 565.374809,1329.15471 L568.236126,1326.29519 Z M598.446372,1303.70701 L593.580108,1308.56934 L581.573327,1296.32941 C580.388654,1295.12174 578.817789,1294.45849 577.144472,1294.45849 C575.471053,1294.45849 573.900308,1295.1218 572.716757,1296.32941 L567.044749,1302.11156 C564.689369,1304.51268 560.885693,1304.59564 558.434026,1302.31469 L558.058147,1301.96498 L572.2492,1287.49837 L581.988524,1287.49837 L582.107452,1287.82925 C582.14075,1287.92189 582.194713,1288.00572 582.264828,1288.07356 L598.446372,1303.70701 Z M599.608336,1302.5795 L599.284004,1302.76105 L583.594072,1287.60225 L589.121706,1282.0235 L604.975345,1297.34046 L599.876396,1302.48657 L599.748183,1302.52204 C599.699404,1302.53554 599.652487,1302.55478 599.608336,1302.5795 Z M559.524241,1287.6104 L543.810189,1303.14113 L538.034987,1297.34054 L553.964656,1282.02526 L559.524241,1287.6104 Z" id="Combined-Shape"></path>
        </g>
    </g>
</svg>