<svg xmlns="http://www.w3.org/2000/svg" width="50" height="69" viewBox="0 0 50 69">
    <path fill="#479463" fill-rule="nonzero" d="M46.404 44.365c-.882 0-1.596-.729-1.596-1.628V10.255h-3.114c-.882 0-1.596-.729-1.596-1.627 0-.899.714-1.628 1.596-1.628h4.71C47.285 7 48 7.729 48 8.628v34.11c0 .898-.715 1.627-1.596 1.627zM27.493 67H1.595C.715 67 0 66.271 0 65.372V8.628C0 7.729.714 7 1.595 7h4.708c.88 0 1.595.729 1.595 1.628 0 .898-.715 1.627-1.595 1.627H3.189v53.49h24.304c.88 0 1.595.729 1.595 1.627 0 .899-.715 1.628-1.595 1.628zM13.239 10.679h22.52V6.88h-7.017a1.631 1.631 0 0 1-1.589-1.335c-.242-1.248-1.408-2.224-2.654-2.224-1.26 0-2.44.983-2.745 2.287a1.626 1.626 0 0 1-1.574 1.272h-6.941v3.798zM37.379 14H11.62C10.725 14 10 13.256 10 12.34V5.22c0-.916.725-1.66 1.62-1.66h7.43C20.057 1.437 22.18 0 24.5 0c2.315 0 4.442 1.46 5.401 3.56h7.48c.895 0 1.62.744 1.62 1.66v7.12c0 .916-.725 1.66-1.62 1.66zm-.988 11H23.607C22.72 25 22 24.328 22 23.5s.72-1.5 1.607-1.5h12.784c.889 0 1.609.672 1.609 1.5s-.72 1.5-1.609 1.5zm.988 7H11.62C10.725 32 10 31.328 10 30.5s.725-1.5 1.62-1.5h25.76c.894 0 1.62.672 1.62 1.5s-.726 1.5-1.62 1.5zm0 8H11.62C10.725 40 10 39.328 10 38.5s.725-1.5 1.62-1.5h25.76c.894 0 1.62.672 1.62 1.5s-.726 1.5-1.62 1.5zm-11.945 8H11.566C10.7 48 10 47.328 10 46.5s.701-1.5 1.566-1.5h13.868C26.3 45 27 45.672 27 46.5s-.701 1.5-1.566 1.5zm-.028 7H11.594c-.88 0-1.594-.672-1.594-1.5s.714-1.5 1.594-1.5h13.812c.88 0 1.594.672 1.594 1.5s-.714 1.5-1.594 1.5zm9.243 13c-.298 0-.6-.078-.873-.245a1.595 1.595 0 0 1-.526-2.225l10.698-16.768a1.671 1.671 0 0 1 2.276-.516 1.596 1.596 0 0 1 .526 2.225L36.052 67.24c-.312.491-.85.76-1.403.76zM33.46 51.181c-.555 0-1.173.748-1.173 1.82 0 1.071.618 1.818 1.173 1.818.69 0 1.25-.816 1.25-1.819 0-1.003-.56-1.819-1.25-1.819zm0 6.819C30.959 58 29 55.804 29 53s1.96-5 4.46-5c2.545 0 4.54 2.196 4.54 5s-1.995 5-4.54 5zm12 4.206c-.555 0-1.173.75-1.173 1.755 0 1.08.618 1.833 1.173 1.833.69 0 1.25-.821 1.25-1.833 0-.952-.57-1.755-1.25-1.755zm0 6.794C42.959 69 41 66.787 41 63.961 41 61.225 43.002 59 45.46 59c2.545 0 4.54 2.179 4.54 4.961C50 66.787 48.005 69 45.46 69z"/>
</svg>
