<?xml version="1.0" encoding="UTF-8"?>
<svg width="80px" height="80px" viewBox="0 0 80 80" version="1.1" xmlns="http://www.w3.org/2000/svg" xmlns:xlink="http://www.w3.org/1999/xlink">
    <title>IconsRE/Eurolife/Avatar2</title>
    <g id="IconsRE/Eurolife/Avatar2" stroke="none" stroke-width="1" fill="none" fill-rule="evenodd">
        <path d="M39.872,49.560991 C43.0412152,49.560991 46.1099747,48.2259024 48.2875949,45.8959783 C48.7461266,45.4066619 48.7202025,44.6370416 48.2308861,44.17851 C47.7415696,43.7199783 46.9719494,43.7442821 46.5134177,44.2352188 C44.7910886,46.0758264 42.3704304,47.1306112 39.872,47.1306112 C37.2277468,47.1306112 34.7147342,45.9721302 32.9745823,43.9516745 C32.5387342,43.4445353 31.7723544,43.3845859 31.2603544,43.8220543 C30.7532152,44.2595226 30.6948861,45.0275226 31.1323544,45.5362821 C33.3342785,48.0946619 36.5196962,49.560991 39.872,49.560991 Z M66.4409114,62.476029 C69.824,60.5592695 72,56.9477252 72,52.9651429 C72,47.3477252 67.7435949,42.7056999 62.1877468,42.0997252 L62.1877468,30.8341049 C62.1877468,19.1407378 53.6976203,9.38519352 42.4368608,8.14245935 C36.012557,7.43116821 29.8296709,9.3997758 25.0483038,13.6821049 C20.3349873,17.9061049 17.6307848,23.9561302 17.6307848,30.2815986 L17.6307848,42.1110669 C12.2207595,42.7607885 8,47.3995733 8,52.9651429 C8,56.8861556 10.1338734,60.4750163 13.4472911,62.4112188 C11.0557975,64.4187125 9.52951899,67.4275226 9.52951899,70.7879277 C9.52951899,71.4587125 10.0739241,72.0031176 10.7447089,72.0031176 C11.4154937,72.0031176 11.9598987,71.4587125 11.9598987,70.7879277 C11.9598987,66.0972948 15.7755949,62.2815986 20.4662278,62.2815986 L25.5149367,62.2815986 C26.6345316,62.2815986 27.6698734,61.9510669 28.5626329,61.4066619 L38.9597975,69.8676239 C39.1833924,70.0490923 39.4555949,70.1398264 39.7261772,70.1398264 C39.9983797,70.1398264 40.2705823,70.0490923 40.4941772,69.8676239 L51.0371646,61.2883834 C51.9720506,61.9138011 53.0948861,62.2815986 54.3035949,62.2815986 L59.3523038,62.2815986 C64.0429367,62.2815986 67.8586329,66.0972948 67.8586329,70.7879277 C67.8586329,71.4587125 68.403038,72.0031176 69.0738228,72.0031176 C69.7446076,72.0031176 70.2890127,71.4587125 70.2890127,70.7879277 C70.2890127,67.461548 68.7918987,64.4835226 66.4409114,62.476029 Z M39.7261772,67.3578518 L30.3546329,59.7329404 C31.0124557,58.783472 31.4029367,57.6347125 31.4029367,56.3935986 L31.4029367,55.1881302 C33.9208101,56.6042315 36.819443,57.4208391 39.9092658,57.4208391 C42.9990886,57.4208391 45.8977215,56.6042315 48.4155949,55.1881302 L48.4155949,56.3935986 C48.4155949,57.5520796 48.7623291,58.6246872 49.3423797,59.5352695 L39.7261772,67.3578518 Z M64.0429367,60.9238264 C62.6187342,60.2433201 61.0325063,59.8512188 59.3523038,59.8512188 L54.3035949,59.8512188 C52.396557,59.8512188 50.8459747,58.3006366 50.8459747,56.3935986 L50.8459747,53.5403328 C54.7945316,50.3451935 57.3269873,45.4666112 57.3269873,40.0031176 L57.3269873,31.9018518 C57.3269873,31.2310669 56.7825823,30.6866619 56.1117975,30.6866619 L36.4856709,30.6866619 C33.5837975,30.6866619 31.2198481,28.3243328 31.2198481,25.4208391 C31.2198481,24.7500543 30.6770633,24.2056492 30.0046582,24.2056492 C29.3354937,24.2056492 28.7894684,24.7500543 28.7894684,25.4208391 C28.7894684,29.6642821 32.2422278,33.1170416 36.4856709,33.1170416 L54.8966076,33.1170416 L54.8966076,40.0031176 C54.8966076,48.268029 48.172557,54.9904593 39.9092658,54.9904593 C31.6443544,54.9904593 24.9219241,48.268029 24.9219241,40.0031176 L24.9219241,31.9018518 C24.9219241,31.2310669 24.377519,30.6866619 23.7067342,30.6866619 C23.0359494,30.6866619 22.4915443,31.2310669 22.4915443,31.9018518 L22.4915443,40.0031176 C22.4915443,45.4666112 25.024,50.3451935 28.972557,53.5403328 L28.972557,56.3935986 C28.972557,57.2814973 28.627443,58.0835226 28.076557,58.6959783 C27.8902278,58.77051 27.7152405,58.8742062 27.5791392,59.0410923 C27.5305316,59.0994214 27.5127089,59.1707125 27.4770633,59.2355226 C26.9180759,59.6211429 26.2440506,59.8512188 25.5149367,59.8512188 L20.4662278,59.8512188 C18.8168101,59.8512188 17.2581266,60.2287378 15.8549873,60.8849404 C12.608,59.6195226 10.4303797,56.4616492 10.4303797,52.9651429 C10.4303797,48.3198771 14.2104304,44.5058011 18.8573165,44.4636745 C19.5232405,44.4571935 20.0611646,43.916029 20.0611646,43.2484847 L20.0611646,30.2815986 C20.0611646,24.6463581 22.470481,19.2557758 26.6701772,15.493548 C30.9282025,11.6778518 36.422481,9.91987707 42.1711392,10.5582568 C52.1972658,11.6648897 59.7573671,20.3818518 59.7573671,30.8341049 L59.7573671,43.2484847 C59.7573671,43.9192695 60.3925063,44.4588138 61.0632911,44.4588138 C65.7539241,44.4588138 69.5696203,48.27451 69.5696203,52.9651429 C69.5696203,56.5118771 67.3531139,59.6843328 64.0429367,60.9238264 L64.0429367,60.9238264 Z" id="Fill-39" fill="#EF3340"></path>
    </g>
</svg>