<?xml version="1.0" encoding="UTF-8"?>
<svg width="80px" height="80px" viewBox="0 0 80 80" version="1.1" xmlns="http://www.w3.org/2000/svg" xmlns:xlink="http://www.w3.org/1999/xlink">
    <title>IconsRE/Eurolife/Avatar 1</title>
    <g id="IconsRE/Eurolife/Avatar-1" stroke="none" stroke-width="1" fill="none" fill-rule="evenodd">
        <path d="M57.3868412,53.1505339 L52.990308,53.1505339 C51.3296149,53.1505339 49.9793317,51.8002508 49.9793317,50.1395577 L49.9793317,47.6548674 C52.4470906,45.6583672 54.2643996,42.9013627 55.1010954,39.7464692 L56.1720096,39.7464692 C58.2037837,39.7464692 59.856011,38.0942418 59.856011,36.0624678 L59.856011,28.5900544 C59.856011,27.3498257 58.8485897,26.3424044 57.608361,26.3424044 L55.6231485,26.3424044 L55.6231485,20.3458491 C55.6231485,13.5379952 50.0851533,8 43.2772993,8 L37.6334826,8 C30.8256287,8 25.2876335,13.5379952 25.2876335,20.3458491 L25.2876335,26.3424044 L23.3024209,26.3424044 C22.0621922,26.3424044 21.0547709,27.3498257 21.0547709,28.5900544 L21.0547709,36.0624678 C21.0547709,38.0942418 22.7069983,39.7464692 24.7387723,39.7464692 L25.8096865,39.7464692 C26.6463824,42.9013627 28.4636914,45.6583672 30.9314502,47.6548674 L30.9314502,50.1395577 C30.9314502,51.8002508 29.5811671,53.1505339 27.920474,53.1505339 L23.5239408,53.1505339 C18.2723693,53.1505339 14,57.4229032 14,62.6744747 C14,63.2586097 14.4740806,63.7326903 15.0582156,63.7326903 C15.6423507,63.7326903 16.1164313,63.2586097 16.1164313,62.6744747 C16.1164313,58.5897623 19.4392284,55.2669652 23.5239408,55.2669652 L27.920474,55.2669652 C28.8644023,55.2669652 29.7391939,54.9932401 30.4996982,54.5459676 C33.0126076,56.6497003 36.1294054,57.8729976 39.3971753,58.0507778 L39.3971753,70.9417844 C39.3971753,71.5259194 39.8712559,72 40.455391,72 C41.039526,72 41.5136066,71.5259194 41.5136066,70.9417844 L41.5136066,58.0310245 C44.6924864,57.7601213 47.7105174,56.4930844 50.1359476,54.3964065 C50.9528901,54.9452677 51.9349142,55.2669652 52.990308,55.2669652 L57.3868412,55.2669652 C61.4715536,55.2669652 64.7943507,58.5897623 64.7943507,62.6744747 C64.7943507,63.2586097 65.2684313,63.7326903 65.8525663,63.7326903 C66.4367013,63.7326903 66.9107819,63.2586097 66.9107819,62.6744747 C66.9107819,57.4229032 62.6384127,53.1505339 57.3868412,53.1505339 Z M40.2225835,55.9724423 C37.2539359,55.9724423 34.3925208,54.9523224 32.0856107,53.1082053 C32.6852663,52.2686876 33.0478815,51.2485677 33.0478815,50.1395577 L33.0478815,49.0898078 C35.2405043,50.3229817 37.7647013,51.0341027 40.455391,51.0341027 C43.1460806,51.0341027 45.6702776,50.3229817 47.8629004,49.0898078 L47.8629004,50.1395577 C47.8629004,51.1441571 48.1634337,52.0739759 48.6643224,52.8655212 C46.3094399,54.8662542 43.3224499,55.9724423 40.2225835,55.9724423 Z M40.455391,48.9176714 C33.2581137,48.9176714 27.4040648,43.0636225 27.4040648,35.8663452 C27.4040648,35.2822101 26.9299842,34.8081295 26.3458491,34.8081295 C25.7617141,34.8081295 25.2876335,35.2822101 25.2876335,35.8663452 C25.2876335,36.4631788 25.3313731,37.0501357 25.3990989,37.6300379 L24.7387723,37.6300379 C23.8752683,37.6300379 23.1712022,36.9259718 23.1712022,36.0624678 L23.1712022,28.5900544 C23.1712022,28.5180958 23.2304623,28.4588357 23.3024209,28.4588357 L25.2876335,28.4588357 L25.2876335,30.2225284 C25.2876335,30.8066635 25.7617141,31.2807441 26.3458491,31.2807441 C26.9299842,31.2807441 27.4040648,30.8066635 27.4040648,30.2225284 L27.4040648,20.3458491 C27.4040648,14.7048543 31.9924878,10.1164313 37.6334826,10.1164313 L43.2772993,10.1164313 C48.9182942,10.1164313 53.5067172,14.7048543 53.5067172,20.3458491 L53.5067172,20.6985877 L37.6334826,20.6985877 C35.1050527,20.6985877 33.0478815,18.6414165 33.0478815,16.1129866 C33.0478815,15.5288515 32.5738009,15.0547709 31.9896659,15.0547709 C31.4055308,15.0547709 30.9314502,15.5288515 30.9314502,16.1129866 C30.9314502,19.8082756 33.9381936,22.8150189 37.6334826,22.8150189 L53.5067172,22.8150189 L53.5067172,30.2225284 C53.5067172,30.8066635 53.9807978,31.2807441 54.5649328,31.2807441 C55.1490679,31.2807441 55.6231485,30.8066635 55.6231485,30.2225284 L55.6231485,28.4588357 L57.608361,28.4588357 C57.6803197,28.4588357 57.7395797,28.5180958 57.7395797,28.5900544 L57.7395797,36.0624678 C57.7395797,36.9259718 57.0355136,37.6300379 56.1720096,37.6300379 L55.5116831,37.6300379 C55.5794089,37.0501357 55.6231485,36.4631788 55.6231485,35.8663452 C55.6231485,35.2822101 55.1490679,34.8081295 54.5649328,34.8081295 C53.9807978,34.8081295 53.5067172,35.2822101 53.5067172,35.8663452 C53.5067172,43.0636225 47.6526683,48.9176714 40.455391,48.9176714 Z M46.1316597,39.5517575 C44.6332263,41.1546014 42.5252608,42.0731326 40.3495694,42.0731326 C38.0483031,42.0731326 35.8585022,41.0643004 34.3431374,39.3034296 C33.9607689,38.8618009 33.2919766,38.8095956 32.8503479,39.1919642 C32.4073083,39.5743328 32.3579249,40.2417141 32.7388825,40.6847537 C34.6577802,42.9126504 37.4303052,44.1895639 40.3495694,44.1895639 C43.1093958,44.1895639 45.7803321,43.0269377 47.6780654,40.9979855 C48.0773655,40.5718774 48.0547902,39.9016741 47.6272711,39.5023741 C47.2025739,39.1030741 46.5323707,39.1242384 46.1316597,39.5517575 L46.1316597,39.5517575 Z" id="Fill-102" fill="#EF3340"></path>
    </g>
</svg>