<?xml version="1.0" encoding="UTF-8"?>
<svg width="80px" height="80px" viewBox="0 0 80 80" version="1.1" xmlns="http://www.w3.org/2000/svg" xmlns:xlink="http://www.w3.org/1999/xlink">
    <title>IconsRE/Eurolife/Avatar6</title>
    <g id="IconsRE/Eurolife/Avatar6" stroke="none" stroke-width="1" fill="none" fill-rule="evenodd">
        <path d="M58.3058824,60.7058824 L53.6135529,60.7058824 C51.8411294,60.7058824 50.4,59.2647529 50.4,57.4923294 L50.4,54.8404706 C51.3712941,54.0544 52.2416941,53.1538824 53.0081882,52.1675294 C58.5016471,51.0366118 62.4470588,46.2373647 62.4470588,40.5797647 L62.4470588,28.8790588 C62.4470588,22.3480471 57.1343059,17.0352941 50.6032941,17.0352941 L50.3337412,17.0352941 C49.7690353,11.9604706 45.4576941,8 40.2352941,8 C35.0128941,8 30.7015529,11.9604706 30.1368471,17.0352941 L29.8672941,17.0352941 C23.3362824,17.0352941 18.0235294,22.3480471 18.0235294,28.8790588 L18.0235294,40.5797647 C18.0235294,46.2464 21.9659294,51.0351059 27.4608941,52.1660235 C28.2288941,53.1538824 29.0992941,54.0544 30.0705882,54.8404706 L30.0705882,57.4923294 C30.0705882,59.2647529 28.6294588,60.7058824 26.8570353,60.7058824 L22.1647059,60.7058824 C16.5598118,60.7058824 12,65.2656941 12,70.8705882 C12,71.4940235 12.5059765,72 13.1294118,72 C13.7528471,72 14.2588235,71.4940235 14.2588235,70.8705882 C14.2588235,66.5110588 17.8051765,62.9647059 22.1647059,62.9647059 L22.6164706,62.9647059 C22.5743059,63.0836706 22.5411765,63.2071529 22.5411765,63.3411765 L22.5411765,70.8705882 C22.5411765,71.4940235 23.0471529,72 23.6705882,72 C24.2940235,72 24.8,71.4940235 24.8,70.8705882 L24.8,63.3411765 C24.8,63.2071529 24.7668706,63.0836706 24.7247059,62.9647059 L26.8570353,62.9647059 C27.9277176,62.9647059 28.9200941,62.6439529 29.7633882,62.1108706 C32.6878118,64.6016 36.3651765,65.9764706 40.2352941,65.9764706 C44.1069176,65.9764706 47.7827765,64.6016 50.7072,62.1108706 C51.552,62.6439529 52.5428706,62.9647059 53.6135529,62.9647059 L55.7473882,62.9647059 C55.7037176,63.0836706 55.6705882,63.2071529 55.6705882,63.3411765 L55.6705882,70.8705882 C55.6705882,71.4940235 56.1765647,72 56.8,72 C57.4234353,72 57.9294118,71.4940235 57.9294118,70.8705882 L57.9294118,63.3411765 C57.9294118,63.2071529 57.8962824,63.0836706 57.8526118,62.9647059 L58.3058824,62.9647059 C62.6654118,62.9647059 66.2117647,66.5110588 66.2117647,70.8705882 C66.2117647,71.4940235 66.7177412,72 67.3411765,72 C67.9646118,72 68.4705882,71.4940235 68.4705882,70.8705882 C68.4705882,65.2656941 63.9107765,60.7058824 58.3058824,60.7058824 Z M40.2352941,10.2588235 C44.2078118,10.2588235 47.4725647,13.2133647 48.0267294,17.0352941 L32.4438588,17.0352941 C32.9980235,13.2133647 36.2627765,10.2588235 40.2352941,10.2588235 Z M40.2352941,63.7176471 C36.9810824,63.7176471 33.8849882,62.5912471 31.3972706,60.5432471 C31.9860706,59.6698353 32.3294118,58.6217412 32.3294118,57.4923294 L32.3294118,56.3719529 C34.6695529,57.6880941 37.3635765,58.4470588 40.2352941,58.4470588 C43.1070118,58.4470588 45.8010353,57.6880941 48.1411765,56.3719529 L48.1411765,57.4923294 C48.1411765,58.6217412 48.4845176,59.6698353 49.0733176,60.5432471 C46.5856,62.5912471 43.4895059,63.7176471 40.2352941,63.7176471 Z M40.2352941,56.1882353 C35.6634353,56.1882353 31.6126118,53.9655529 29.0706824,50.5532235 C29.0450824,50.5125647 29.0164706,50.4764235 28.9848471,50.4387765 C27.3072941,48.1377882 26.3058824,45.3172706 26.3058824,42.2588235 L26.3058824,34.7294118 C26.3058824,34.1059765 25.7999059,33.6 25.1764706,33.6 C24.5530353,33.6 24.0470588,34.1059765 24.0470588,34.7294118 L24.0470588,42.2588235 C24.0470588,44.7209412 24.6147765,47.0460235 25.6026353,49.1376941 C22.4146824,47.5595294 20.2823529,44.3158588 20.2823529,40.5797647 L20.2823529,28.8790588 C20.2823529,23.5934118 24.5816471,19.2941176 29.8672941,19.2941176 L50.6032941,19.2941176 C55.8889412,19.2941176 60.1882353,23.5934118 60.1882353,28.8790588 L60.1882353,40.5797647 C60.1882353,44.3098353 58.0559059,47.5535059 54.8694588,49.1346824 C55.8558118,47.0445176 56.4235294,44.7194353 56.4235294,42.2588235 L56.4235294,34.7294118 C56.4235294,34.1059765 55.9175529,33.6 55.2941176,33.6 L37.2235294,33.6 C34.5249882,33.6 32.3294118,31.4044235 32.3294118,28.7058824 C32.3294118,28.0824471 31.8234353,27.5764706 31.2,27.5764706 C30.5765647,27.5764706 30.0705882,28.0824471 30.0705882,28.7058824 C30.0705882,32.6497882 33.2796235,35.8588235 37.2235294,35.8588235 L54.1647059,35.8588235 L54.1647059,42.2588235 C54.1647059,49.9403294 47.9168,56.1882353 40.2352941,56.1882353 Z M46.4079059,46.1921882 C44.8086588,47.9028706 42.5573647,48.8832 40.2352941,48.8832 C37.7792,48.8832 35.4420706,47.8064941 33.8247529,45.9286588 C33.4181647,45.4543059 32.7043765,45.4000941 32.2330353,45.8081882 C31.7601882,46.2162824 31.7059765,46.9285647 32.1125647,47.4014118 C34.1605647,49.7792 37.1211294,51.1420235 40.2352941,51.1420235 C43.1808,51.1420235 46.0329412,49.9011765 48.0568471,47.7357176 C48.4830118,47.2809412 48.4589176,46.5656471 48.0041412,46.1394824 C47.5493647,45.7133176 46.8340706,45.7359059 46.4079059,46.1921882 L46.4079059,46.1921882 Z" id="Fill-53" fill="#fff"></path>
    </g>
</svg>