<?xml version="1.0" encoding="UTF-8"?>
<svg width="80px" height="80px" viewBox="0 0 80 80" version="1.1" xmlns="http://www.w3.org/2000/svg" xmlns:xlink="http://www.w3.org/1999/xlink">
    <title>IconsRE/Eurolife/Avatar7</title>
    <g id="IconsRE/Eurolife/Avatar7" stroke="none" stroke-width="1" fill="none" fill-rule="evenodd">
        <path d="M59.8227848,59.8481013 L54.7740759,59.8481013 C52.867038,59.8481013 51.3164557,58.297519 51.3164557,56.390481 L51.3164557,53.5663797 C54.1518987,51.2850633 56.2501266,48.1271899 57.2093165,44.4556962 L58.4277468,44.4556962 C60.7609114,44.4556962 62.6582278,42.5583797 62.6582278,40.2268354 L62.6582278,31.6443544 C62.6582278,30.2217722 61.5013671,29.0632911 60.0771646,29.0632911 L57.7974684,29.0632911 L57.7974684,18.9367089 C57.7974684,12.9061266 52.8913418,8 46.8607595,8 L33.8987342,8 C27.8681519,8 22.9620253,12.9061266 22.9620253,18.9367089 L22.9620253,29.0632911 L20.6823291,29.0632911 C19.2581266,29.0632911 18.1012658,30.2217722 18.1012658,31.6443544 L18.1012658,40.2268354 C18.1012658,42.5583797 19.9985823,44.4556962 22.3317468,44.4556962 L23.5501772,44.4556962 C24.5093671,48.1271899 26.6075949,51.2850633 29.443038,53.5663797 L29.443038,56.390481 C29.443038,58.297519 27.8924557,59.8481013 25.9854177,59.8481013 L20.9367089,59.8481013 C14.9061266,59.8481013 10,64.7542278 10,70.7848101 C10,71.4555949 10.5444051,72 11.2151899,72 C11.8859747,72 12.4303797,71.4555949 12.4303797,70.7848101 C12.4303797,66.0941772 16.2460759,62.278481 20.9367089,62.278481 L25.9854177,62.278481 C27.0693671,62.278481 28.0739241,61.9641519 28.9472405,61.4505316 C31.8329114,63.8663291 35.4120506,65.2710886 39.164557,65.4752405 L39.164557,70.7848101 C39.164557,71.4555949 39.708962,72 40.3797468,72 C41.0505316,72 41.5949367,71.4555949 41.5949367,70.7848101 L41.5949367,65.452557 C45.2453671,65.1414684 48.7110886,63.6881013 51.4963038,61.2787848 C52.4344304,61.9090633 53.5621266,62.278481 54.7740759,62.278481 L59.8227848,62.278481 C64.5134177,62.278481 68.3291139,66.0941772 68.3291139,70.7848101 C68.3291139,71.4555949 68.873519,72 69.5443038,72 C70.2150886,72 70.7594937,71.4555949 70.7594937,70.7848101 C70.7594937,64.7542278 65.8533671,59.8481013 59.8227848,59.8481013 Z M40.1124051,63.0886076 C36.7033924,63.0886076 33.417519,61.9171646 30.7684051,59.7994937 C31.4570127,58.835443 31.8734177,57.664 31.8734177,56.390481 L31.8734177,55.7148354 C32.0014177,55.7618228 32.1342785,55.7974684 32.278481,55.7974684 C32.4583291,55.7974684 32.6252152,55.7537215 32.7791392,55.6824304 C35.0798987,56.7923038 37.6561013,57.4177215 40.3797468,57.4177215 C43.1017722,57.4177215 45.6795949,56.7923038 47.9803544,55.6824304 C48.1342785,55.7537215 48.3011646,55.7974684 48.4810127,55.7974684 C48.6252152,55.7974684 48.7580759,55.7618228 48.8860759,55.7148354 L48.8860759,56.390481 C48.8860759,57.5441013 49.2311899,58.6118481 49.8063797,59.5208101 C47.1021772,61.8199494 43.6721013,63.0886076 40.1124051,63.0886076 Z M33.4936709,53.3233418 L33.4936709,46.4810127 C33.4936709,44.4718987 35.1285063,42.835443 37.1392405,42.835443 L43.6202532,42.835443 C45.6309873,42.835443 47.2658228,44.4718987 47.2658228,46.4810127 L47.2658228,53.3233418 C45.2,54.3862278 42.8603544,54.9873418 40.3797468,54.9873418 C37.8991392,54.9873418 35.5594937,54.3862278 33.4936709,53.3233418 Z M49.6962025,51.7516962 L49.6962025,46.4810127 C49.6962025,43.1319494 46.9709367,40.4050633 43.6202532,40.4050633 L37.1392405,40.4050633 C33.788557,40.4050633 31.0632911,43.1319494 31.0632911,46.4810127 L31.0632911,51.7516962 C27.9848101,49.3148354 25.8801013,45.6903291 25.4653165,41.4922532 C25.3988861,40.8230886 24.7945316,40.3272911 24.1367089,40.4018228 C23.4691646,40.4666329 22.9814684,41.0612658 23.0462785,41.7288101 C23.056,41.8292658 23.0786835,41.926481 23.0900253,42.0253165 L22.3317468,42.0253165 C21.3401519,42.0253165 20.5316456,41.2184304 20.5316456,40.2268354 L20.5316456,31.6443544 C20.5316456,31.5617215 20.5996962,31.4936709 20.6823291,31.4936709 L22.9620253,31.4936709 L22.9620253,33.5189873 C22.9620253,34.1897722 23.5064304,34.7341772 24.1772152,34.7341772 C24.848,34.7341772 25.3924051,34.1897722 25.3924051,33.5189873 L25.3924051,18.9367089 C25.3924051,14.2476962 29.2081013,10.4303797 33.8987342,10.4303797 L46.8607595,10.4303797 C51.5513924,10.4303797 55.3670886,14.2476962 55.3670886,18.9367089 L55.3670886,33.5189873 C55.3670886,34.1897722 55.9114937,34.7341772 56.5822785,34.7341772 C57.2530633,34.7341772 57.7974684,34.1897722 57.7974684,33.5189873 L57.7974684,31.4936709 L60.0771646,31.4936709 C60.1597975,31.4936709 60.2278481,31.5617215 60.2278481,31.6443544 L60.2278481,40.2268354 C60.2278481,41.2184304 59.4193418,42.0253165 58.4277468,42.0253165 L57.6694684,42.0253165 C57.6808101,41.926481 57.7034937,41.8292658 57.7132152,41.7288101 C57.7780253,41.0612658 57.2903291,40.4666329 56.6227848,40.4018228 C55.9633418,40.3256709 55.3606076,40.8230886 55.2941772,41.4922532 C54.8793924,45.6903291 52.7746835,49.3148354 49.6962025,51.7516962 Z M49.1420759,14.9622278 C48.6122532,14.7353924 47.9997975,14.9201013 47.6725063,15.3915949 C46.2888101,17.3942278 43.3221266,18.6871899 40.1140253,18.6871899 C36.9691139,18.6871899 34.1142278,17.4882025 32.6673418,15.5633418 C32.3060253,15.0837468 31.6546835,14.9379241 31.126481,15.2182278 C29.0882025,16.2989367 27.8227848,18.3858228 27.8227848,20.665519 L27.8227848,33.5189873 C27.8227848,34.1897722 28.3671899,34.7341772 29.0379747,34.7341772 C29.7087595,34.7341772 30.2531646,34.1897722 30.2531646,33.5189873 L30.2531646,20.665519 C30.2531646,19.6026329 30.7133165,18.6061772 31.4926582,17.9046076 C33.5050127,19.9088608 36.6952911,21.1175696 40.1140253,21.1175696 C43.7012658,21.1175696 46.9887595,19.8067848 48.9768101,17.6405063 C49.9262785,18.3388354 50.5063291,19.4519494 50.5063291,20.665519 L50.5063291,33.5189873 C50.5063291,34.1897722 51.0507342,34.7341772 51.721519,34.7341772 C52.3923038,34.7341772 52.9367089,34.1897722 52.9367089,33.5189873 L52.9367089,20.665519 C52.9367089,18.1670886 51.4476962,15.929519 49.1420759,14.9622278 L49.1420759,14.9622278 Z" id="Fill-135" fill="#EF3340"></path>
    </g>
</svg>