<?xml version="1.0" encoding="UTF-8"?>
<svg width="80px" height="80px" viewBox="0 0 80 80" version="1.1" xmlns="http://www.w3.org/2000/svg" xmlns:xlink="http://www.w3.org/1999/xlink">
    <title>IconsRE/Eurolife/Avatar3</title>
    <g id="IconsRE/Eurolife/Avatar3" stroke="none" stroke-width="1" fill="none" fill-rule="evenodd">
        <path d="M59.8227848,59.8481013 L54.7740759,59.8481013 C52.867038,59.8481013 51.3164557,58.297519 51.3164557,56.390481 L51.3164557,53.5663797 C54.1518987,51.2850633 56.2501266,48.1271899 57.2093165,44.4556962 L58.4277468,44.4556962 C60.7609114,44.4556962 62.6582278,42.5583797 62.6582278,40.2268354 L62.6582278,31.6443544 C62.6582278,30.2217722 61.5013671,29.0632911 60.0771646,29.0632911 L57.7974684,29.0632911 L57.7974684,18.9367089 C57.7974684,12.9061266 52.8913418,8 46.8607595,8 L33.8987342,8 C27.8681519,8 22.9620253,12.9061266 22.9620253,18.9367089 L22.9620253,29.0632911 L20.6823291,29.0632911 C19.2581266,29.0632911 18.1012658,30.2217722 18.1012658,31.6443544 L18.1012658,40.2268354 C18.1012658,42.5583797 19.9985823,44.4556962 22.3317468,44.4556962 L23.5501772,44.4556962 C24.5093671,48.1271899 26.6075949,51.2850633 29.443038,53.5663797 L29.443038,56.390481 C29.443038,58.297519 27.8924557,59.8481013 25.9854177,59.8481013 L20.9367089,59.8481013 C14.9061266,59.8481013 10,64.7542278 10,70.7848101 C10,71.4555949 10.5444051,72 11.2151899,72 C11.8859747,72 12.4303797,71.4555949 12.4303797,70.7848101 C12.4303797,66.0941772 16.2460759,62.278481 20.9367089,62.278481 L25.9854177,62.278481 C27.0693671,62.278481 28.0739241,61.9641519 28.9472405,61.4505316 C30.9871392,63.1582785 33.3737722,64.3621266 35.9240506,64.9940253 L35.9240506,70.7848101 C35.9240506,71.4555949 36.4684557,72 37.1392405,72 C37.8100253,72 38.3544304,71.4555949 38.3544304,70.7848101 L38.3544304,65.4233924 C38.9361013,65.4817215 39.5226329,65.5189873 40.1124051,65.5189873 C40.8852658,65.5189873 41.6484051,65.4509367 42.4050633,65.350481 L42.4050633,70.7848101 C42.4050633,71.4555949 42.9494684,72 43.6202532,72 C44.291038,72 44.835443,71.4555949 44.835443,70.7848101 L44.835443,64.8644051 C47.2755443,64.1774177 49.552,62.9606076 51.4963038,61.2787848 C52.4344304,61.9090633 53.5621266,62.278481 54.7740759,62.278481 L59.8227848,62.278481 C64.5134177,62.278481 68.3291139,66.0941772 68.3291139,70.7848101 C68.3291139,71.4555949 68.873519,72 69.5443038,72 C70.2150886,72 70.7594937,71.4555949 70.7594937,70.7848101 C70.7594937,64.7542278 65.8533671,59.8481013 59.8227848,59.8481013 Z M25.3924051,18.9367089 C25.3924051,14.2476962 29.2081013,10.4303797 33.8987342,10.4303797 L46.8607595,10.4303797 C51.5513924,10.4303797 55.3670886,14.2476962 55.3670886,18.9367089 L55.3670886,24.2025316 L37.1392405,24.2025316 C34.2357468,24.2025316 31.8734177,21.8402025 31.8734177,18.9367089 C31.8734177,18.2659241 31.3290127,17.721519 30.6582278,17.721519 C29.987443,17.721519 29.443038,18.2659241 29.443038,18.9367089 C29.443038,23.1801519 32.8957975,26.6329114 37.1392405,26.6329114 L55.3670886,26.6329114 L55.3670886,29.107038 C55.2228861,29.0859747 55.0786835,29.0632911 54.928,29.0632911 L45.2745316,29.0632911 C43.6915443,29.0632911 42.4050633,30.3497722 42.4050633,31.9327595 L42.4050633,32.3037975 L38.3544304,32.3037975 L38.3544304,31.9327595 C38.3544304,30.3497722 37.0679494,29.0632911 35.484962,29.0632911 L25.8314937,29.0632911 C25.6808101,29.0632911 25.5366076,29.0859747 25.3924051,29.107038 L25.3924051,18.9367089 Z M55.3670886,31.9327595 L55.3670886,36.7254684 C55.3670886,36.9685063 55.1694177,37.164557 54.928,37.164557 L46.4070886,37.164557 C45.5402532,37.164557 44.835443,36.4597468 44.835443,35.5929114 L44.835443,31.9327595 C44.835443,31.6897215 45.0331139,31.4936709 45.2745316,31.4936709 L54.928,31.4936709 C55.1694177,31.4936709 55.3670886,31.6897215 55.3670886,31.9327595 Z M25.3924051,31.9327595 C25.3924051,31.6897215 25.5900759,31.4936709 25.8314937,31.4936709 L35.484962,31.4936709 C35.7263797,31.4936709 35.9240506,31.6897215 35.9240506,31.9327595 L35.9240506,35.5929114 C35.9240506,36.4597468 35.2192405,37.164557 34.3524051,37.164557 L25.8314937,37.164557 C25.5900759,37.164557 25.3924051,36.9685063 25.3924051,36.7254684 L25.3924051,31.9327595 Z M25.4653165,41.4922532 C25.3988861,40.8230886 24.7993924,40.3272911 24.1367089,40.4018228 C23.4691646,40.4666329 22.9814684,41.0612658 23.0462785,41.7288101 C23.056,41.8292658 23.0786835,41.926481 23.0900253,42.0253165 L22.3317468,42.0253165 C21.3401519,42.0253165 20.5316456,41.2184304 20.5316456,40.2268354 L20.5316456,31.6443544 C20.5316456,31.5617215 20.5996962,31.4936709 20.6823291,31.4936709 L22.9620253,31.4936709 L22.9620253,36.7254684 C22.9620253,38.3084557 24.2485063,39.5949367 25.8314937,39.5949367 L34.3524051,39.5949367 C36.5591899,39.5949367 38.3544304,37.8013165 38.3544304,35.5929114 L38.3544304,34.7341772 L42.4050633,34.7341772 L42.4050633,35.5929114 C42.4050633,37.8013165 44.2003038,39.5949367 46.4070886,39.5949367 L54.928,39.5949367 C56.5109873,39.5949367 57.7974684,38.3084557 57.7974684,36.7254684 L57.7974684,31.4936709 L60.0771646,31.4936709 C60.1597975,31.4936709 60.2278481,31.5617215 60.2278481,31.6443544 L60.2278481,40.2268354 C60.2278481,41.2184304 59.4193418,42.0253165 58.4277468,42.0253165 L57.6694684,42.0253165 C57.6808101,41.926481 57.7034937,41.8292658 57.7132152,41.7288101 C57.7780253,41.0612658 57.2903291,40.4666329 56.6227848,40.4018228 C55.9698228,40.3256709 55.3606076,40.8230886 55.2941772,41.4922532 C54.5342785,49.1852152 48.1229367,54.9873418 40.3797468,54.9873418 C32.636557,54.9873418 26.2252152,49.1852152 25.4653165,41.4922532 Z M40.1124051,63.0886076 C36.7033924,63.0886076 33.4191392,61.9171646 30.7684051,59.7994937 C31.4570127,58.835443 31.8734177,57.664 31.8734177,56.390481 L31.8734177,55.2028354 C34.3945316,56.6075949 37.2915443,57.4177215 40.3797468,57.4177215 C43.4679494,57.4177215 46.364962,56.6075949 48.8860759,55.2028354 L48.8860759,56.390481 C48.8860759,57.5441013 49.2311899,58.6118481 49.8063797,59.5208101 C47.1021772,61.8199494 43.6721013,63.0886076 40.1124051,63.0886076 Z M48.6154937,44.1753924 C48.1277975,43.718481 47.3581772,43.7444051 46.8980253,44.2321013 C45.1773165,46.0727089 42.7566582,47.1274937 40.2582278,47.1274937 C37.6155949,47.1274937 35.100962,45.9690127 33.3608101,43.948557 C32.9201013,43.436557 32.1553418,43.3814684 31.6465823,43.8189367 C31.1378228,44.2580253 31.0811139,45.0260253 31.5185823,45.5331646 C33.7221266,48.0915443 36.9059241,49.5578734 40.2582278,49.5578734 C43.427443,49.5578734 46.4945823,48.2227848 48.6738228,45.894481 C49.1323544,45.4035443 49.1064304,44.6339241 48.6154937,44.1753924 L48.6154937,44.1753924 Z" id="Fill-126" fill="#EF3340"></path>
    </g>
</svg>