<?xml version="1.0" encoding="UTF-8"?>
<svg width="20px" height="20px" viewBox="0 0 20 20" version="1.1" xmlns="http://www.w3.org/2000/svg" xmlns:xlink="http://www.w3.org/1999/xlink">
    <title>IconsRE/Actions/Info_Oval</title>
    <g id="Health-calculator" stroke="none" stroke-width="1" fill="none" fill-rule="evenodd">
        <g id="1.4-Calculator_Tool-1440" transform="translate(-988.000000, -333.000000)" fill="#0046FE">
            <g id="Content" transform="translate(406.000000, 331.000000)">
                <g id="IconsRE/Actions/Info_Oval" transform="translate(580.000000, 0.000000)">
                    <path d="M12,2 C6.5,2 2,6.5 2,12 C2,17.5 6.5,22 12,22 C17.5,22 22,17.5 22,12 C22,6.5 17.5,2 12,2 Z M14,16 C14,17.1 13.1,18 12,18 C10.9,18 10,17.1 10,16 L10,13 C10,11.9 10.9,11 12,11 C13.1,11 14,11.9 14,13 L14,16 Z M12,10 C10.9,10 10,9.1 10,8 C10,6.9 10.9,6 12,6 C13.1,6 14,6.9 14,8 C14,9.1 13.1,10 12,10 Z" id="Icon"></path>
                </g>
            </g>
        </g>
    </g>
</svg>