<?xml version="1.0" encoding="UTF-8"?>
<svg width="80px" height="80px" viewBox="0 0 80 80" version="1.1" xmlns="http://www.w3.org/2000/svg" xmlns:xlink="http://www.w3.org/1999/xlink">
    <title>IconsRE/Eurolife/Avatar</title>
    <g id="IconsRE/Eurolife/Avatar" stroke="none" stroke-width="1" fill="none" fill-rule="evenodd">
        <path d="M72.2,40 C72.2,22.2 57.8,7.8 40,7.8 C22.2,7.8 7.8,22.2 7.8,40 C7.8,49.4 11.9,57.9 18.3,63.8 L18.3,63.8 L18.9,64.3 C18.9,64.3 19,64.3 19,64.4 C19.3,64.7 19.6,64.9 20,65.2 C20.1,65.3 20.1,65.3 20.2,65.4 C20.5,65.6 20.8,65.9 21.2,66.1 C21.3,66.2 21.4,66.2 21.4,66.3 C21.7,66.5 22.1,66.8 22.4,67 C22.5,67 22.5,67.1 22.6,67.1 C23,67.3 23.3,67.6 23.7,67.8 C23.7,67.8 23.7,67.8 23.7,67.8 C26.1,69.2 28.7,70.4 31.5,71.1 C31.6,71.1 31.6,71.1 31.7,71.1 C32.1,71.2 32.5,71.3 32.9,71.4 C33,71.4 33.1,71.4 33.2,71.5 C33.6,71.6 33.9,71.7 34.3,71.7 C34.5,71.7 34.6,71.8 34.8,71.8 C35.1,71.9 35.4,71.9 35.8,72 C36,72 36.2,72.1 36.4,72.1 C36.7,72.1 37,72.2 37.2,72.2 C37.5,72.2 37.8,72.2 38.1,72.3 C38.3,72.3 38.5,72.3 38.8,72.3 C39.3,72.3 39.8,72.3 40.3,72.3 C40.8,72.3 41.3,72.3 41.8,72.3 C42,72.3 42.2,72.3 42.5,72.3 C42.8,72.3 43.1,72.3 43.4,72.2 C43.7,72.2 44,72.1 44.2,72.1 C44.4,72.1 44.6,72 44.8,72 C45.1,72 45.4,71.9 45.8,71.8 C46,71.8 46.1,71.7 46.3,71.7 C46.7,71.6 47,71.6 47.4,71.5 C47.5,71.5 47.6,71.5 47.7,71.4 C48.1,71.3 48.5,71.2 48.9,71.1 C49,71.1 49,71.1 49.1,71.1 C51.9,70.3 54.5,69.2 56.9,67.8 C56.9,67.8 56.9,67.8 56.9,67.8 C57.3,67.6 57.6,67.4 58,67.1 C58.1,67.1 58.1,67 58.2,67 C58.5,66.8 58.9,66.6 59.2,66.3 C59.3,66.2 59.4,66.2 59.4,66.1 C59.7,65.9 60,65.6 60.4,65.4 C60.5,65.3 60.5,65.3 60.6,65.2 C60.9,64.9 61.2,64.7 61.6,64.4 C61.6,64.4 61.7,64.4 61.7,64.3 L62.3,63.8 L62.3,63.8 C68.1,57.9 72.2,49.4 72.2,40 Z M10.2,40 C10.2,23.6 23.6,10.2 40,10.2 C56.4,10.2 69.8,23.6 69.8,40 C69.8,48.3 66.3,55.9 60.8,61.3 C57.7,53.5 51.6,47.9 44.6,46.1 C49.2,44.3 52.5,39.8 52.5,34.5 C52.5,27.6 46.9,22 40,22 C33.1,22 27.5,27.6 27.5,34.5 C27.5,39.7 30.7,44.2 35.3,46.1 C28.2,47.8 22.2,53.5 19.1,61.3 C13.6,55.9 10.2,48.3 10.2,40 Z M54.6,65.9 C53.9,66.3 53.1,66.7 52.4,67 C52.4,67 52.4,67 52.4,67 C50.1,68 47.7,68.8 45.3,69.2 C45.2,69.2 45.2,69.2 45.1,69.2 C44.3,69.3 43.6,69.4 42.8,69.5 C42.7,69.5 42.6,69.5 42.5,69.5 C41.7,69.6 40.9,69.6 40.1,69.6 C39.3,69.6 38.5,69.6 37.7,69.5 C37.6,69.5 37.5,69.5 37.4,69.5 C36.6,69.4 35.8,69.3 35.1,69.2 C35,69.2 35,69.2 34.9,69.2 C32.4,68.8 30,68 27.8,67 C27.8,67 27.8,67 27.7,67 C26.9,66.7 26.2,66.3 25.5,65.9 C25.5,65.9 25.4,65.9 25.4,65.9 C23.9,65.1 22.5,64.1 21.2,63 C24.4,53.9 31.9,47.9 40.1,47.9 C48.2,47.9 55.7,53.9 59,63 C57.6,64.1 56.2,65.1 54.6,65.9 C54.7,65.9 54.7,65.9 54.6,65.9 Z M29.9,34.5 C29.9,28.9 34.4,24.4 40,24.4 C45.6,24.4 50.1,28.9 50.1,34.5 C50.1,40.1 45.6,44.6 40,44.6 C34.4,44.6 29.9,40.1 29.9,34.5 Z" id="icon" fill="#fff
"></path>
    </g>
</svg>