<?xml version="1.0" encoding="UTF-8"?>
<svg width="84px" height="84px" viewBox="0 0 84 84" version="1.1" xmlns="http://www.w3.org/2000/svg" xmlns:xlink="http://www.w3.org/1999/xlink">
    <!-- Generator: Sketch 60.1 (88133) - https://sketch.com -->
    <title>Artboard</title>
    <desc>Created with Sketch.</desc>
    <g id="Artboard" stroke="none" stroke-width="1" fill="none" fill-rule="evenodd">
        <path d="M48.9880237,8 L49.3978582,8.00535412 C52.6718498,8.09091439 55.9012891,9.19939422 58.5334407,11.1482148 C58.9697921,11.4713066 59.0611031,12.086084 58.737185,12.5213223 C58.4132669,12.9564297 57.796786,13.0475078 57.360697,12.724416 C56.1398051,11.8205703 54.7727631,11.1228281 53.3308092,10.654875 C55.0968124,12.3637676 56.1956938,14.7546992 56.1956938,17.3970117 L56.1956938,17.3970117 L56.1956938,22.5187168 C56.1956938,24.8552109 58.1014186,26.7559434 60.4437573,26.7559434 L60.4437573,26.7559434 L65.5786926,26.7559434 C68.2376025,26.7559434 70.6429143,27.8603965 72.3574894,29.6334102 C71.6838079,27.5467266 70.5184111,25.635918 68.9200739,24.0424434 L68.9200739,24.0424434 L60.4735383,15.6175859 C60.089271,15.2344297 60.089271,14.6129785 60.4735383,14.2296914 C60.8578057,13.8464043 61.4807151,13.8464043 61.8651137,14.2296914 L61.8651137,14.2296914 L70.3113869,22.654418 C73.3334419,25.6675859 74.9984257,29.6759395 75,33.9416934 L75,33.9416934 L75,68.7998828 C75,72.2187148 72.2121263,75 68.7853376,75 L68.7853376,75 L13.0644677,75 C11.2361474,75 9.59923914,74.0571582 8.68521017,72.478209 C7.77144358,70.8991289 7.77157477,69.013707 8.68573494,67.4348887 L8.68573494,67.4348887 L19.5915031,48.5932324 L19.5915031,14.2001172 C19.5915031,10.7812852 22.3793768,8 25.8061655,8 L25.8061655,8 L48.9880237,8 Z M46.7746488,9.96289062 L25.8061655,9.96289062 C23.4644828,9.96289062 21.5594139,11.8637539 21.5594139,14.2001172 L21.5594139,14.2001172 L21.5594139,45.193375 L22.9124182,42.8557031 C23.82566,41.2772773 25.4619123,40.3345664 27.2895766,40.3343047 C27.289839,40.3343047 27.2903638,40.3343047 27.290495,40.3343047 L27.5278089,40.3396242 C29.2595154,40.4174598 30.7950761,41.3453982 31.6694901,42.8555723 L31.6694901,42.8555723 L43.150413,62.6900586 C43.4221159,63.1594512 43.2608784,63.7597031 42.7902853,64.0307129 C42.3200858,64.3018535 41.7180363,64.1408965 41.4462022,63.6715039 L41.4462022,63.6715039 L29.9654106,43.8371484 C29.4070487,42.8728457 28.4070876,42.2971953 27.290495,42.2971953 L27.290495,42.2971953 C26.1737712,42.297457 25.1744661,42.8731074 24.6167602,43.8370176 L24.6167602,43.8370176 L10.3899457,68.4164648 C9.83158382,69.3808984 9.83145262,70.5323301 10.3895521,71.4967637 C10.9477828,72.4613281 11.9477439,73.0371094 13.0644677,73.0371094 L13.0644677,73.0371094 L41.5178342,73.0371094 C42.634558,73.0371094 43.6345191,72.4613281 44.1927498,71.4967637 C44.7508493,70.5323301 44.7507181,69.3808984 44.1923562,68.4165957 L44.1923562,68.4165957 L43.6463265,67.4728379 C43.3747548,67.0033145 43.5361235,66.4030625 44.0068478,66.1321836 C44.4774409,65.8613047 45.079228,66.0223926 45.3507997,66.4917852 L45.3507997,66.4917852 L45.896567,67.4352813 C46.8105959,69.013707 46.8108583,70.898998 45.8969605,72.4780781 C45.7832153,72.674498 45.6583186,72.8609727 45.5233199,73.0371094 L45.5233199,73.0371094 L68.7853376,73.0371094 C71.1268891,73.0371094 73.0322204,71.136377 73.0322204,68.7998828 L73.0322204,68.7998828 L73.0322204,36.1530859 C73.0322204,32.053916 69.6884775,28.7189648 65.5788238,28.7189648 L65.5788238,28.7189648 L60.4438885,28.7189648 C57.0164438,28.7189648 54.2279142,25.9375488 54.2279142,22.5188477 L54.2279142,22.5188477 L54.2279142,17.3970117 C54.2279142,13.2978418 50.8843025,9.96289062 46.7746488,9.96289062 L46.7746488,9.96289062 Z M26.3493088,67.6337949 C26.6123529,66.7837324 27.8607955,66.6984121 28.1990138,67.5436328 C28.3792744,67.9682715 28.2222352,68.4809785 27.8369182,68.7344531 C27.4858429,68.9654199 27.0194481,68.9510254 26.6864776,68.693625 C26.3701687,68.4490488 26.231103,68.0157734 26.3493088,67.6337949 Z M27.2908886,49.559498 C27.8344255,49.559498 28.274844,49.9989238 28.274844,50.5409434 L28.274844,50.5409434 L28.274844,62.4038691 C28.274844,62.9458887 27.8344255,63.3853145 27.2908886,63.3853145 C26.7474828,63.3853145 26.3069332,62.9458887 26.3069332,62.4038691 L26.3069332,62.4038691 L26.3069332,50.5409434 C26.3069332,49.9989238 26.7473516,49.559498 27.2908886,49.559498 Z M43.2061705,53.1706934 C43.7497075,53.1706934 44.1901259,53.6101191 44.1901259,54.1521387 C44.1901259,54.6941582 43.7497075,55.133584 43.2061705,55.133584 L43.2061705,55.133584 L40.8532051,55.133584 C40.3096682,55.133584 39.8692497,54.6941582 39.8692497,54.1521387 C39.8692497,53.6101191 40.3096682,53.1706934 40.8532051,53.1706934 L40.8532051,53.1706934 Z M65.8393752,47.9500586 C66.3827809,47.9500586 66.8231994,48.3894844 66.8231994,48.9315039 C66.8231994,49.4735234 66.3827809,49.9129492 65.839244,49.9129492 L65.839244,49.9129492 L37.8866452,49.9129492 C37.3431082,49.9129492 36.9026898,49.4735234 36.9026898,48.9315039 C36.9026898,48.3894844 37.3431082,47.9500586 37.8866452,47.9500586 L37.8866452,47.9500586 Z M65.8393752,42.7294238 C66.3827809,42.7294238 66.8233306,43.1688496 66.8233306,43.7108691 C66.8233306,44.2528887 66.3829121,44.6923145 65.8393752,44.6923145 L65.8393752,44.6923145 L35.0945733,44.6923145 C34.5510363,44.6923145 34.1106179,44.2528887 34.1106179,43.7108691 C34.1106179,43.1688496 34.5510363,42.7294238 35.0945733,42.7294238 L35.0945733,42.7294238 Z M65.8393752,37.5087891 C66.3827809,37.5087891 66.8231994,37.9482148 66.8231994,38.4902344 C66.8231994,39.0322539 66.3827809,39.4716797 65.839244,39.4716797 L65.839244,39.4716797 L30.0641997,39.4716797 C29.5206627,39.4716797 29.0802443,39.0322539 29.0802443,38.4902344 C29.0802443,37.9482148 29.5206627,37.5087891 30.0641997,37.5087891 L30.0641997,37.5087891 Z M42.5502002,23.0286758 C43.0937372,23.0286758 43.5341556,23.4681016 43.5341556,24.0101211 C43.5341556,24.5521406 43.0937372,24.9915664 42.5502002,24.9915664 L42.5502002,24.9915664 L29.4082294,24.9915664 C28.8646924,24.9915664 28.424274,24.5521406 28.424274,24.0101211 C28.424274,23.4681016 28.8646924,23.0286758 29.4082294,23.0286758 L29.4082294,23.0286758 Z" id="Combined-Shape" fill="#ef3340" fill-rule="nonzero"></path>
    </g>
</svg>