<?xml version="1.0" encoding="utf-8"?>
<!-- Generator: Adobe Illustrator 15.1.0, SVG Export Plug-In . SVG Version: 6.00 Build 0)  -->
<!DOCTYPE svg PUBLIC "-//W3C//DTD SVG 1.1//EN" "http://www.w3.org/Graphics/SVG/1.1/DTD/svg11.dtd">
<svg version="1.1" id="Layer_1" xmlns="http://www.w3.org/2000/svg" xmlns:xlink="http://www.w3.org/1999/xlink" x="0px" y="0px"
	 width="24.333px" height="15.375px" viewBox="5.667 3.625 24.333 15.375" enable-background="new 5.667 3.625 24.333 15.375"
	 xml:space="preserve">
<title>Path Copy</title>
<desc>Created with Sketch.</desc>
<g id="About-us">
	<g id="T6---About-Us---1440" transform="translate(-1304.000000, -2494.000000)">
		<g id="Group-20" transform="translate(-242.000000, 1908.000000)">
			<g id="Group-9" transform="translate(1501.000000, 586.000000)">
				<path id="Path-Copy" fill="#383B38" d="M75,11.396c0-0.186-0.112-0.432-0.226-0.551l-6.403-6.804
					c-0.299-0.309-0.783-0.345-1.132-0.031c-0.312,0.281-0.319,0.828-0.031,1.132l5.141,5.454H51.788c-0.442,0-0.8,0.357-0.8,0.801
					c0,0.442,0.358,0.8,0.8,0.8h20.561l-5.141,5.453c-0.288,0.305-0.268,0.838,0.031,1.132c0.315,0.311,0.838,0.283,1.132-0.031
					l6.403-6.804C74.963,11.762,74.997,11.584,75,11.396z"/>
			</g>
		</g>
	</g>
</g>
</svg>
