<svg xmlns="http://www.w3.org/2000/svg" width="191" height="133" viewBox="0 0 191 133">
    <path fill="#479463" fill-rule="evenodd" d="M114.666 49l.34.005c5.808.152 12.42 3.483 20.102 10.112l.454-.389c8.013-6.793 15.12-10.057 21.23-9.695 8.342 0 15.764 3.333 20.826 9.388 5.55 6.643 7.818 15.926 6.064 24.836l-4.002-.767c1.523-7.744-.422-15.783-5.207-21.506-3.025-3.62-8.563-7.93-17.773-7.93-.101-.007-.203-.012-.306-.015l-.309-.006-.311.001c-5.32.09-11.817 3.541-19.295 10.266l-1.372 1.236-1.372-1.234c-7.484-6.73-13.912-10.193-19.053-10.272l-.295-.001-.293.006-.289.015c-10.2 0-18.323 5.49-21.873 14.693-2.777 7.2-2.233 15.086 1.133 21.592l20.362-20.794 13.033 20.116 12.583-11.129 11.973 12.194H191v4.025h-41.71l-10.446-10.64-13.236 11.705-12.786-19.737-17.526 17.82c1.023 1.365 2.19 2.636 3.498 3.785 7.447 6.537 30.586 26.12 36.383 31.022l.18-.153c6.202-5.247 35.071-29.75 35.071-29.75l2.708 3.008-36.633 31.073-1.326 1.12-1.326-1.12c-.29-.247-29.24-24.71-37.765-32.192-1.352-1.187-2.57-2.487-3.66-3.873l-8.447 8.59-2.979-2.75 9.095-9.287c-4.457-7.722-5.338-17.332-1.973-26.057 4.175-10.824 13.719-17.283 25.533-17.283.335-.02.671-.03 1.011-.028zM107 128v4H53v-4h54zm-60.889-11v4H41v-4h5.111zm10.222 0v4h-5.111v-4h5.111zm10.223 0v4h-5.111v-4h5.111zm10.222 0v4h-5.111v-4h5.111zM87 117v4h-5.111v-4H87zm-18-12v4H0v-4h69zM13.818 84v4.811c0 1.391 1.178 2.522 2.626 2.522h15.112c1.448 0 2.626-1.13 2.626-2.522V84H38v4.811c0 3.336-2.764 6.065-6.208 6.185l-.236.004H16.444C12.891 95 10 92.223 10 88.811V84h3.818zm161.253-8c.149.563.866 3.345.925 4.816L176 81h-4.185c0-.715-.477-2.842-.815-4.124l4.07-.876zM19.754 36l2.72 2.663-4.652 4.555c-2.562 2.51-3.974 5.845-3.974 9.394v22.62H69V79H10V52.612c0-4.555 1.811-8.837 5.102-12.058L19.754 36zm137.008 23.011l.4.01c5.762 0 10.342 1.99 13.614 5.916 1.439 1.724 2.523 3.734 3.224 5.968L170.036 72c-.554-1.765-1.4-3.337-2.515-4.676-2.484-2.977-5.871-4.426-10.36-4.426l-.793-.022c-.428 0-2.02.128-4.95 1.721l-.298.164-2.12-3.328c3.59-2.01 5.99-2.433 7.368-2.433.122 0 .237.003.394.011zM75 60v4H52v-4h23zM29.757 48.14l15 3.353C47.257 52.05 49 54.147 49 56.59v2.173c0 2.817-2.349 5.122-5.28 5.233L43.5 64H25.6v-3.713h17.9c.882 0 1.6-.684 1.6-1.524V56.59c0-.71-.506-1.32-1.233-1.483l-15-3.353c-.107-.023-.214-.036-.32-.038l-.16.003c-.317.021-.623.131-.88.325-.387.29-.607.727-.607 1.194v2.099H23v-2.099c0-1.608.759-3.104 2.084-4.104 1.324-1 3.029-1.36 4.673-.994zM94 0v1h3.751c2.488 0 4.777 1.375 5.903 3.524l.116.234 12.623 26.727 2.28-2.264.075-4.787c0-1.122.513-2.162 1.408-2.855.881-.684 2.016-.93 3.11-.688l12.622 2.845c1.243.281 2.112 1.346 2.112 2.59v7.062c0 1.466-1.222 2.658-2.725 2.658h-8.826v-3.755h7.7V27.2l-11.553-2.605-.099 6.186L115.23 38 100.273 6.329c-.452-.956-1.441-1.574-2.522-1.574H48V3.754h-3.751c-1.08 0-2.07.62-2.522 1.575L26.771 37l-7.268-7.22-.099-6.186L7.85 26.2v5.092h7.701v3.754H6.725C5.222 35.046 4 33.854 4 32.388v-7.062c0-1.244.869-2.309 2.112-2.589l12.623-2.846c.292-.065.586-.095.878-.09l.218.008c.726.052 1.426.314 2.013.77.895.693 1.408 1.733 1.408 2.855l.076 4.787 2.28 2.264L38.23 3.758C39.31 1.476 41.672 0 44.25 0H94zm6 33v4H41v-4h59z"/>
</svg>
