<?xml version="1.0" encoding="utf-8"?>
<!-- Generator: Adobe Illustrator 15.1.0, SVG Export Plug-In . SVG Version: 6.00 Build 0)  -->
<!DOCTYPE svg PUBLIC "-//W3C//DTD SVG 1.1//EN" "http://www.w3.org/Graphics/SVG/1.1/DTD/svg11.dtd">
<svg version="1.1" id="Слой_1" xmlns="http://www.w3.org/2000/svg" xmlns:xlink="http://www.w3.org/1999/xlink" x="0px" y="0px"
	 width="32px" height="32px" viewBox="0 0 32 32" enable-background="new 0 0 32 32" xml:space="preserve">
<path id="Arrow_Forward" fill="#121313" d="M0,16.009c0,0.267,0.109,0.522,0.293,0.714l9.898,9.999c0.392,0.396,1.024,0.395,1.414,0
	c0.392-0.394,0.392-1.034,0-1.428l-8.192-8.275H31c0.552,0,1-0.452,1-1.01s-0.448-1.011-1-1.011H3.414l8.191-8.274
	c0.392-0.394,0.391-1.034,0-1.429c-0.391-0.394-1.023-0.394-1.414,0l-9.898,10C0.105,15.483,0.003,15.744,0,16.009z"/>
</svg>
