<svg width="25px" height="27px" viewBox="0 0 25 27" version="1.1" xmlns="http://www.w3.org/2000/svg" xmlns:xlink="http://www.w3.org/1999/xlink">
    <g id="T19---Partners" stroke="none" stroke-width="1" fill="none" fill-rule="evenodd"><g id="T19-Partners----1440" transform="translate(-199.000000, -661.000000)" fill="#EF3340" fill-rule="nonzero"><g id="Group-8" transform="translate(187.000000, 649.000000)">                <path d="M26.0873016,17.50125 C28.1114211,17.50125 29.7582465,19.1816836 29.7582465,21.2475 C29.7582465,23.3133164 28.1114211,24.99375 26.0873016,24.99375 C24.0634921,24.99375 22.4166667,23.3133164 22.4166667,21.2475 C22.4166667,19.1816836 24.063182,17.50125 26.0873016,17.50125 Z M26.0873016,22.96875 C27.0175161,22.96875 27.7741195,22.1965605 27.7741195,21.2475 C27.7741195,20.2984395 27.0172061,19.52625 26.0873016,19.52625 C25.1573971,19.52625 24.4007937,20.2984395 24.4007937,21.2475 C24.4007937,22.1965605 25.1573971,22.96875 26.0873016,22.96875 Z M27.3108466,25.5 C30.0641328,25.5 32.3045428,27.785877 32.3045428,30.59625 L32.3045428,32.4525 C32.3045428,33.011748 31.8604394,33.465 31.3124793,33.465 L20.8293651,33.465 C20.281405,33.465 19.8373016,33.011748 19.8373016,32.4525 L19.8373016,30.59625 C19.8373016,27.785877 22.0774016,25.5 24.8306878,25.5 L27.3108466,25.5 Z M30.3201058,31.44 L30.3201058,30.59625 C30.3201058,28.9026855 28.9702794,27.525 27.3105365,27.525 L24.8306878,27.525 C23.1713066,27.525 21.8214286,28.9026855 21.8214286,30.59625 L21.8214286,31.44 L30.3201058,31.44 Z M15.1746032,22.4625 C15.7225632,22.4625 16.1666667,22.915752 16.1666667,23.475 L16.1666667,27.525 C16.1666667,28.084248 15.7225632,28.5375 15.1746032,28.5375 C14.6266431,28.5375 14.1825397,28.084248 14.1825397,27.525 L14.1825397,23.475 C14.1825397,22.915752 14.6266431,22.4625 15.1746032,22.4625 Z M35.015873,12 C36.1283275,12 37,12.8896289 37,14.025 L37,36.975 C37,38.1103711 36.1283275,39 35.015873,39 L16.1666667,39 C15.0542121,39 14.1825397,38.1103711 14.1825397,36.975 L14.1825397,34.6125 C14.1825397,34.053252 14.6266431,33.6 15.1746032,33.6 C15.7225632,33.6 16.1666667,34.053252 16.1666667,34.6125 L16.1666667,36.975 L35.015873,36.975 L35.015873,14.025 L16.1666667,14.025 L16.1666667,16.3875 C16.1666667,16.946748 15.7225632,17.4 15.1746032,17.4 C14.6266431,17.4 14.1825397,16.946748 14.1825397,16.3875 L14.1825397,14.025 C14.1825397,12.8896289 15.0542121,12 16.1666667,12 L35.015873,12 Z M17.4563492,29.98875 C18.0043093,29.98875 18.4484127,30.442002 18.4484127,31.00125 C18.4484127,31.560498 18.0043093,32.01375 17.4563492,32.01375 L12.9920635,32.01375 C12.4441034,32.01375 12,31.560498 12,31.00125 C12,30.442002 12.4441034,29.98875 12.9920635,29.98875 L17.4563492,29.98875 Z M17.1256614,18.98625 C17.6736214,18.98625 18.1177249,19.439502 18.1177249,19.99875 C18.1177249,20.557998 17.6736214,21.01125 17.1256614,21.01125 L12.9920635,21.01125 C12.4441034,21.01125 12,20.557998 12,19.99875 C12,19.439502 12.4441034,18.98625 12.9920635,18.98625 L17.1256614,18.98625 Z" id="Combined-Shape-Copy"></path></g></g></g></svg>