<svg xmlns="http://www.w3.org/2000/svg" width="60" height="60" viewBox="0 0 60 60">
    <path fill="#003B4D" fill-rule="nonzero" d="M55 14.733a19.996 19.996 0 0 1-5.772 1.59 10.135 10.135 0 0 0 4.419-5.585 20.204 20.204 0 0 1-6.388 2.453A10 10 0 0 0 39.923 10c-5.551 0-10.052 4.523-10.052 10.1 0 .79.088 1.562.26 2.301-8.353-.422-15.76-4.443-20.717-10.555a10.063 10.063 0 0 0-1.36 5.078 10.11 10.11 0 0 0 4.47 8.406 10.015 10.015 0 0 1-4.552-1.267v.126c0 4.892 3.466 8.976 8.062 9.905-.842.228-1.73.354-2.649.354-.649 0-1.276-.065-1.892-.188 1.28 4.016 4.991 6.936 9.388 7.016a20.104 20.104 0 0 1-12.484 4.317c-.81 0-1.61-.049-2.397-.138A28.311 28.311 0 0 0 21.408 50c18.49 0 28.598-15.392 28.598-28.74l-.034-1.308A20.128 20.128 0 0 0 55 14.732z"/>
</svg>
