<svg xmlns="http://www.w3.org/2000/svg" width="45" height="13" viewBox="0 0 45 13">
    <path fill="#000" fill-rule="nonzero" d="M13.733 3.561a.97.97 0 0 0-1.276.506l-2.112 5.154-2.233-5.112a1 1 0 0 0-.91-.593.964.964 0 0 0-.909.593L4.015 9.221 1.838 4.046a.935.935 0 0 0-1.24-.507.946.946 0 0 0-.526 1.242l3.052 7.271c.038.082.085.16.138.234a.926.926 0 0 0 1.62-.227.1.1 0 0 1 .008-.011L7.202 6.89l2.274 5.162c.034.068.073.132.117.193a.929.929 0 0 0 1.636-.147.393.393 0 0 0 .023-.051l2.978-7.249a.942.942 0 0 0-.497-1.237zm4.812.053c-2.476 0-4.393 2.059-4.41 4.516.017 2.455 1.934 4.499 4.41 4.516 1.28 0 2.339-.377 3.228-1.186a.84.84 0 0 0-.964-1.375c-.139.066-.274.14-.403.223a3.105 3.105 0 0 1-1.861.477c-.633-.054-1.357-.379-1.736-.818-.325-.307-.524-.777-.614-1.193h5.748c.506 0 .885-.289.935-.722a.48.48 0 0 0 .019-.163V7.8c-.142-2.433-2.002-4.185-4.352-4.185zm-2.441 3.635c.145-.742.904-1.843 2.44-1.915 1.575.122 2.494 1.189 2.676 1.915h-5.116zM31.394 0a.987.987 0 0 0-.994.975v3.396a4.288 4.288 0 0 0-2.422-.757c-2.44 0-4.392 2.059-4.392 4.535 0 2.437 1.952 4.497 4.392 4.497a4.41 4.41 0 0 0 2.456-.777.978.978 0 0 0 1.934-.198V.975A.983.983 0 0 0 31.394 0zm-1.717 9.937a2.312 2.312 0 0 1-1.7.742 2.34 2.34 0 0 1-1.698-.742 2.615 2.615 0 0 1 0-3.612 2.34 2.34 0 0 1 1.699-.741c.645-.001 1.26.268 1.7.74a2.618 2.618 0 0 1 0 3.613zm4.757-6.305a.965.965 0 0 0-.977.994v7.045a.971.971 0 0 0 .977.975.96.96 0 0 0 .975-.975V4.625a.954.954 0 0 0-.975-.994v.001zm9.613-.017c-.468 0-.832.342-.936.794a4.109 4.109 0 0 0-5.477.56 4.558 4.558 0 0 0-1.228 3.18 4.624 4.624 0 0 0 1.228 3.18 4.204 4.204 0 0 0 3.07 1.317c.863 0 1.704-.271 2.404-.777a.985.985 0 0 0 .935.777.962.962 0 0 0 .957-.957v-7.1a.966.966 0 0 0-.953-.975zm-1.663 6.395a2.34 2.34 0 0 1-1.681.701 2.279 2.279 0 0 1-1.682-.701 2.708 2.708 0 0 1-.687-1.86c0-.76.253-1.41.687-1.861a2.177 2.177 0 0 1 1.683-.743 2.232 2.232 0 0 1 1.68.742c.467.506.719 1.173.702 1.86a2.72 2.72 0 0 1-.702 1.86v.002zM34.449.077a1.036 1.036 0 1 0 0 2.073 1.036 1.036 0 0 0 0-2.073z"/>
</svg>
