<svg xmlns="http://www.w3.org/2000/svg" width="60" height="60" viewBox="0 0 60 60">
    <path fill="#003B4D" fill-rule="nonzero" d="M54.895 14.348C52.946 11.97 49.347 11 42.475 11h-24.95c-7.03 0-10.69 1.033-12.632 3.564C3 17.033 3 20.67 3 25.704v9.593C3 45.05 5.246 50 17.525 50h24.95c5.96 0 9.262-.856 11.399-2.954C56.065 44.894 57 41.38 57 35.297v-9.594c0-5.308-.146-8.967-2.105-11.355zM37.668 31.825L26.34 37.9a1.705 1.705 0 0 1-1.71-.055 1.798 1.798 0 0 1-.839-1.53V24.204c0-.624.318-1.204.838-1.528a1.703 1.703 0 0 1 1.707-.058l11.33 6.037c.576.307.938.918.938 1.584.001.667-.36 1.278-.935 1.587z"/>
</svg>
