<svg xmlns="http://www.w3.org/2000/svg" width="25" height="28" viewBox="0 0 25 28">
    <path fill="#FFF" fill-rule="nonzero" d="M8.437 26.143h-.848c-2.808 0-5.085-2.303-5.085-5.143v-1.123a5.586 5.586 0 0 1-1.695-4.02c0-1.092.31-2.11.848-2.97V8.57C1.657 3.838 5.45 0 10.132 0h5.085c4.68 0 8.475 3.838 8.475 8.571v4.316c.537.86.847 1.878.847 2.97 0 3.077-2.466 5.572-5.509 5.572-.508 0-1.01-.074-1.502-.215a.856.856 0 0 1-.616-.825v-9.064c0-.383.251-.72.616-.825a5.431 5.431 0 0 1 4.469.662v-2.59c0-3.788-3.036-6.858-6.78-6.858h-5.085c-3.745 0-6.78 3.07-6.78 6.857v2.59a5.438 5.438 0 0 1 4.468-.66.856.856 0 0 1 .617.824v9.064c0 .384-.252.72-.617.825a5.431 5.431 0 0 1-3.621-.212c0 1.892 1.518 3.427 3.39 3.427h.848V24c0-.473.379-.857.847-.857h6.78c.468 0 .848.384.848.857v2.571c0 .474-.38.858-.848.858h-6.78a.852.852 0 0 1-.847-.858v-.428zm13.752-12.448a.86.86 0 0 1-.073-.106 3.795 3.795 0 0 0-3.51-1.564v7.664c.142.017.283.025.424.025 2.107 0 3.814-1.727 3.814-3.857a3.87 3.87 0 0 0-.655-2.162zm-18.32 5.12a3.772 3.772 0 0 0 2.872.874v-7.664a3.797 3.797 0 0 0-3.547 1.618 3.87 3.87 0 0 0-.69 2.214c0 1.188.531 2.25 1.366 2.958zm6.263 6.042v.857h5.085v-.857h-5.085z"/>
</svg>
