<svg xmlns="http://www.w3.org/2000/svg" xmlns:xlink="http://www.w3.org/1999/xlink" width="55" height="56" viewBox="0 0 55 56">
    <defs>
        <ellipse id="a" cx="27.5" cy="28" rx="27.5" ry="28"/>
        <path id="b" d="M36.16 20.543h-2.643v-1.545c-.013-2.207-1.752-3.991-3.898-3.998H13.946a3.832 3.832 0 0 0-2.75 1.166 4.066 4.066 0 0 0-1.149 2.853v1.54H8.902C6.75 20.562 5.004 22.355 5 24.57v2.975a4.05 4.05 0 0 0 1.149 2.853 3.819 3.819 0 0 0 2.718 1.133 4.351 4.351 0 0 0 1.188 2.201A4.148 4.148 0 0 0 13.043 35c1.847-.01 3.476-1.248 4.029-3.06h10.526c.21.68.58 1.296 1.078 1.792A4.148 4.148 0 0 0 31.663 35a4.142 4.142 0 0 0 2.991-1.288 4.387 4.387 0 0 0 1.153-2.18h.353c2.151-.003 3.896-1.794 3.902-4.007v-2.971c-.004-2.215-1.75-4.009-3.902-4.01zm-9.18-3.733h2.635c1.179 0 2.137.98 2.143 2.192v1.541H26.98V16.81zm-15.174 2.197a2.217 2.217 0 0 1 .626-1.557 2.105 2.105 0 0 1 1.514-.64h11.271v3.733H11.803l.003-1.536zm3.709 11.644c0 1.406-1.106 2.547-2.472 2.552a2.437 2.437 0 0 1-1.748-.742 2.576 2.576 0 0 1-.733-1.802 2.565 2.565 0 0 1 .722-1.805 2.442 2.442 0 0 1 1.763-.754c1.36.002 2.465 1.134 2.472 2.535l-.004.016zm18.62.135a2.552 2.552 0 0 1-.717 1.63 2.436 2.436 0 0 1-1.755.787 2.437 2.437 0 0 1-1.747-.742 2.576 2.576 0 0 1-.733-1.802 2.565 2.565 0 0 1 .721-1.805 2.442 2.442 0 0 1 1.763-.754c1.31.002 2.39 1.052 2.468 2.396v.29zm4.172-3.261c-.004 1.215-.962 2.199-2.143 2.2h-.357a4.378 4.378 0 0 0-1.157-2.176 4.14 4.14 0 0 0-5.99.013 4.393 4.393 0 0 0-1.188 2.563H17.274c-.254-2.208-2.082-3.867-4.243-3.851a4.142 4.142 0 0 0-2.992 1.288c-.574.59-.969 1.339-1.137 2.156a2.125 2.125 0 0 1-1.501-.64 2.226 2.226 0 0 1-.63-1.557V24.55c.004-1.217.964-2.201 2.147-2.201h27.254a2.1 2.1 0 0 1 1.501.664c.404.412.63.972.63 1.557l.004 2.955zm5.357-2.882h3.003v1.81h-3.962a.863.863 0 0 1-.623-.264.914.914 0 0 1-.257-.64.914.914 0 0 1 .257-.642.863.863 0 0 1 .623-.264h.959zm-1.415-.476a.874.874 0 0 1-.792-.506.933.933 0 0 1-.05-.696.902.902 0 0 1 .446-.527l3.45-1.81.793 1.631-2.884 1.512-.567.298a.88.88 0 0 1-.396.098zm1.18 3.293l.009-.017 2.67 1.398-.792 1.63-2.667-1.38-.792-.409a.893.893 0 0 1-.448-.525.924.924 0 0 1 .052-.697.888.888 0 0 1 .511-.46.857.857 0 0 1 .677.052l.761.408h.02z"/>
    </defs>
    <g fill="none" fill-rule="evenodd">
        <use fill="#91CCA3" fill-rule="nonzero" xlink:href="#a"/>
        <use fill="#479463" fill-rule="nonzero" transform="translate(2.75 2.8)" xlink:href="#b"/>
    </g>
</svg>
