<svg xmlns="http://www.w3.org/2000/svg" width="25" height="22" viewBox="0 0 25 22">
    <path fill="#FFF" fill-rule="nonzero" d="M20.09 6.375v4.875c0 1.45-1.162 2.625-2.596 2.625H11.47l-5.723 5.064c-.48.425-1.23.08-1.23-.564v-4.5H3.404a2.58 2.58 0 0 1-1.835-.769 2.64 2.64 0 0 1-.76-1.856V2.625C.809 1.175 1.971 0 3.404 0h14.09c1.434 0 2.596 1.175 2.596 2.625v2.25h1.854c1.433 0 2.595 1.175 2.595 2.625V15a2.64 2.64 0 0 1-.76 1.856 2.58 2.58 0 0 1-1.835.769h-.371v3c0 .61-.682.965-1.173.61l-4.997-3.61H11.19a.746.746 0 0 1-.742-.75c0-.414.332-.75.742-.75h4.45c.154 0 .305.049.43.14l4.019 2.903v-2.293c0-.414.332-.75.741-.75h1.113c.295 0 .578-.119.786-.33.209-.21.326-.497.326-.795V7.5c0-.621-.498-1.125-1.112-1.125H20.09zm-9.387 6.186a.737.737 0 0 1 .488-.186h6.303c.615 0 1.113-.504 1.113-1.125V2.625c0-.621-.498-1.125-1.113-1.125H3.404c-.614 0-1.112.504-1.112 1.125v8.625c0 .298.117.585.326.795.209.211.491.33.786.33h1.854c.41 0 .742.336.742.75v3.597l4.703-4.161z"/>
</svg>
