<svg xmlns="http://www.w3.org/2000/svg" width="60" height="60" viewBox="0 0 60 60">
    <path fill="#003B4D" fill-rule="nonzero" d="M42.862 31.594a1.259 1.259 0 0 0 0-1.84 1.342 1.342 0 0 0-1.883 0l-9.646 9.31V8.305C31.333 7.59 30.743 7 30 7c-.742 0-1.35.589-1.35 1.306v30.757l-9.627-9.308c-.533-.515-1.39-.515-1.903 0a1.259 1.259 0 0 0 0 1.839l11.93 11.534c.514.497 1.37.497 1.902 0l11.909-11.534zm9.455 8.444c0-.717.59-1.287 1.332-1.287.742 0 1.351.57 1.351 1.287v12.656C55 53.41 54.391 54 53.65 54H6.331A1.318 1.318 0 0 1 5 52.694V40.038c0-.717.59-1.287 1.332-1.287.742 0 1.35.57 1.35 1.287v11.368h44.635V40.038z"/>
</svg>
