<svg xmlns="http://www.w3.org/2000/svg" width="60" height="60" viewBox="0 0 60 60">
    <path fill="#003B4D" fill-rule="nonzero" d="M45.963 15.81a1.555 1.555 0 0 1 2.19.05c.59.615.567 1.59-.052 2.176L31.07 34.19a1.556 1.556 0 0 1-2.138 0L11.899 18.036a1.532 1.532 0 0 1-.051-2.175 1.555 1.555 0 0 1 2.189-.05L30 30.95l15.963-15.14zM14.195 42.476c-.521.674-1.494.8-2.171.282a1.532 1.532 0 0 1-.284-2.158l7.742-10a1.555 1.555 0 0 1 2.172-.281c.678.518.804 1.484.283 2.157l-7.742 10zm23.868-10a1.532 1.532 0 0 1 .283-2.157 1.555 1.555 0 0 1 2.172.281l7.742 10c.52.674.394 1.64-.284 2.158a1.555 1.555 0 0 1-2.171-.282l-7.742-10zM6 15.385C6 12.41 8.426 10 11.42 10h37.16c2.994 0 5.42 2.41 5.42 5.385v29.23C54 47.59 51.574 50 48.58 50H11.42C8.425 50 6 47.59 6 44.615v-29.23zm3.097 0v29.23a2.315 2.315 0 0 0 2.322 2.308h37.162a2.315 2.315 0 0 0 2.322-2.308v-29.23a2.315 2.315 0 0 0-2.322-2.308H11.419a2.315 2.315 0 0 0-2.322 2.308z"/>
</svg>
