<svg xmlns="http://www.w3.org/2000/svg" width="60" height="60" viewBox="0 0 60 60">
    <path fill="#003B4D" fill-rule="nonzero" d="M16.5 39.172v-9.505c0-.808.672-1.463 1.5-1.463h24c.828 0 1.5.655 1.5 1.463v9.505H51V28.935c0-4.845-4.03-8.774-9-8.774H18c-4.97 0-9 3.929-9 8.774v10.237h7.5zm0 2.925h-9c-.828 0-1.5-.655-1.5-1.463V28.935c0-6.46 5.373-11.698 12-11.698h24c6.627 0 12 5.237 12 11.698v11.7c0 .807-.672 1.462-1.5 1.462h-9v8.774c0 .808-.672 1.462-1.5 1.462H18c-.828 0-1.5-.654-1.5-1.462v-8.774zM41.625 25.28c-.621 0-1.125-.491-1.125-1.097s.504-1.097 1.125-1.097 1.125.491 1.125 1.097-.504 1.097-1.125 1.097zM19.5 9.925v4.387c0 .807-.672 1.462-1.5 1.462s-1.5-.655-1.5-1.462v-5.85C16.5 7.655 17.172 7 18 7h24c.828 0 1.5.655 1.5 1.462v5.85c0 .807-.672 1.462-1.5 1.462s-1.5-.655-1.5-1.462V9.925h-21zm0 21.204v18.28h21v-18.28h-21zm4.5 7.312c-.828 0-1.5-.655-1.5-1.463 0-.807.672-1.462 1.5-1.462h12c.828 0 1.5.655 1.5 1.462 0 .808-.672 1.463-1.5 1.463H24zm0 6.58c-.828 0-1.5-.654-1.5-1.462 0-.808.672-1.462 1.5-1.462h12c.828 0 1.5.654 1.5 1.462 0 .808-.672 1.463-1.5 1.463H24z"/>
</svg>
