<svg xmlns="http://www.w3.org/2000/svg" xmlns:xlink="http://www.w3.org/1999/xlink" width="55" height="56" viewBox="0 0 55 56">
    <defs>
        <ellipse id="a" cx="27.5" cy="28" rx="27.5" ry="28"/>
        <path id="b" d="M25.486 39.167l-.414-.183a33.414 33.414 0 0 1-13.837-11.215c-1.057-1.556-2.068-4.531-2.068-6.27 0-2.152.69-4.212 1.884-5.997 1.61-2.334 4.092-3.936 6.896-4.486 2.574-.457 5.24 0 7.447 1.328 1.655-.961 3.493-1.51 5.424-1.51 2.85 0 5.562 1.052 7.63 3.066 2.07 2.014 3.173 4.669 3.219 7.553v.091a12.047 12.047 0 0 1-1.84 5.86c-4.32 6.91-13.56 11.35-13.928 11.534l-.413.229zm-5.561-26.355c-.554 0-1.062.045-1.615.135a8.664 8.664 0 0 0-5.63 3.57c-1.016 1.4-1.524 3.072-1.524 4.788 0 1.31.877 3.84 1.708 5.015a31.05 31.05 0 0 0 12.507 10.211c1.845-.904 9.23-4.925 12.783-10.436.923-1.446 1.43-3.118 1.523-4.835a8.517 8.517 0 0 0-2.63-6.009c-1.662-1.58-3.877-2.484-6.185-2.44a8.865 8.865 0 0 0-3.876.904c1.8.859 3.046 3.118 3.046 5.828 0 3.48-2.031 6.19-4.615 6.19-2.585 0-4.615-2.71-4.615-6.19 0-2.71 1.246-4.97 3.046-5.828a9.218 9.218 0 0 0-3.923-.903zm5.16 2.634c-1.421 0-2.653 1.955-2.653 4.283 0 2.327 1.232 4.283 2.653 4.283s2.653-1.956 2.653-4.283c0-2.328-1.232-4.283-2.653-4.283z"/>
    </defs>
    <g fill="none" fill-rule="evenodd">
        <use fill="#FFB3AB" fill-rule="nonzero" xlink:href="#a"/>
        <use fill="#EF3340" fill-rule="nonzero" transform="translate(2.75 2.8)" xlink:href="#b"/>
    </g>
</svg>
