<svg xmlns="http://www.w3.org/2000/svg" xmlns:xlink="http://www.w3.org/1999/xlink" width="56" height="56" viewBox="0 0 56 56">
    <defs>
        <circle id="a" cx="28" cy="28" r="28"/>
        <path id="b" d="M25.563 19.762a.932.932 0 0 0-1.201 0l-10.641 9a.925.925 0 0 0-.33.701v13.781a.917.917 0 0 0 .926.923h5.004v-7.574a1.662 1.662 0 0 1 1.028-1.516 1.672 1.672 0 0 1 1.803.344c.323.293.517.7.542 1.134v7.612H35.58a.923.923 0 0 0 .925-.923v-13.78c0-.27-.119-.527-.325-.703l-10.616-8.999zm9.094 22.56h-10.09v-5.817a3.535 3.535 0 0 0-3.67-3.381 3.559 3.559 0 0 0-3.398 3.419v5.779h-2.252v-12.43l9.715-8.219 9.695 8.218v12.431zm.834-19.847l6.176 5.214-1.197 1.409-15.462-13.07L9.53 29.097l-1.197-1.409L24.4 14.116a.924.924 0 0 1 1.2 0l4.17 3.519v-3.274a.916.916 0 0 1 .926-.922h3.87a.923.923 0 0 1 .925.922v8.114zm-3.87-7.192v3.918l2.023 1.708v-5.626h-2.022zm-.037-6.29l.008-.544V7.527c0-.475.387-.86.864-.86.476 0 .863.385.863.86v1.466a.307.307 0 0 0 .058.092 1.77 1.77 0 0 1 0 2.31.735.735 0 0 0-.067.091v.864h-1.726v-.864a1.745 1.745 0 0 1 .417-1.155.735.735 0 0 0 .067-.091.735.735 0 0 0-.067-.092 1.745 1.745 0 0 1-.417-1.155zM29.066 36.12a3.475 3.475 0 0 0 3.456-3.486h-.905.926a3.459 3.459 0 0 0-3.46-3.44h-.047a3.471 3.471 0 0 0-3.463 3.48 3.472 3.472 0 0 0 3.493 3.45v-.004zm-1.16-4.603a1.646 1.646 0 0 1 1.168-.47 1.615 1.615 0 0 1 0 3.233c-.431-.001-.845-.168-1.155-.466a1.622 1.622 0 0 1-.013-2.297z"/>
    </defs>
    <g fill="none" fill-rule="evenodd">
        <use fill="#F8D590" fill-rule="nonzero" xlink:href="#a"/>
        <use fill="#F2B100" fill-rule="nonzero" transform="translate(2.8)" xlink:href="#b"/>
    </g>
</svg>
