<svg xmlns="http://www.w3.org/2000/svg" width="60" height="60" viewBox="0 0 60 60">
    <path fill="#003B4D" fill-rule="nonzero" d="M31.462 48.661a99.185 99.185 0 0 0 5.586-6.897c2.332-3.172 4.258-6.247 5.639-9.123C44.199 29.49 45 26.692 45 24.358c0-8.945-6.921-15.31-15-15.31s-15 6.365-15 15.31c0 2.334.801 5.133 2.313 8.283 1.38 2.876 3.307 5.951 5.639 9.123a99.185 99.185 0 0 0 5.586 6.897A95.63 95.63 0 0 0 30 50.278c.453-.489.943-1.03 1.462-1.617zM48 24.358c0 2.867-.922 6.089-2.617 9.619-1.472 3.067-3.495 6.298-5.931 9.61a102.182 102.182 0 0 1-5.758 7.111 95.482 95.482 0 0 1-2.436 2.653l-.197.203a1.483 1.483 0 0 1-2.122 0 63.114 63.114 0 0 1-.734-.768 95.482 95.482 0 0 1-1.899-2.088 102.182 102.182 0 0 1-5.758-7.11c-2.436-3.313-4.459-6.544-5.931-9.611C12.922 30.447 12 27.225 12 24.358 12 13.658 20.327 6 30 6s18 7.658 18 18.358zm-18 7.547c-4.142 0-7.5-3.411-7.5-7.62 0-4.207 3.358-7.618 7.5-7.618 4.142 0 7.5 3.41 7.5 7.619 0 4.208-3.358 7.619-7.5 7.619zm0-3.048c2.485 0 4.5-2.047 4.5-4.571 0-2.525-2.015-4.572-4.5-4.572s-4.5 2.047-4.5 4.572c0 2.524 2.015 4.571 4.5 4.571z"/>
</svg>
