<?xml version="1.0" encoding="UTF-8"?>
<svg width="59px" height="75px" viewBox="0 0 59 75" version="1.1" xmlns="http://www.w3.org/2000/svg" xmlns:xlink="http://www.w3.org/1999/xlink">
    <!-- Generator: Sketch 54.1 (76490) - https://sketchapp.com -->
    <title>care-icon</title>
    <desc>Created with Sketch.</desc>
    <g id="Τ2---PRD-Health" stroke="none" stroke-width="1" fill="none" fill-rule="evenodd">
        <g id="T2-1-PRD-Health" transform="translate(-170.000000, -1314.000000)" fill="#EF3340">
            <g id="Intro-section" transform="translate(170.000000, 988.000000)">
                <g id="Hightlight-1" transform="translate(0.000000, 326.001064)">
                    <path d="M19.8609,64.905672 L31.8629502,64.905672 C31.2996266,63.6397805 31.0009,62.2561065 31.0009,60.85264 C31.0009,55.42016 35.3629,51 40.7239,51 C41.2312156,51 41.7295683,51.0395382 42.2161156,51.1157316 C44.1693458,48.2356593 45.1956,44.8804219 45.1956,41.356616 C45.1956,36.6517613 43.2828251,32.1323071 39.9289416,28.8729775 C38.5197363,28.8053038 37.1723989,28.3573006 36.0066925,27.575645 L25.8561,37.858792 C25.5711,38.147592 25.1961,38.293512 24.8241,38.293512 C24.582047,38.293512 24.3412438,38.2327162 24.1242807,38.1119422 L20.829,41.45116 C20.544,41.73996 20.169,41.88588 19.797,41.88588 C19.422,41.88588 19.05,41.73996 18.765,41.45116 L12.363,34.9638 C11.793,34.3862 11.793,33.44988 12.363,32.87228 L15.658689,29.5326485 C15.3560149,28.9713573 15.4391519,28.2533527 15.9081,27.778152 L40.8261,2.527912 C41.3961,1.950312 42.3201,1.950312 42.8901,2.527912 L43.307088,2.95045987 L45.8091,0.41724 C46.3551,-0.13908 47.3271,-0.13908 47.8731,0.41724 L52.8591,5.46668 C53.1321,5.74332 53.2881,6.12028 53.2881,6.51244 C53.2881,6.9046 53.1321,7.28156 52.8591,7.56124 L50.357088,10.0944599 L50.7741,10.517032 C51.3441,11.091592 51.3441,12.030952 50.7741,12.608552 L46.8248862,16.610422 C47.6647455,17.8952361 48.1164,19.3997209 48.1164,20.965816 C48.1164,21.0426877 48.1153135,21.1193068 48.1131552,21.1956584 C53.9851663,26.2388266 57.3501,33.578943 57.3501,41.358744 C57.3501,48.094834 54.8673128,54.4594502 50.3399524,59.3695272 C50.4123565,59.853371 50.4499,60.348649 50.4499,60.85264 C50.4499,62.2561065 50.1500244,63.6397805 49.585825,64.905672 L57.1749,64.905672 C57.9849,64.905672 58.6389,65.565352 58.6389,66.383112 L58.6389,72.536072 C58.6389,73.353832 57.9849,74.016552 57.1749,74.016552 L1.4619,74.016552 C0.6549,74.016552 0.000900000036,73.353832 0.000900000036,72.536072 L0.000900000036,66.383112 C0.000900000036,65.565352 0.6549,64.905672 1.4619,64.905672 L10.3809,64.905672 L10.3809,59.800296 L9.5259,59.800296 C7.0839,59.800296 5.1009,57.787816 5.1009,55.316296 C5.1009,52.844776 7.0839,50.832296 9.5259,50.832296 L20.7159,50.832296 C23.1579,50.832296 25.1409,52.844776 25.1409,55.316296 C25.1409,57.787816 23.1579,59.800296 20.7159,59.800296 L19.8609,59.800296 L19.8609,64.905672 Z M24.8249318,34.7176291 L33.9080551,25.5133975 C33.277513,24.6090735 32.846788,23.5872142 32.6378358,22.5014777 C32.5414016,22.0011679 32.4921,21.4874275 32.4921,20.965512 C32.4921,16.600072 35.9961,13.049352 40.3041,13.049352 C41.9361,13.049352 43.4871,13.550952 44.7891,14.484232 L47.6751,11.562792 L41.8581,5.668232 L19.0071,28.823912 L21.2748,31.121848 L24.8249318,34.7176291 Z M36.0066925,27.575645 L36.9291,26.641192 C37.2051,26.358472 37.3581,25.978472 37.3551,25.580232 C37.3521093,25.1862559 37.1940833,24.8073858 36.9137164,24.5309651 C36.9129441,24.530209 36.9121719,24.5294527 36.9114,24.528696 C36.7484046,24.3691594 36.5980484,24.2008723 36.4604899,24.0246347 C35.7815052,23.1544995 35.4144,22.0906323 35.4144,20.965816 C35.4144,20.4636075 35.4884526,19.9786449 35.6260772,19.5215484 C35.6429592,19.465355 35.6608534,19.4095948 35.6796893,19.3542737 C36.1306644,18.0284452 37.1220947,16.9557466 38.386089,16.4076412 C38.434689,16.3865508 38.4836919,16.3662363 38.5330824,16.3467132 C39.0825388,16.1297429 39.6799605,16.010616 40.3044,16.010616 C41.6394,16.010616 42.8874,16.548696 43.8174,17.527576 C44.7054,18.457816 45.1944,19.679896 45.1944,20.965816 C45.1944,23.5847914 43.1805138,25.73476 40.6391016,25.9095434 C40.5127625,25.896701 40.3853236,25.9005277 40.2602177,25.9208169 Z M43.3594394,28.2516539 C46.4083899,31.8940954 48.1176,36.5396132 48.1176,41.356616 C48.1176,45.1909103 47.080985,48.8531117 45.102311,52.0557704 C46.8587616,52.9564763 48.3105268,54.3813637 49.2560037,56.1259592 C52.6064236,51.9577132 54.4281,46.7953973 54.4281,41.358744 C54.4281,34.9478999 51.8531797,28.8744813 47.3163557,24.454368 C46.4910774,26.1510501 45.0834382,27.5066613 43.3594394,28.2516539 Z M47.3505094,59.2984836 C47.3411948,59.2644842 47.3330984,59.2302091 47.32622,59.1957298 C46.5922258,56.1933278 43.9104217,53.96096 40.7239,53.96096 C36.9739,53.96096 33.9229,57.05264 33.9229,60.85264 C33.9229,62.4608 34.4539,63.96864 35.4589,65.212 C36.7579,66.8232 38.6779,67.74736 40.7239,67.74736 C42.4987061,67.74736 44.1744765,67.05399 45.4353741,65.8213472 C45.5473642,65.701022 45.6556233,65.5761304 45.7599,65.446792 C45.8232162,65.3688336 45.8934852,65.2983903 45.9694096,65.2360662 C45.9759217,65.2280613 45.9824186,65.2200392 45.9889,65.212 C46.9939,63.96864 47.5249,62.4608 47.5249,60.85264 C47.5249,60.3183786 47.4645909,59.7981186 47.3505094,59.2984836 Z M47.5526831,67.866632 C47.5433524,67.8759943 47.5340051,67.8853355 47.5246412,67.8946557 C45.6937304,69.8410246 43.1700877,70.940072 40.4949,70.940072 C37.8069,70.940072 35.2719,69.830472 33.4389,67.866632 L2.9229,67.866632 L2.9229,71.055592 L55.7169,71.055592 L55.7169,67.866632 L47.5526831,67.866632 Z M40.4949,58.134376 C42.1059,58.134376 43.4079,59.456776 43.4079,61.089256 C43.4079,61.797576 43.1619,62.445096 42.7509,62.955816 C42.2169,63.618536 41.4039,64.041096 40.4949,64.041096 C39.5859,64.041096 38.7729,63.618536 38.2389,62.955816 C37.8279,62.445096 37.5819,61.797576 37.5819,61.089256 C37.5819,59.456776 38.8839,58.134376 40.4949,58.134376 Z M41.7531,19.54948 C42.1011,19.91732 42.3171,20.41588 42.3171,20.96612 C42.3171,22.09396 41.4171,23.009 40.3041,23.009 C39.7611,23.009 39.2661,22.78708 38.9061,22.43444 C38.5251,22.06356 38.2881,21.54372 38.2881,20.96612 C38.2881,19.83828 39.1911,18.92324 40.3041,18.92324 C40.8741,18.92324 41.3841,19.16644 41.7531,19.54948 Z M45.3741,5.04412 L48.2901,7.999 L49.7571,6.51244 L46.8411,3.55756 L45.3741,5.04412 Z M15.462,33.91804 L19.797,38.31084 L22.017,36.06124 L17.682,31.66844 L15.462,33.91804 Z M13.3029,64.904456 L16.9389,64.904456 L16.9389,58.316776 C16.9389,57.499016 17.5929,56.839336 18.3999,56.839336 L20.7159,56.839336 C21.5469,56.839336 22.2189,56.155336 22.2189,55.316296 C22.2189,54.477256 21.5469,53.793256 20.7159,53.793256 L9.5259,53.793256 C8.6949,53.793256 8.0229,54.477256 8.0229,55.316296 C8.0229,56.155336 8.6949,56.839336 9.5259,56.839336 L11.8419,56.839336 C12.6489,56.839336 13.3029,57.499016 13.3029,58.316776 L13.3029,64.904456 Z" id="care-icon"></path>
                </g>
            </g>
        </g>
    </g>
</svg>