<?xml version="1.0" encoding="UTF-8"?>
<svg width="56px" height="75px" viewBox="0 0 56 75" version="1.1" xmlns="http://www.w3.org/2000/svg" xmlns:xlink="http://www.w3.org/1999/xlink">
    <!-- Generator: Sketch 54.1 (76490) - https://sketchapp.com -->
    <title>program</title>
    <desc>Created with Sketch.</desc>
    <g id="Τ2---PRD-Health" stroke="none" stroke-width="1" fill="none" fill-rule="evenodd">
        <g id="T2-1-PRD-Health" transform="translate(-536.000000, -1314.000000)" fill="#EF3340">
            <g id="Intro-section" transform="translate(170.000000, 988.000000)">
                <g id="Hightlight-2" transform="translate(366.000000, 325.999695)">
                    <path d="M2.97326316,71.3705263 L52.4930526,71.3705263 L52.4930526,2.97326316 L2.97326316,2.97326316 L2.97326316,71.3705263 Z M53.9796842,74.3437895 L1.48663158,74.3437895 C0.665473684,74.3437895 1.17239551e-13,73.6783158 1.17239551e-13,72.8571579 L1.17239551e-13,1.48663158 C1.17239551e-13,0.665473684 0.665473684,-2.4158453e-13 1.48663158,-2.4158453e-13 L53.9796842,-2.4158453e-13 C54.8008421,-2.4158453e-13 55.4663158,0.665473684 55.4663158,1.48663158 L55.4663158,72.8571579 C55.4663158,73.6783158 54.8008421,74.3437895 53.9796842,74.3437895 Z M25.5181684,32.6051579 L29.9475368,32.6051579 L29.9475368,28.2246316 C29.9475368,27.4034737 30.6130105,26.738 31.4341684,26.738 L35.8177474,26.738 L35.8177474,22.3055789 L31.4341684,22.3055789 C30.6130105,22.3055789 29.9475368,21.6431579 29.9475368,20.822 L29.9475368,16.4384211 L25.5181684,16.4384211 L25.5181684,20.822 C25.5181684,21.6431579 24.8526947,22.3055789 24.0315368,22.3055789 L19.6510105,22.3055789 L19.6510105,26.738 L24.0315368,26.738 C24.8526947,26.738 25.5181684,27.4034737 25.5181684,28.2246316 L25.5181684,32.6051579 Z M31.4341684,35.5814737 L24.0315368,35.5814737 C23.2103789,35.5814737 22.5449053,34.9129474 22.5449053,34.0917895 L22.5449053,29.7112632 L18.1643789,29.7112632 C17.3432211,29.7112632 16.6777474,29.0457895 16.6777474,28.2246316 L16.6777474,20.822 C16.6777474,20.0008421 17.3432211,19.3353684 18.1643789,19.3353684 L22.5449053,19.3353684 L22.5449053,14.9517895 C22.5449053,14.1306316 23.2103789,13.4651579 24.0315368,13.4651579 L31.4341684,13.4651579 C32.2583789,13.4651579 32.9208,14.1306316 32.9208,14.9517895 L32.9208,19.3353684 L37.3043789,19.3353684 C38.1224842,19.3353684 38.7910105,20.0008421 38.7910105,20.822 L38.7910105,28.2246316 C38.7910105,29.0457895 38.1224842,29.7112632 37.3043789,29.7112632 L32.9208,29.7112632 L32.9208,34.0917895 C32.9208,34.9129474 32.2583789,35.5814737 31.4341684,35.5814737 Z M37.3040737,45.3492842 L18.1640737,45.3492842 C17.3429158,45.3492842 16.6774421,44.6838105 16.6774421,43.8626526 C16.6774421,43.0414947 17.3429158,42.3760211 18.1640737,42.3760211 L37.3040737,42.3760211 C38.1252316,42.3760211 38.7907053,43.0414947 38.7907053,43.8626526 C38.7907053,44.6838105 38.1252316,45.3492842 37.3040737,45.3492842 Z M37.3040737,53.1151789 L18.1640737,53.1151789 C17.3429158,53.1151789 16.6774421,52.4497053 16.6774421,51.6285474 C16.6774421,50.8073895 17.3429158,50.1388632 18.1640737,50.1388632 L37.3040737,50.1388632 C38.1252316,50.1388632 38.7907053,50.8073895 38.7907053,51.6285474 C38.7907053,52.4497053 38.1252316,53.1151789 37.3040737,53.1151789 Z M37.3040737,60.8777158 L18.1640737,60.8777158 C17.3429158,60.8777158 16.6774421,60.2122421 16.6774421,59.3941368 C16.6774421,58.5699263 17.3429158,57.9044526 18.1640737,57.9044526 L37.3040737,57.9044526 C38.1252316,57.9044526 38.7907053,58.5699263 38.7907053,59.3941368 C38.7907053,60.2122421 38.1252316,60.8777158 37.3040737,60.8777158 Z" id="program"></path>
                </g>
            </g>
        </g>
    </g>
</svg>