<?xml version="1.0" encoding="UTF-8"?>
<svg width="58px" height="69px" viewBox="0 0 58 69" version="1.1" xmlns="http://www.w3.org/2000/svg" xmlns:xlink="http://www.w3.org/1999/xlink">
    <!-- Generator: Sketch 54.1 (76490) - https://sketchapp.com -->
    <title>support-icon</title>
    <desc>Created with Sketch.</desc>
    <g id="Τ2---PRD-Health" stroke="none" stroke-width="1" fill="none" fill-rule="evenodd">
        <g id="T2-1-PRD-Health" transform="translate(-904.000000, -1322.000000)" fill="#EF3340">
            <g id="Intro-section" transform="translate(170.000000, 988.000000)">
                <g id="Hightlight-3" transform="translate(734.000000, 334.000000)">
                    <path d="M7.73928571,60.9293367 L7.73928571,63.2158095 C7.73928571,64.6261905 8.88557143,65.7724762 10.2959524,65.7724762 L52.0482857,65.7724762 C53.4586667,65.7724762 54.6049524,64.6261905 54.6049524,63.2158095 C54.6049524,61.8054286 53.4586667,60.6591429 52.0482857,60.6591429 L35.0984286,60.6591429 C32.1793333,60.6591429 29.8024762,58.2822857 29.8024762,55.3631905 L29.8024762,54.0569079 C16.0060872,53.1368008 5,38.3846338 5,20.3825238 C5,18.7782857 5.08990476,17.1684286 5.26409524,15.5922857 C6.00692637,8.93026339 11.3536449,3.79158617 18,3.08345646 L18,2.84604762 C18,1.27552381 19.2755238,3.8191672e-14 20.8432381,3.8191672e-14 L25.021,3.8191672e-14 C26.5887143,3.8191672e-14 27.8642381,1.27552381 27.8642381,2.84604762 L27.8642381,5.05714286 C27.8642381,6.62485714 26.5887143,7.90319048 25.021,7.90319048 L20.8432381,7.90319048 C19.5407795,7.90319048 18.4399997,7.02084611 18.1047851,5.82326617 C12.8102772,6.47289128 8.57877743,10.5857973 7.98652381,15.8929048 C7.8207619,17.3707143 7.73647619,18.8794286 7.73647619,20.3825238 C7.73647619,37.0668732 17.7627511,50.7101156 30.2664092,51.3403875 C30.5075015,51.1282875 30.8240326,51 31.1707143,51 C31.5173639,51 31.8344597,51.1282638 32.0761836,51.3403288 C44.5792998,50.7092687 54.6049524,37.0663553 54.6049524,20.3825238 C54.6049524,18.8850476 54.5206667,17.3763333 54.3577143,15.8929048 C53.74824,10.4314853 49.2823105,6.23472319 43.7721998,5.77543952 C43.4525905,6.99728034 42.3379276,7.90319048 41.0181905,7.90319048 L36.8432381,7.90319048 C35.2727143,7.90319048 34,6.62485714 34,5.05714286 L34,2.84604762 C34,1.27552381 35.2727143,3.8191672e-14 36.8432381,3.8191672e-14 L41.0181905,3.8191672e-14 C42.5859048,3.8191672e-14 43.8642381,1.27552381 43.8642381,2.84604762 L43.8642381,3.04045709 C50.728086,3.54779982 56.3168193,8.77167579 57.0773333,15.5922857 C57.2543333,17.1712381 57.3414286,18.7867143 57.3414286,20.3825238 C57.3414286,38.3834196 46.3368259,53.1348109 32.5417619,54.0567204 L32.5417619,55.3631905 C32.5417619,56.7735714 33.6880476,57.9198571 35.0984286,57.9198571 L52.0482857,57.9198571 C54.967381,57.9198571 57.3414286,60.2967143 57.3414286,63.2158095 C57.3414286,66.1349048 54.967381,68.5089524 52.0482857,68.5089524 L10.2959524,68.5089524 C7.37685714,68.5089524 5,66.1349048 5,63.2158095 L5,61.0635413 C2.16130791,60.552387 -2.30926389e-14,58.0631685 -2.30926389e-14,55.0798095 C-2.30926389e-14,51.7280476 2.72804762,49 6.07980952,49 C9.43157143,49 12.159619,51.7280476 12.159619,55.0798095 C12.159619,57.8565104 10.2873692,60.2051582 7.73928571,60.9293367 Z M6.52026646,58.3914693 C8.15562872,58.1754689 9.42033333,56.7735667 9.42033333,55.0798095 C9.42033333,53.2367619 7.92285714,51.7364762 6.07980952,51.7364762 C4.2367619,51.7364762 2.73928571,53.2367619 2.73928571,55.0798095 C2.73928571,56.914343 4.22295833,58.4064904 6.05428924,58.4202376 C6.15600516,58.3961644 6.26206586,58.3834286 6.37104762,58.3834286 C6.42147151,58.3834286 6.47125758,58.386155 6.52026646,58.3914693 Z M20.7364762,3.6452712 C20.866329,3.85473472 20.9412381,4.10233852 20.9412381,4.3682381 C20.9412381,4.63015633 20.8674665,4.87507651 20.7394359,5.08313144 C20.7507099,5.13115729 20.7928805,5.16390476 20.8432381,5.16390476 L25.021,5.16390476 C25.0771905,5.16390476 25.1249524,5.11895238 25.1249524,5.05714286 L25.1249524,2.84604762 C25.1249524,2.78704762 25.0771905,2.73928571 25.021,2.73928571 L20.8432381,2.73928571 C20.7842381,2.73928571 20.7364762,2.78704762 20.7364762,2.84604762 L20.7364762,3.6452712 Z M36.8432381,2.73928571 C36.7842381,2.73928571 36.7364762,2.78704762 36.7364762,2.84604762 L36.7364762,5.05714286 C36.7364762,5.11895238 36.7842381,5.16390476 36.8432381,5.16390476 L41.0181905,5.16390476 C41.0771905,5.16390476 41.1249524,5.11895238 41.1249524,5.05714286 L41.1249524,2.84604762 C41.1249524,2.78704762 41.0771905,2.73928571 41.0181905,2.73928571 L36.8432381,2.73928571 Z M22.428,24.9571429 C20.9445714,24.9571429 19.7392857,26.1652381 19.7392857,27.6486667 C19.7392857,29.1292857 20.9445714,30.337381 22.428,30.337381 L26.5917143,30.337381 C27.3474762,30.337381 27.9599524,30.9498571 27.9599524,31.705619 L27.9599524,35.8693333 C27.9599524,37.3499524 29.1652381,38.5580476 30.6486667,38.5580476 C32.1320952,38.5580476 33.3401905,37.3499524 33.3401905,35.8693333 L33.3401905,31.705619 C33.3401905,30.9498571 33.9526667,30.337381 34.7084286,30.337381 L38.8721429,30.337381 C40.3527619,30.337381 41.5608571,29.1292857 41.5608571,27.6486667 C41.5608571,26.1652381 40.3527619,24.9571429 38.8721429,24.9571429 L34.7084286,24.9571429 C33.9526667,24.9571429 33.3401905,24.3446667 33.3401905,23.5917143 L33.3401905,19.4251905 C33.3401905,17.9445714 32.1320952,16.7364762 30.6486667,16.7364762 C29.1652381,16.7364762 27.9599524,17.9445714 27.9599524,19.4251905 L27.9599524,23.5917143 C27.9599524,24.3446667 27.3474762,24.9571429 26.5917143,24.9571429 L22.428,24.9571429 Z M30.6486667,41.2945238 C27.6565238,41.2945238 25.2234762,38.8614762 25.2234762,35.8693333 L25.2234762,33.0738571 L22.428,33.0738571 C19.4358571,33.0738571 17,30.638 17,27.6486667 C17,24.6565238 19.4358571,22.2206667 22.428,22.2206667 L25.2234762,22.2206667 L25.2234762,19.4251905 C25.2234762,16.4358571 27.6565238,14 30.6486667,14 C33.6408095,14 36.0766667,16.4358571 36.0766667,19.4251905 L36.0766667,22.2206667 L38.8721429,22.2206667 C41.8614762,22.2206667 44.2973333,24.6565238 44.2973333,27.6486667 C44.2973333,30.638 41.8614762,33.0738571 38.8721429,33.0738571 L36.0766667,33.0738571 L36.0766667,35.8693333 C36.0766667,38.8614762 33.6408095,41.2945238 30.6486667,41.2945238 Z" id="support-icon"></path>
                </g>
            </g>
        </g>
    </g>
</svg>