<svg xmlns="http://www.w3.org/2000/svg" xmlns:xlink="http://www.w3.org/1999/xlink" width="36" height="36" viewBox="0 0 36 36">
    <defs>
        <rect id="a" width="36" height="36" rx="4"/>
        <path id="b" d="M10.965 8.554L6.14 13.37a.786.786 0 0 1-1.111 0 .783.783 0 0 1 0-1.109L9.298 8 5.03 3.739a.784.784 0 0 1 0-1.11.786.786 0 0 1 1.111 0l4.824 4.817a.78.78 0 0 1 0 1.108z"/>
    </defs>
    <g fill="none" fill-rule="evenodd" opacity=".4">
        <rect width="35" height="35" x=".5" y=".5" stroke="#485294" rx="4" transform="matrix(1 0 0 -1 0 36)"/>
        <use fill="#4A5294" fill-rule="nonzero" transform="matrix(-1 0 0 1 25.995 10)" xlink:href="#b"/>
    </g>
</svg>
