<?xml version="1.0" encoding="UTF-8"?>
<svg width="63px" height="63px" viewBox="0 0 63 63" version="1.1" xmlns="http://www.w3.org/2000/svg" xmlns:xlink="http://www.w3.org/1999/xlink">
    <!-- Generator: Sketch 54.1 (76490) - https://sketchapp.com -->
    <title>Combined Shape</title>
    <desc>Created with Sketch.</desc>
    <g id="Τ2---PRD-Life" stroke="none" stroke-width="1" fill="none" fill-rule="evenodd">
        <g id="T2-1-PRD-Life" transform="translate(-536.000000, -1276.000000)" fill="#4A5294" fill-rule="nonzero">
            <path d="M547.760362,1337.09094 L597.085841,1337.09094 L597.085841,1295.17432 L581.609318,1295.17432 C581.082289,1295.17432 580.654895,1294.74697 580.654895,1294.21979 L580.654895,1277.90906 L547.760362,1277.90906 L547.760362,1300.82107 L555.267705,1300.82107 C555.794824,1300.82107 556.222127,1301.24843 556.222127,1301.7756 L556.222127,1305.12021 C556.222127,1305.6473 555.794824,1306.07474 555.267705,1306.07474 L554.852484,1306.07474 L554.852484,1307.73591 C554.852484,1309.62774 554.119873,1311.46178 552.789813,1312.90012 L548.167468,1317.89939 L552.789813,1322.89768 C554.119873,1324.33646 554.852484,1326.1705 554.852484,1328.06198 L554.852484,1329.72305 L555.267705,1329.72305 C555.794824,1329.72305 556.222127,1330.15049 556.222127,1330.67758 L556.222127,1334.02273 C556.222127,1334.54982 555.794824,1334.97726 555.267705,1334.97726 L547.760362,1334.97726 L547.760362,1337.09094 Z M537.908935,1331.63211 L537.908935,1333.0682 L554.313282,1333.0682 L554.313282,1331.63211 C548.665463,1331.63211 543.748902,1331.63211 537.908935,1331.63211 Z M539.27912,1328.06198 L539.27912,1329.72305 L552.943638,1329.72305 L552.943638,1328.06198 C552.943638,1326.6525 552.391453,1325.27891 551.388069,1324.19389 L546.654007,1319.07486 C546.394866,1318.79332 545.827262,1318.79377 545.56812,1319.07432 L540.834238,1324.19434 C539.831306,1325.27891 539.27912,1326.6525 539.27912,1328.06198 Z M539.27912,1307.73591 C539.27912,1309.14538 539.831306,1310.51933 540.834238,1311.60444 L545.56812,1316.72338 C545.827262,1317.00402 546.394415,1317.00402 546.654458,1316.72338 L551.388069,1311.60399 C552.391453,1310.51933 552.943638,1309.14583 552.943638,1307.73591 L552.943638,1306.07474 L539.27912,1306.07474 L539.27912,1307.73591 Z M537.908935,1302.73014 L537.908935,1304.16568 C543.551976,1304.16568 548.470701,1304.16568 554.313282,1304.16568 L554.313282,1302.73014 L537.908935,1302.73014 Z M582.56374,1279.3465 L582.56374,1293.26526 L595.811775,1293.26526 L582.56374,1279.3465 Z M598.626983,1293.45355 C598.880444,1293.64283 599.030483,1293.92166 598.994777,1294.3051 L598.994777,1338.04547 C598.994777,1338.57265 598.567383,1339 598.040354,1339 L546.805939,1339 C546.27891,1339 545.851517,1338.57265 545.851517,1338.04547 L545.851517,1334.97726 L536.954423,1334.97726 C536.427394,1334.97726 536,1334.54982 536,1334.02273 L536,1330.67758 C536,1330.15049 536.427394,1329.72305 536.954423,1329.72305 L537.370185,1329.72305 L537.370185,1328.06198 C537.370185,1326.1705 538.102705,1324.33691 539.432405,1322.89813 L544.054659,1317.89894 L539.432405,1312.90066 C538.102705,1311.46124 537.370185,1309.62729 537.370185,1307.73591 L537.370185,1306.07474 L536.954423,1306.07474 C536.427394,1306.07474 536,1305.6473 536,1305.12021 L536,1301.7756 C536,1301.24843 536.427394,1300.82107 536.954423,1300.82107 L545.851517,1300.82107 L545.851517,1276.95453 C545.851517,1276.42744 546.27891,1276 546.805939,1276 L581.604719,1276 C581.806694,1276 582.115698,1276.11083 582.29432,1276.29551 C582.29468,1276.29596 582.295402,1276.29596 582.295853,1276.2965 L582.296213,1276.29696 C582.297566,1276.29831 582.299189,1276.29876 582.300541,1276.3002 L598.626983,1293.45355 Z M554.156301,1293.06019 L573.563765,1293.06019 L573.563765,1284.48934 L554.156301,1284.48934 L554.156301,1293.06019 Z M575.47261,1294.01472 C575.47261,1294.5419 575.045216,1294.96926 574.518188,1294.96926 L553.201878,1294.96926 C552.674669,1294.96926 552.247365,1294.5419 552.247365,1294.01472 L552.247365,1283.5348 C552.247365,1283.00772 552.674669,1282.58027 553.201878,1282.58027 L574.518188,1282.58027 C575.045216,1282.58027 575.47261,1283.00772 575.47261,1283.5348 L575.47261,1294.01472 Z M579.011683,1302.49333 C579.538712,1302.49333 579.966106,1302.92077 579.966106,1303.44786 C579.966106,1303.97504 579.538712,1304.40239 579.011683,1304.40239 L559.963085,1304.40239 C559.435876,1304.40239 559.008663,1303.97504 559.008663,1303.44786 C559.008663,1302.92077 559.435876,1302.49333 559.963085,1302.49333 L579.011683,1302.49333 Z M579.011683,1309.30103 C579.538712,1309.30103 579.966106,1309.72838 579.966106,1310.25556 C579.966106,1310.78265 579.538712,1311.21009 579.011683,1311.21009 L559.963085,1311.21009 C559.435876,1311.21009 559.008663,1310.78265 559.008663,1310.25556 C559.008663,1309.72838 559.435876,1309.30103 559.963085,1309.30103 L579.011683,1309.30103 Z M579.011683,1316.10819 C579.538712,1316.10819 579.966106,1316.53563 579.966106,1317.06272 C579.966106,1317.5899 579.538712,1318.01725 579.011683,1318.01725 L559.963085,1318.01725 C559.435876,1318.01725 559.008663,1317.5899 559.008663,1317.06272 C559.008663,1316.53563 559.435876,1316.10819 559.963085,1316.10819 L579.011683,1316.10819 Z M579.011683,1322.9158 C579.538712,1322.9158 579.966106,1323.34324 579.966106,1323.87033 C579.966106,1324.39751 579.538712,1324.82495 579.011683,1324.82495 L559.963085,1324.82495 C559.435876,1324.82495 559.008663,1324.39751 559.008663,1323.87033 C559.008663,1323.34324 559.435876,1322.9158 559.963085,1322.9158 L579.011683,1322.9158 Z M579.011683,1329.72305 C579.538712,1329.72305 579.966106,1330.15049 579.966106,1330.67758 C579.966106,1331.20467 579.538712,1331.63211 579.011683,1331.63211 L559.963085,1331.63211 C559.435876,1331.63211 559.008663,1331.20467 559.008663,1330.67758 C559.008663,1330.15049 559.435876,1329.72305 559.963085,1329.72305 L579.011683,1329.72305 Z M583.346754,1314.11986 C582.819635,1314.11986 582.392332,1313.69251 582.392332,1313.16533 L582.392332,1303.44786 C582.392332,1302.92077 582.819635,1302.49333 583.346754,1302.49333 L593.129744,1302.49333 C593.656773,1302.49333 594.084166,1302.92077 594.084166,1303.44786 C594.084166,1303.97504 593.656773,1304.40239 593.129744,1304.40239 L584.301177,1304.40239 L584.301177,1312.2108 L592.175321,1312.2108 L592.175321,1309.90414 C592.175321,1309.37705 592.602625,1308.94961 593.129744,1308.94961 C593.656773,1308.94961 594.084166,1309.37705 594.084166,1309.90414 L594.084166,1313.16533 C594.084166,1313.69251 593.656773,1314.11986 593.129744,1314.11986 L583.346754,1314.11986 Z M593.410706,1305.26846 C593.841345,1304.96222 594.436,1305.06286 594.742118,1305.49165 C595.047876,1305.92099 594.948151,1306.51706 594.518954,1306.82331 L588.354655,1311.21893 C588.122925,1311.38387 587.8352,1311.43337 587.572723,1311.36863 C587.302942,1311.30199 587.075449,1311.12154 586.949666,1310.87355 L585.359112,1307.73825 C585.120439,1307.26797 585.308167,1306.69318 585.77794,1306.45502 C586.249245,1306.21551 586.8228,1306.40479 587.061023,1306.87408 L588.149705,1309.01995 L593.410706,1305.26846 Z M593.129744,1324.93127 C593.656773,1324.93127 594.084166,1325.35863 594.084166,1325.88581 L594.084166,1329.147 C594.084166,1329.67408 593.656773,1330.10153 593.129744,1330.10153 L583.346754,1330.10153 C582.819635,1330.10153 582.392332,1329.67408 582.392332,1329.147 L582.392332,1319.42953 C582.392332,1318.90244 582.819635,1318.475 583.346754,1318.475 L593.129744,1318.475 C593.656773,1318.475 594.084166,1318.90244 594.084166,1319.42953 C594.084166,1319.95671 593.656773,1320.38406 593.129744,1320.38406 L584.301177,1320.38406 L584.301177,1328.19246 L592.175321,1328.19246 L592.175321,1325.88581 C592.175321,1325.35863 592.602625,1324.93127 593.129744,1324.93127 Z M593.410706,1321.25049 C593.841345,1320.94433 594.436,1321.04551 594.742118,1321.47377 C595.047876,1321.90301 594.948151,1322.49918 594.518954,1322.80533 L588.354655,1327.20105 C588.122925,1327.36598 587.8352,1327.41549 587.572723,1327.35065 C587.302942,1327.28401 587.074999,1327.10366 586.949666,1326.85567 L585.359112,1323.71983 C585.120439,1323.24964 585.308167,1322.67485 585.77794,1322.43669 C586.249245,1322.19717 586.8228,1322.38646 587.061023,1322.85574 L588.149705,1325.00206 L593.410706,1321.25049 Z" id="Combined-Shape"></path>
        </g>
    </g>
</svg>