<?xml version="1.0" encoding="UTF-8"?>
<svg width="57px" height="57px" viewBox="0 0 57 57" version="1.1" xmlns="http://www.w3.org/2000/svg" xmlns:xlink="http://www.w3.org/1999/xlink">
    <!-- Generator: Sketch 54.1 (76490) - https://sketchapp.com -->
    <title>Combined Shape Copy 3</title>
    <desc>Created with Sketch.</desc>
    <g id="Τ2---PRD-Life" stroke="none" stroke-width="1" fill="none" fill-rule="evenodd">
        <g id="T2-1-PRD-Life" transform="translate(-170.000000, -1278.000000)" fill="#4A5294" fill-rule="nonzero">
            <path d="M203.550854,1295.0019 C202.916279,1296.19061 201.674526,1297 200.25,1297 L197.75,1297 C196.195062,1297 194.857892,1296.03563 194.290455,1294.66622 C190.755259,1295.92737 187.926612,1298.75629 186.666797,1302.29069 C188.035903,1302.85827 189,1304.19528 189,1305.75 L189,1308.25 C189,1309.67424 188.190934,1310.91578 187.00261,1311.55047 C188.389076,1314.69 191.042124,1317.1734 194.291361,1318.3316 C194.859313,1316.96334 196.195888,1316 197.75,1316 L200.25,1316 C201.673753,1316 202.914931,1316.80851 203.549821,1317.99617 C206.413308,1316.73139 208.731695,1314.41312 209.996074,1311.54977 C208.808469,1310.91487 208,1309.67372 208,1308.25 L208,1305.75 C208,1304.1954 208.963945,1302.85848 210.332881,1302.29083 C209.17396,1299.04151 206.690446,1296.38903 203.550854,1295.0019 Z M204,1292.46954 C208.21066,1294.12799 211.522545,1297.65636 212.881871,1302 L221.337989,1302 C219.594135,1293.12484 212.736865,1286.00874 204,1283.88285 L204,1292.46954 Z M203.970479,1281.32208 C214.113729,1283.52436 222.088119,1291.77575 223.879298,1302.06003 C225.65147,1302.37702 227,1303.91125 227,1305.75 L227,1308.25 C227,1310.15785 225.548211,1311.73786 223.67776,1311.9705 C221.549308,1321.7724 213.772611,1329.54971 203.970479,1331.67792 C203.737766,1333.5483 202.157792,1335 200.25,1335 L197.75,1335 C195.911148,1335 194.37685,1333.65132 194.059979,1331.879 C183.775775,1330.08733 175.525303,1322.11323 173.322487,1311.97053 C171.451917,1311.738 170,1310.15793 170,1308.25 L170,1305.75 C170,1303.91125 171.348531,1302.37702 173.120704,1302.06003 C174.972097,1291.43032 183.430119,1282.97236 194.060016,1281.12079 C194.376971,1279.34858 195.911221,1278 197.75,1278 L200.25,1278 C202.157792,1278 203.737766,1279.4517 203.970479,1281.32208 Z M194,1283.66328 C184.789029,1285.47315 177.471801,1292.78927 175.662011,1302 L184.11642,1302 C185.582432,1297.31794 189.316969,1293.58317 194,1292.11678 L194,1283.66328 Z M184.470019,1312 L175.882116,1312 C178.008616,1320.73624 185.124857,1327.59228 194,1329.33649 L194,1320.88151 C189.656269,1319.52203 186.128542,1316.20989 184.470019,1312 Z M212.528355,1312 C210.999308,1315.88089 207.881057,1318.99889 204,1320.52759 L204,1329.11714 C212.406111,1327.07158 219.072245,1320.4058 221.118126,1312 L212.528355,1312 Z M197.75,1318.53333 C197.06125,1318.53333 196.5,1319.10207 196.5,1319.8 L196.5,1331.2 C196.5,1331.89793 197.06125,1332.46667 197.75,1332.46667 L200.25,1332.46667 C200.93875,1332.46667 201.5,1331.89793 201.5,1331.2 L201.5,1319.8 C201.5,1319.10207 200.93875,1318.53333 200.25,1318.53333 L197.75,1318.53333 Z M211.8,1304.5 C211.102067,1304.5 210.533333,1305.06125 210.533333,1305.75 L210.533333,1308.25 C210.533333,1308.93875 211.102067,1309.5 211.8,1309.5 L223.2,1309.5 C223.897933,1309.5 224.466667,1308.93875 224.466667,1308.25 L224.466667,1305.75 C224.466667,1305.06125 223.897933,1304.5 223.2,1304.5 L211.8,1304.5 Z M173.8,1304.5 C173.102067,1304.5 172.533333,1305.06125 172.533333,1305.75 L172.533333,1308.25 C172.533333,1308.93875 173.102067,1309.5 173.8,1309.5 L185.2,1309.5 C185.897933,1309.5 186.466667,1308.93875 186.466667,1308.25 L186.466667,1305.75 C186.466667,1305.06125 185.897933,1304.5 185.2,1304.5 L173.8,1304.5 Z M197.75,1280.53333 C197.06125,1280.53333 196.5,1281.10207 196.5,1281.8 L196.5,1293.2 C196.5,1293.89793 197.06125,1294.46667 197.75,1294.46667 L200.25,1294.46667 C200.93875,1294.46667 201.5,1293.89793 201.5,1293.2 L201.5,1281.8 C201.5,1281.10207 200.93875,1280.53333 200.25,1280.53333 L197.75,1280.53333 Z M173.545455,1293 L171,1293 L171,1289.18182 C171,1283.56782 175.567818,1279 181.181818,1279 L185,1279 L185,1281.54545 L181.181818,1281.54545 C176.970364,1281.54545 173.545455,1284.97036 173.545455,1289.18182 L173.545455,1293 Z M226,1293 L223.454545,1293 L223.454545,1289.18182 C223.454545,1284.97036 220.029636,1281.54545 215.818182,1281.54545 L212,1281.54545 L212,1279 L215.818182,1279 C221.432182,1279 226,1283.56782 226,1289.18182 L226,1293 Z M185,1334 L181.181818,1334 C175.567818,1334 171,1329.43218 171,1323.81818 L171,1320 L173.545455,1320 L173.545455,1323.81818 C173.545455,1328.02964 176.970364,1331.45455 181.181818,1331.45455 L185,1331.45455 L185,1334 Z M215.818182,1334 L212,1334 L212,1331.45455 L215.818182,1331.45455 C220.029636,1331.45455 223.454545,1328.02964 223.454545,1323.81818 L223.454545,1320 L226,1320 L226,1323.81818 C226,1329.43218 221.432182,1334 215.818182,1334 Z" id="Combined-Shape-Copy-3"></path>
        </g>
    </g>
</svg>