<?xml version="1.0" encoding="UTF-8"?>
<svg width="52px" height="59px" viewBox="0 0 52 59" version="1.1" xmlns="http://www.w3.org/2000/svg" xmlns:xlink="http://www.w3.org/1999/xlink">
    <!-- Generator: Sketch 54.1 (76490) - https://sketchapp.com -->
    <title>Fill 10</title>
    <desc>Created with Sketch.</desc>
    <g id="Τ2---PRD-Life" stroke="none" stroke-width="1" fill="none" fill-rule="evenodd">
        <g id="T2-1-PRD-Life" transform="translate(-904.000000, -1276.000000)" fill="#4A5294" fill-rule="nonzero">
            <path d="M930,1329.67012 L930,1283.06918 C933.26873,1286.17154 937.332542,1288.50819 941.537535,1289.96843 C944.672105,1291.05712 948.015455,1291.70903 951.355945,1291.77451 C951.846826,1308.25523 944.416264,1321.00662 930,1329.67012 Z M953.580772,1289.38252 C954.181113,1297.81398 952.89931,1306.33639 948.702117,1314.10191 C944.995286,1320.96037 938.999407,1327.24747 930,1332.38638 C920.999033,1327.24747 915.004714,1320.95985 911.296583,1314.10191 C907.09887,1306.33639 905.818887,1297.81398 906.417408,1289.38252 C908.014333,1289.48905 909.684578,1289.44176 911.396424,1289.23286 C913.44315,1288.9829 915.561376,1288.49416 917.692863,1287.75417 C920.455631,1286.79514 922.972439,1285.50196 925.163465,1283.98222 C927.016751,1282.69555 928.645656,1281.24128 930,1279.68386 C931.351484,1281.2379 932.981689,1282.69113 934.837575,1283.98014 L934.836535,1283.98222 C937.025741,1285.50196 939.544369,1286.79514 942.305317,1287.75417 C944.438624,1288.49416 946.55685,1288.9829 948.603576,1289.23286 C950.315422,1289.44176 951.985407,1289.48905 953.580772,1289.38252 Z M950.712703,1315.18229 C955.330317,1306.64091 956.596781,1297.25795 955.758798,1288.0392 L955.651678,1286.87308 L954.495194,1287.0082 C952.729789,1287.21398 950.839323,1287.20645 948.880217,1286.96636 C946.974932,1286.73304 945.014786,1286.28327 943.05568,1285.6033 C940.505592,1284.71754 938.174945,1283.51895 936.139919,1282.10729 L936.135759,1282.10729 C934.042752,1280.65562 932.271367,1278.97817 930.906103,1277.18846 L929.99818,1276 L929.093377,1277.18846 C927.731233,1278.97479 925.956988,1280.65095 923.859821,1282.10729 C921.825055,1283.51895 919.493888,1284.71754 916.9425,1285.6033 C914.985214,1286.28327 913.025068,1286.73304 911.119263,1286.96636 C909.160677,1287.20645 907.270211,1287.21398 905.504806,1287.0082 L904.346762,1286.87308 L904.241202,1288.0392 C903.403219,1297.25795 904.669683,1306.64091 909.287297,1315.18229 C913.265829,1322.54274 919.721909,1329.26271 929.446198,1334.6908 L930,1335 L930.553802,1334.6908 C940.276271,1329.26271 946.733651,1322.54274 950.712703,1315.18229 L950.712703,1315.18229 Z" id="Fill-10"></path>
        </g>
    </g>
</svg>