<svg xmlns="http://www.w3.org/2000/svg" width="63" height="63" viewBox="0 0 63 63">
    <path fill="#4A5294" fill-rule="nonzero" d="M11.76 61.09h49.326V19.175H45.609a.955.955 0 0 1-.954-.954V1.91H11.76V24.82h7.508c.527 0 .954.427.954.955v3.344a.955.955 0 0 1-.954.955h-.416v1.66c0 1.893-.732 3.727-2.062 5.165l-4.623 5 4.623 4.998c1.33 1.438 2.062 3.272 2.062 5.164v1.661h.416c.527 0 .954.427.954.955v3.345a.955.955 0 0 1-.954.954H11.76v2.114zM1.91 55.633v1.436h16.404v-1.436H1.91zm1.37-3.57v1.661h13.665v-1.661c0-1.41-.553-2.783-1.556-3.868l-4.734-5.12c-.26-.28-.827-.28-1.086 0l-4.734 5.12C3.831 49.28 3.28 50.652 3.28 52.062zm0-20.326c0 1.41.552 2.783 1.555 3.868l4.734 5.12c.26.28.826.28 1.086 0l4.734-5.12c1.003-1.085 1.556-2.458 1.556-3.868v-1.661H3.279v1.66zM1.91 26.73v1.436h16.404V26.73H1.91zM46.564 3.347v13.918h13.248L46.564 3.347zm16.063 14.107a.9.9 0 0 1 .368.851v43.74a.955.955 0 0 1-.955.955H10.806a.955.955 0 0 1-.954-.955v-3.068H.954A.955.955 0 0 1 0 58.023v-3.345c0-.528.427-.955.954-.955h.416v-1.661c0-1.892.733-3.725 2.062-5.164l4.623-5-4.623-4.997c-1.33-1.44-2.062-3.274-2.062-5.165v-1.661H.954A.955.955 0 0 1 0 29.12v-3.344c0-.528.427-.955.954-.955h8.898V.955c0-.528.427-.955.954-.955h34.799c.202 0 .51.11.69.296l.001.001.005.003 16.326 17.154zm-44.47-.394h19.407V8.49H18.156v8.57zm21.316.955a.955.955 0 0 1-.955.954H17.202a.954.954 0 0 1-.955-.954V7.535c0-.527.428-.955.955-.955h21.316c.527 0 .955.428.955.955v10.48zm3.539 8.478a.955.955 0 0 1 0 1.91H23.963a.954.954 0 1 1 0-1.91h19.049zm0 6.808a.955.955 0 0 1 0 1.91H23.963a.954.954 0 0 1 0-1.91h19.049zm0 6.807a.955.955 0 0 1 0 1.91H23.963a.954.954 0 1 1 0-1.91h19.049zm0 6.808a.955.955 0 0 1 0 1.909H23.963a.954.954 0 0 1 0-1.91h19.049zm0 6.807a.955.955 0 0 1 0 1.91H23.963a.954.954 0 0 1 0-1.91h19.049zm4.335-15.603a.954.954 0 0 1-.955-.955v-9.717c0-.527.428-.955.955-.955h9.783a.955.955 0 0 1 0 1.91H48.3v7.808h7.874v-2.307a.955.955 0 1 1 1.91 0v3.261a.955.955 0 0 1-.955.955h-9.783zm10.064-8.852a.955.955 0 0 1 1.108 1.555l-6.164 4.396a.956.956 0 0 1-1.405-.345l-1.59-3.136a.954.954 0 1 1 1.701-.864l1.089 2.146 5.26-3.752zm-.281 19.663c.527 0 .954.428.954.955v3.261a.955.955 0 0 1-.954.955h-9.783a.955.955 0 0 1-.955-.955V43.43c0-.528.428-.955.955-.955h9.783a.955.955 0 0 1 0 1.91H48.3v7.807h7.874v-2.306c0-.527.428-.955.955-.955zm.28-3.68a.955.955 0 0 1 1.109 1.554l-6.164 4.396a.956.956 0 0 1-1.405-.345l-1.59-3.136a.954.954 0 1 1 1.701-.864l1.089 2.146 5.26-3.752z"/>
</svg>
