<svg xmlns="http://www.w3.org/2000/svg" width="57" height="57" viewBox="0 0 57 57">
    <path fill="#4A5294" fill-rule="nonzero" d="M33.55 17.002A3.747 3.747 0 0 1 30.25 19h-2.5c-1.555 0-2.892-.964-3.46-2.334a12.651 12.651 0 0 0-7.623 7.625C18.036 24.858 19 26.195 19 27.75v2.5c0 1.424-.81 2.666-1.997 3.3a12.658 12.658 0 0 0 7.288 6.782C24.86 38.963 26.196 38 27.75 38h2.5c1.424 0 2.665.809 3.3 1.996a12.676 12.676 0 0 0 6.446-6.446A3.747 3.747 0 0 1 38 30.25v-2.5c0-1.555.964-2.892 2.333-3.46a12.664 12.664 0 0 0-6.782-7.288zM34 14.47c4.21 1.658 7.523 5.186 8.882 9.53h8.456C49.594 15.125 42.737 8.009 34 5.883v8.587zm-.03-11.148C44.114 5.524 52.088 13.776 53.88 24.06c1.771.317 3.12 1.851 3.12 3.69v2.5c0 1.908-1.452 3.488-3.322 3.72-2.129 9.802-9.905 17.58-19.708 19.708-.232 1.87-1.812 3.322-3.72 3.322h-2.5c-1.839 0-3.373-1.349-3.69-3.121-10.284-1.792-18.535-9.766-20.738-19.908C1.452 33.738 0 32.158 0 30.25v-2.5c0-1.839 1.349-3.373 3.12-3.69C4.973 13.43 13.43 4.972 24.06 3.12 24.377 1.35 25.911 0 27.75 0h2.5c1.908 0 3.488 1.452 3.72 3.322zM24 5.663C14.789 7.473 7.472 14.79 5.662 24h8.454A15.17 15.17 0 0 1 24 14.117V5.663zM14.47 34H5.882C8.01 42.736 15.125 49.592 24 51.336v-8.454c-4.344-1.36-7.871-4.672-9.53-8.882zm28.058 0A15.2 15.2 0 0 1 34 42.528v8.59C42.406 49.071 49.072 42.405 51.118 34h-8.59zM27.75 40.533A1.26 1.26 0 0 0 26.5 41.8v11.4a1.26 1.26 0 0 0 1.25 1.267h2.5A1.26 1.26 0 0 0 31.5 53.2V41.8a1.26 1.26 0 0 0-1.25-1.267h-2.5zM41.8 26.5a1.26 1.26 0 0 0-1.267 1.25v2.5c0 .689.57 1.25 1.267 1.25h11.4a1.26 1.26 0 0 0 1.267-1.25v-2.5A1.26 1.26 0 0 0 53.2 26.5H41.8zm-38 0a1.26 1.26 0 0 0-1.267 1.25v2.5c0 .689.57 1.25 1.267 1.25h11.4a1.26 1.26 0 0 0 1.267-1.25v-2.5A1.26 1.26 0 0 0 15.2 26.5H3.8zM27.75 2.533A1.26 1.26 0 0 0 26.5 3.8v11.4a1.26 1.26 0 0 0 1.25 1.267h2.5A1.26 1.26 0 0 0 31.5 15.2V3.8a1.26 1.26 0 0 0-1.25-1.267h-2.5zM3.545 15H1v-3.818C1 5.568 5.568 1 11.182 1H15v2.545h-3.818c-4.212 0-7.637 3.425-7.637 7.637V15zM56 15h-2.545v-3.818c0-4.212-3.425-7.637-7.637-7.637H42V1h3.818C51.432 1 56 5.568 56 11.182V15zM15 56h-3.818C5.568 56 1 51.432 1 45.818V42h2.545v3.818c0 4.212 3.425 7.637 7.637 7.637H15V56zm30.818 0H42v-2.545h3.818c4.212 0 7.637-3.425 7.637-7.637V42H56v3.818C56 51.432 51.432 56 45.818 56z"/>
</svg>
