<svg xmlns="http://www.w3.org/2000/svg" width="52" height="59" viewBox="0 0 52 59">
    <path fill="#4A5294" fill-rule="nonzero" d="M26 53.67V7.07c3.269 3.102 7.333 5.438 11.538 6.898 3.134 1.09 6.477 1.741 9.818 1.807.49 16.48-6.94 29.232-21.356 37.895zm23.58-40.287c.601 8.431-.68 16.953-4.878 24.719C40.995 44.96 35 51.247 26 56.386 16.999 51.247 11.005 44.96 7.297 38.102c-4.198-7.766-5.478-16.288-4.88-24.72 1.597.107 3.268.06 4.98-.15a30.537 30.537 0 0 0 6.296-1.478 30.916 30.916 0 0 0 7.47-3.772c1.854-1.286 3.483-2.74 4.837-4.298 1.351 1.554 2.982 3.007 4.838 4.296l-.001.002a30.903 30.903 0 0 0 7.468 3.772 30.58 30.58 0 0 0 6.299 1.479c1.711.209 3.381.256 4.977.15zm-2.867 25.8c4.617-8.542 5.884-17.925 5.046-27.144l-.107-1.166-1.157.135a23.716 23.716 0 0 1-5.615-.042 28.291 28.291 0 0 1-5.824-1.363 28.644 28.644 0 0 1-6.916-3.496h-.004c-2.093-1.451-3.865-3.129-5.23-4.919L25.998 0l-.905 1.188c-1.362 1.787-3.136 3.463-5.233 4.92a28.627 28.627 0 0 1-6.918 3.495 28.244 28.244 0 0 1-5.823 1.363c-1.958.24-3.849.248-5.614.042l-1.158-.135L.24 12.04c-.838 9.219.429 18.602 5.046 27.143 3.979 7.36 10.435 14.08 20.16 19.509L26 59l.554-.31c9.722-5.427 16.18-12.147 20.159-19.508z"/>
</svg>
