<?xml version="1.0" encoding="UTF-8"?>
<svg width="65px" height="59px" viewBox="0 0 65 59" version="1.1" xmlns="http://www.w3.org/2000/svg" xmlns:xlink="http://www.w3.org/1999/xlink">
    <!-- Generator: Sketch 54.1 (76490) - https://sketchapp.com -->
    <title>Combined Shape</title>
    <desc>Created with Sketch.</desc>
    <g id="Τ2---PRD-Home" stroke="none" stroke-width="1" fill="none" fill-rule="evenodd">
        <g id="T2-1-PRD-Home" transform="translate(-536.000000, -1280.000000)" fill="#F2B100">
            <path d="M556.932362,1321.34348 L557.205872,1321.77096 L557.205872,1331.46574 L573.905842,1331.46336 L573.914154,1331.46336 C574.521339,1331.5069 575.025216,1331.52709 575.500198,1331.52709 C587.645882,1331.52709 597.527486,1321.64588 597.527486,1309.4998 C597.527486,1297.35412 587.645882,1287.47251 575.500198,1287.47251 C563.354118,1287.47251 553.472514,1297.35412 553.472514,1309.4998 C553.472514,1313.70775 554.669073,1317.80328 556.932362,1321.34348 Z M575.500198,1284 C589.560851,1284 601,1295.43915 601,1309.4998 C601,1315.91008 598.602924,1322.0417 594.250111,1326.7654 C589.97844,1331.40122 584.207805,1334.27684 577.978416,1334.88046 L578.030268,1334.93152 L577.358961,1334.93271 C576.750588,1334.97744 576.122424,1335 575.500198,1335 C574.982072,1335 574.448905,1334.98021 573.822324,1334.93825 L553.732962,1334.93865 L553.732962,1322.77674 C551.290763,1318.78135 550,1314.19104 550,1309.4998 C550,1295.43915 561.439149,1284 575.500198,1284 Z M549.45982,1332 C549.757742,1332 550,1332.22368 550,1332.49876 L550,1334.67694 C550,1334.95165 549.757742,1335.1757 549.45982,1335.1757 L539.439044,1335.1757 L539.439044,1338.50124 C539.439044,1338.77632 539.196786,1339 538.898863,1339 L536.54018,1339 C536.242258,1339 536,1338.77632 536,1338.50124 L536,1332 L549.45982,1332 Z M560.469851,1310.0002 C560.469851,1318.01202 566.987982,1324.53054 575.000198,1324.53054 C583.012018,1324.53054 589.530149,1318.01202 589.530149,1310.0002 C589.530149,1301.98798 583.012018,1295.46985 575.000198,1295.46985 C566.987982,1295.46985 560.469851,1301.98798 560.469851,1310.0002 Z M575.000198,1328 C565.0747,1328 557,1319.9253 557,1310.0002 C557,1300.0747 565.0747,1292 575.000198,1292 C584.9253,1292 593,1300.0747 593,1310.0002 C593,1319.9253 584.9253,1328 575.000198,1328 Z M571.044963,1314.26955 C570.180031,1315.41802 568.962794,1316 567.427753,1316 C566.203211,1316 565.189321,1315.67249 564.414089,1315.0266 C563.637233,1314.37991 563.167223,1313.4998 563.015829,1312.41127 L563,1312.29615 L565.71656,1312.02104 L565.730766,1312.13021 C565.797736,1312.65105 565.997835,1313.06788 566.325787,1313.36959 C566.651303,1313.66892 567.030802,1313.82096 567.454541,1313.82096 C567.944439,1313.82096 568.348291,1313.63081 568.689637,1313.23938 C569.030982,1312.84835 569.203887,1312.24335 569.203887,1311.44105 C569.203887,1310.69154 569.033012,1310.12505 568.696131,1309.75784 C568.357626,1309.38825 567.928204,1309.20881 567.383106,1309.20881 C566.704068,1309.20881 566.0851,1309.50893 565.542437,1310.10083 L565.501037,1310.14569 L563.296699,1309.83327 L564.615,1303 L571.422838,1303 L571.422838,1305.50933 L566.698791,1305.50933 L566.363534,1307.36483 C566.869667,1307.14807 567.391224,1307.03811 567.916028,1307.03811 C569.050465,1307.03811 570.02539,1307.4474 570.814016,1308.25407 C571.601019,1309.05955 572,1310.11751 572,1311.39778 C572,1312.46566 571.678948,1313.43192 571.044963,1314.26955 Z M575.71333,1306.7457 L575.71333,1316 L573,1316 L573,1303 L577.200634,1303 L579.508448,1311.3844 L581.789887,1303 L586,1303 L586,1316 L583.28667,1316 L583.28667,1306.74251 L580.871295,1316 L578.119639,1316 L575.71333,1306.7457 Z M545.866953,1301.64167 C545.561234,1301.55508 545.298183,1301.34319 545.145128,1301.06027 C544.993638,1300.78055 544.959583,1300.45972 545.048441,1300.15686 C547.859017,1290.60635 554.809518,1283.28206 564.118477,1280.06185 C564.237085,1280.02075 564.36039,1280 564.48487,1280 C564.98866,1280 565.447825,1280.34676 565.601271,1280.84356 L565.944569,1281.95487 C566.139509,1282.58535 565.804823,1283.25772 565.183208,1283.48557 C557.276015,1286.38416 551.019546,1292.97941 548.447751,1301.12851 C548.283344,1301.64965 547.817915,1302 547.290247,1302 C547.183383,1302 547.076518,1301.98524 546.972785,1301.95571 L545.866953,1301.64167 Z" id="Combined-Shape"></path>
        </g>
    </g>
</svg>