<?xml version="1.0" encoding="UTF-8"?>
<svg width="72px" height="59px" viewBox="0 0 72 59" version="1.1" xmlns="http://www.w3.org/2000/svg" xmlns:xlink="http://www.w3.org/1999/xlink">
    <!-- Generator: Sketch 54.1 (76490) - https://sketchapp.com -->
    <title>Combined Shape 2</title>
    <desc>Created with Sketch.</desc>
    <g id="Τ2---PRD-Home" stroke="none" stroke-width="1" fill="none" fill-rule="evenodd">
        <g id="T2-1-PRD-Home" transform="translate(-170.000000, -1277.000000)" fill="#F2B100">
            <path d="M226.381431,1320.24046 C226.979449,1320.61749 227.179715,1321.3408 226.823116,1321.92705 L224.758124,1325.31631 C224.49223,1325.75264 223.988068,1326 223.466641,1326 C223.230099,1326 222.99183,1325.9493 222.769101,1325.84175 C222.056023,1325.49914 221.791856,1324.70637 222.176884,1324.07184 L224.241876,1320.68258 C224.377315,1320.46145 224.57416,1320.28874 224.803491,1320.17237 L227.54049,1313.7959 L227.54049,1295.91611 C224.96334,1295.46063 223,1293.20514 223,1290.49918 C223,1287.46735 225.467351,1285 228.500818,1285 C231.532649,1285 234,1287.46735 234,1290.49918 C234,1293.36432 231.798885,1295.72442 229,1295.97753 L229,1313.9685 C229,1314.08141 228.977453,1314.19271 228.933864,1314.29595 L226.381431,1320.24046 Z M227.54049,1294.29205 L227.54049,1292.80862 C226.63639,1292.43149 226,1291.5381 226,1290.49922 C226,1289.12232 227.120422,1288 228.5,1288 C229.878026,1288 231,1289.12232 231,1290.49922 C231,1291.70645 230.139445,1292.71723 229,1292.94971 L229,1294.37958 C230.921565,1294.13374 232.411275,1292.48808 232.411275,1290.49918 C232.411275,1288.3427 230.657296,1286.58873 228.500818,1286.58873 C226.34434,1286.58873 224.588725,1288.3427 224.588725,1290.49918 C224.588725,1292.32584 225.846482,1293.86297 227.54049,1294.29205 Z M172.695263,1333.28919 L239.304737,1333.28919 L239.304737,1279.71081 L172.695263,1279.71081 L172.695263,1333.28919 Z M240.652368,1336 L171.347632,1336 C170.604056,1336 170,1335.39405 170,1334.64459 L170,1278.35541 C170,1277.60754 170.604056,1277 171.347632,1277 L240.652368,1277 C241.395944,1277 242,1277.60754 242,1278.35541 L242,1334.64459 C242,1335.39405 241.395944,1336 240.652368,1336 Z M199,1316.33818 C204.3089,1316.33818 208.628856,1311.92431 208.628856,1306.5 C208.628856,1301.07569 204.3089,1296.66182 199,1296.66182 C193.6911,1296.66182 189.371144,1301.07569 189.371144,1306.5 C189.371144,1311.92431 193.6911,1316.33818 199,1316.33818 Z M199,1283 C211.682023,1283 222,1293.54228 222,1306.5 C222,1319.45772 211.682023,1330 199,1330 C186.317977,1330 176,1319.45772 176,1306.5 C176,1293.54228 186.317977,1283 199,1283 Z M231,1328.971 L231,1327.029 L235,1327.029 L235,1328.971 L231,1328.971 Z M231,1324.971 L231,1323.029 L235,1323.029 L235,1324.971 L231,1324.971 Z" id="Combined-Shape-2"></path>
        </g>
    </g>
</svg>